<svg xmlns="http://www.w3.org/2000/svg" xmlns:xlink="http://www.w3.org/1999/xlink" width="500" zoomAndPan="magnify" viewBox="0 0 375 374.999991" height="500" preserveAspectRatio="xMidYMid meet" version="1.0"><defs><clipPath id="c6a52b1ab9"><path d="M 102 88 L 283 88 L 283 363.796875 L 102 363.796875 Z M 102 88 " clip-rule="nonzero"/></clipPath><clipPath id="d5422d434e"><path d="M 209 11.296875 L 223 11.296875 L 223 47 L 209 47 Z M 209 11.296875 " clip-rule="nonzero"/></clipPath><clipPath id="b824156ca9"><path d="M 26.671875 207 L 70 207 L 70 222 L 26.671875 222 Z M 26.671875 207 " clip-rule="nonzero"/></clipPath><clipPath id="971e1050b8"><path d="M 309 159 L 348.421875 159 L 348.421875 172 L 309 172 Z M 309 159 " clip-rule="nonzero"/></clipPath></defs><g clip-path="url(#c6a52b1ab9)"><path fill="#000000" d="M 210.84375 91.28125 C 179.410156 83.421875 144.324219 94.648438 123.273438 119.066406 C 102.222656 143.761719 96.890625 179.96875 109.523438 209.71875 C 111.488281 214.488281 114.292969 219.257812 116.539062 223.75 C 118.222656 226.554688 119.90625 229.644531 121.308594 232.730469 C 126.644531 243.675781 127.765625 256.023438 127.765625 265.285156 C 128.046875 275.109375 131.976562 284.371094 138.710938 290.824219 C 135.90625 293.632812 133.941406 297.84375 134.5 302.050781 C 134.78125 306.824219 137.589844 311.59375 142.078125 315.242188 C 140.113281 317.488281 138.992188 320.574219 139.554688 323.660156 C 139.835938 327.03125 142.078125 330.398438 145.167969 332.921875 C 143.484375 334.886719 142.921875 337.414062 143.203125 340.21875 C 143.761719 343.308594 145.726562 346.394531 148.816406 348.640625 C 151.0625 350.324219 153.585938 351.164062 155.832031 351.726562 C 156.113281 355.375 158.359375 359.023438 161.445312 361.269531 C 163.691406 362.953125 166.496094 363.796875 169.304688 363.796875 C 171.269531 363.796875 173.234375 363.234375 174.917969 362.390625 C 178.566406 360.707031 181.09375 357.339844 182.214844 353.410156 C 183.617188 353.128906 185.304688 352.851562 186.707031 352.570312 C 189.792969 352.007812 193.160156 350.886719 195.6875 348.078125 C 197.089844 346.394531 197.933594 343.867188 197.371094 341.0625 C 197.371094 340.5 197.089844 339.941406 197.089844 339.378906 C 198.214844 339.097656 199.335938 338.535156 200.460938 337.976562 C 203.546875 336.292969 205.792969 333.203125 206.351562 330.117188 C 206.632812 328.433594 206.632812 326.1875 205.792969 324.503906 C 208.039062 323.941406 210.28125 323.382812 212.246094 322.257812 C 215.335938 320.574219 217.859375 318.050781 218.703125 315.242188 C 219.824219 312.15625 219.265625 308.507812 217.578125 305.140625 C 217.019531 303.734375 215.894531 302.613281 215.054688 301.210938 C 225.71875 296.15625 227.964844 287.738281 229.367188 282.96875 C 229.367188 282.40625 229.648438 282.125 229.648438 281.5625 C 233.578125 269.214844 237.507812 263.039062 246.207031 249.570312 C 249.015625 245.359375 252.664062 240.871094 256.59375 236.097656 C 268.101562 222.066406 282.695312 204.664062 282.695312 178.84375 C 282.695312 157.515625 275.117188 136.746094 262.488281 123.277344 C 247.613281 107.839844 228.246094 95.492188 210.84375 91.28125 Z M 172.113281 357.621094 C 169.585938 358.742188 166.496094 358.464844 164.253906 357.058594 C 163.128906 356.21875 162.007812 354.816406 161.445312 353.410156 C 165.09375 353.972656 169.023438 354.535156 172.953125 354.535156 C 173.796875 354.535156 174.636719 354.535156 175.480469 354.535156 C 174.917969 355.9375 173.796875 357.058594 172.113281 357.621094 Z M 191.195312 344.992188 C 189.792969 346.394531 187.546875 347.238281 185.304688 347.515625 C 176.882812 349.203125 168.183594 349.203125 160.042969 347.238281 C 159.761719 346.957031 159.199219 346.675781 158.640625 346.675781 C 158.359375 346.675781 158.078125 346.675781 157.796875 346.675781 C 155.832031 346.113281 153.585938 345.554688 151.902344 344.148438 C 150.21875 343.027344 149.097656 341.34375 148.816406 339.660156 C 148.535156 338.257812 149.378906 336.851562 150.21875 336.292969 C 151.621094 336.851562 153.027344 337.414062 154.148438 337.976562 C 162.289062 340.78125 170.988281 342.183594 179.410156 342.183594 C 183.339844 342.183594 187.265625 341.90625 191.476562 341.34375 C 191.476562 341.625 191.757812 341.90625 191.757812 342.464844 C 191.757812 343.589844 191.476562 344.710938 191.195312 344.992188 Z M 200.460938 329.835938 C 200.179688 331.238281 199.054688 332.644531 197.371094 333.765625 C 195.40625 334.886719 193.160156 335.167969 190.917969 335.730469 C 179.128906 337.695312 167.058594 336.570312 155.832031 332.921875 C 153.585938 332.082031 150.78125 330.957031 148.535156 329.273438 C 146.570312 327.589844 145.167969 325.625 144.886719 323.660156 C 144.605469 321.699219 145.449219 320.011719 146.851562 319.171875 C 149.378906 320.574219 152.183594 321.417969 154.429688 322.257812 C 164.535156 325.625 175.480469 327.308594 186.144531 327.308594 C 190.636719 327.308594 195.125 327.03125 199.617188 326.46875 C 200.460938 326.75 200.738281 328.433594 200.460938 329.835938 Z M 212.527344 308.226562 C 213.652344 310.191406 213.929688 312.4375 213.371094 313.839844 C 212.808594 315.242188 211.40625 316.925781 209.722656 317.769531 C 207.757812 318.609375 205.792969 319.171875 203.265625 319.734375 C 187.828125 322.539062 171.832031 321.136719 156.957031 316.363281 C 153.304688 315.242188 149.378906 313.558594 146.007812 311.03125 C 142.921875 308.507812 140.957031 305.140625 140.675781 301.769531 C 140.394531 298.964844 141.800781 296.15625 143.761719 294.753906 C 147.414062 297.5625 151.902344 299.527344 156.394531 300.929688 C 164.253906 302.894531 180.8125 304.859375 187.265625 305.417969 C 189.792969 305.699219 192.320312 305.699219 194.566406 305.699219 C 200.738281 305.699219 205.511719 304.859375 209.722656 303.734375 C 210.5625 305.417969 211.6875 306.824219 212.527344 308.226562 Z M 166.496094 221.503906 C 176.882812 224.589844 188.109375 225.714844 199.054688 224.589844 C 190.074219 248.445312 185.304688 274.265625 185.304688 299.804688 C 181.375 299.527344 175.480469 298.683594 170.148438 297.84375 C 172.113281 272.300781 170.988281 246.761719 166.496094 221.503906 Z M 252.101562 233.292969 C 248.171875 238.0625 244.242188 242.832031 241.4375 247.324219 C 232.457031 261.355469 228.246094 267.8125 224.316406 280.722656 C 224.035156 281.285156 224.035156 281.5625 223.753906 282.125 C 222.632812 286.335938 220.386719 293.914062 210.28125 297.5625 C 209.441406 297.5625 208.597656 297.5625 208.039062 298.121094 C 203.546875 299.246094 197.933594 300.085938 190.636719 299.804688 C 190.636719 273.707031 195.6875 247.605469 205.230469 223.46875 C 208.316406 222.90625 211.125 222.347656 214.210938 221.503906 C 219.265625 220.101562 224.878906 217.855469 227.683594 212.242188 C 229.367188 209.15625 229.367188 205.507812 227.964844 202.699219 C 226.84375 200.175781 224.597656 198.210938 221.789062 197.648438 C 218.421875 196.808594 214.773438 197.648438 211.6875 199.894531 C 208.316406 202.421875 206.351562 206.070312 204.667969 209.71875 C 203.265625 212.523438 202.144531 215.609375 200.738281 218.417969 C 189.511719 219.820312 177.726562 218.976562 166.777344 215.609375 C 166.21875 215.328125 165.375 215.050781 164.535156 215.050781 C 163.691406 211.121094 162.570312 207.191406 160.605469 203.824219 C 158.917969 201.296875 156.957031 199.332031 154.429688 197.929688 C 152.183594 196.808594 149.65625 197.085938 147.972656 198.492188 C 146.007812 199.894531 145.167969 202.140625 145.726562 204.664062 C 146.570312 208.03125 148.535156 211.402344 151.339844 214.207031 C 153.867188 216.453125 156.675781 218.136719 159.761719 219.257812 C 164.8125 244.796875 165.9375 270.898438 163.972656 296.71875 C 161.164062 296.15625 158.640625 295.878906 156.675781 295.316406 C 152.464844 294.195312 148.535156 292.230469 145.167969 289.421875 C 144.886719 289.140625 144.605469 288.859375 144.324219 288.859375 C 137.589844 283.246094 133.097656 274.546875 133.097656 265.003906 C 132.816406 254.902344 131.976562 241.992188 126.082031 229.925781 C 124.679688 226.835938 122.714844 223.75 121.308594 220.664062 C 118.785156 216.171875 116.539062 211.679688 114.292969 206.910156 C 102.503906 179.125 107.558594 145.167969 127.203125 122.152344 C 142.640625 104.191406 166.21875 93.808594 189.792969 93.808594 C 196.25 93.808594 202.703125 94.648438 208.878906 96.050781 C 225.15625 100.261719 243.683594 111.769531 257.714844 127.203125 C 269.503906 139.835938 276.238281 159.199219 276.238281 179.125 C 277.082031 203.261719 263.890625 219.257812 252.101562 233.292969 Z M 208.039062 217.574219 C 208.878906 215.890625 209.441406 214.207031 210.28125 212.523438 C 211.6875 209.4375 213.089844 206.628906 215.617188 204.664062 C 216.738281 203.824219 218.421875 203.261719 219.824219 203.261719 C 220.105469 203.261719 220.667969 203.261719 220.949219 203.261719 C 222.070312 203.542969 222.914062 204.105469 223.195312 205.226562 C 223.753906 206.628906 223.753906 208.3125 222.914062 209.996094 C 220.949219 213.644531 216.738281 215.328125 212.808594 216.453125 C 211.40625 216.734375 209.722656 217.292969 208.039062 217.574219 Z M 158.917969 212.242188 C 157.796875 211.679688 156.957031 210.839844 156.113281 209.996094 C 154.148438 208.03125 152.746094 205.789062 152.183594 203.261719 C 152.183594 203.261719 152.183594 202.980469 152.183594 202.980469 C 152.183594 202.980469 152.464844 202.980469 152.464844 202.980469 C 152.464844 202.980469 152.746094 202.980469 152.746094 202.980469 C 154.429688 203.824219 155.832031 205.226562 156.675781 206.910156 C 157.515625 208.59375 158.359375 210.277344 158.917969 212.242188 Z M 158.917969 212.242188 " fill-opacity="1" fill-rule="nonzero"/></g><path fill="#000000" d="M 158.359375 117.664062 C 152.183594 115.980469 145.726562 118.222656 140.675781 123.554688 C 135.0625 129.449219 134.222656 138.992188 138.992188 145.449219 C 142.359375 149.9375 147.972656 152.464844 153.585938 152.464844 C 155.832031 152.464844 158.078125 151.902344 160.324219 151.058594 C 167.058594 147.972656 173.234375 140.113281 171.269531 131.695312 C 169.585938 124.398438 164.8125 119.347656 158.359375 117.664062 Z M 158.078125 145.726562 C 153.027344 147.972656 146.851562 146.289062 143.484375 141.800781 C 140.394531 137.589844 140.957031 131.132812 144.886719 127.203125 C 148.535156 123.277344 153.027344 121.871094 156.957031 122.996094 C 161.164062 124.117188 164.535156 127.765625 165.65625 132.816406 C 166.777344 138.152344 162.570312 143.761719 158.078125 145.726562 Z M 158.078125 145.726562 " fill-opacity="1" fill-rule="nonzero"/><g clip-path="url(#d5422d434e)"><path fill="#000000" d="M 212.246094 46.65625 C 212.527344 46.65625 212.527344 46.65625 212.808594 46.65625 C 214.210938 46.65625 215.335938 45.816406 215.613281 44.414062 L 222.070312 14.945312 C 222.351562 13.539062 221.507812 11.855469 219.824219 11.574219 C 218.421875 11.296875 216.738281 12.136719 216.457031 13.820312 L 210 43.289062 C 209.722656 44.972656 210.5625 46.378906 212.246094 46.65625 Z M 212.246094 46.65625 " fill-opacity="1" fill-rule="nonzero"/></g><path fill="#000000" d="M 136.464844 55.636719 C 137.027344 56.480469 137.871094 57.042969 138.710938 57.042969 C 139.273438 57.042969 139.835938 57.042969 140.113281 56.480469 C 141.519531 55.636719 141.800781 53.953125 140.957031 52.550781 L 122.152344 22.242188 C 121.308594 20.835938 119.625 20.558594 118.222656 21.398438 C 116.820312 22.242188 116.539062 23.925781 117.378906 25.328125 Z M 136.464844 55.636719 " fill-opacity="1" fill-rule="nonzero"/><path fill="#000000" d="M 39.355469 122.433594 L 76.402344 133.660156 C 76.683594 133.660156 76.964844 133.660156 77.246094 133.660156 C 78.367188 133.660156 79.488281 132.816406 80.050781 131.695312 C 80.613281 130.292969 79.769531 128.609375 78.085938 128.328125 L 41.039062 117.101562 C 39.636719 116.539062 37.949219 117.382812 37.671875 119.066406 C 36.828125 120.46875 37.671875 122.152344 39.355469 122.433594 Z M 39.355469 122.433594 " fill-opacity="1" fill-rule="nonzero"/><g clip-path="url(#b824156ca9)"><path fill="#000000" d="M 69.949219 210.277344 C 69.667969 208.875 68.261719 207.753906 66.578125 208.03125 L 29.25 215.890625 C 27.847656 216.171875 26.722656 217.574219 27.003906 219.257812 C 27.285156 220.664062 28.410156 221.503906 29.8125 221.503906 C 30.09375 221.503906 30.09375 221.503906 30.371094 221.503906 L 67.703125 213.644531 C 69.105469 213.367188 70.226562 211.960938 69.949219 210.277344 Z M 69.949219 210.277344 " fill-opacity="1" fill-rule="nonzero"/></g><path fill="#000000" d="M 87.628906 265.847656 L 56.757812 282.125 C 55.351562 282.96875 54.792969 284.652344 55.632812 286.054688 C 56.195312 286.898438 57.035156 287.457031 58.160156 287.457031 C 58.71875 287.457031 59 287.457031 59.5625 287.175781 L 90.4375 270.898438 C 91.839844 270.058594 92.402344 268.375 91.558594 266.96875 C 90.71875 265.847656 89.03125 265.285156 87.628906 265.847656 Z M 87.628906 265.847656 " fill-opacity="1" fill-rule="nonzero"/><path fill="#000000" d="M 256.59375 298.683594 C 255.75 297.5625 253.785156 297.28125 252.664062 298.121094 C 251.542969 298.964844 251.261719 300.929688 252.101562 302.050781 L 273.996094 329.273438 C 274.554688 329.835938 275.398438 330.398438 276.238281 330.398438 C 276.800781 330.398438 277.363281 330.117188 277.925781 329.835938 C 279.046875 328.996094 279.328125 327.03125 278.484375 325.90625 Z M 256.59375 298.683594 " fill-opacity="1" fill-rule="nonzero"/><path fill="#000000" d="M 331.53125 260.234375 L 296.167969 244.238281 C 294.765625 243.675781 293.082031 244.238281 292.519531 245.640625 C 291.957031 247.042969 292.519531 248.726562 293.921875 249.289062 L 329.285156 265.285156 C 329.566406 265.566406 330.128906 265.566406 330.410156 265.566406 C 331.53125 265.566406 332.375 265.003906 332.933594 263.882812 C 333.496094 262.480469 332.933594 260.796875 331.53125 260.234375 Z M 331.53125 260.234375 " fill-opacity="1" fill-rule="nonzero"/><g clip-path="url(#971e1050b8)"><path fill="#000000" d="M 344.722656 159.199219 L 311.886719 165.65625 C 310.480469 165.933594 309.359375 167.339844 309.640625 169.023438 C 309.921875 170.425781 311.042969 171.265625 312.445312 171.265625 C 312.726562 171.265625 312.726562 171.265625 313.007812 171.265625 L 345.847656 164.8125 C 347.25 164.53125 348.371094 163.128906 348.089844 161.445312 C 347.8125 159.761719 346.40625 158.917969 344.722656 159.199219 Z M 344.722656 159.199219 " fill-opacity="1" fill-rule="nonzero"/></g><path fill="#000000" d="M 321.707031 81.457031 C 323.113281 80.617188 323.394531 78.933594 322.832031 77.53125 C 321.988281 76.125 320.304688 75.84375 318.902344 76.40625 L 290.273438 92.964844 C 288.871094 93.808594 288.589844 95.492188 289.152344 96.894531 C 289.710938 97.738281 290.554688 98.296875 291.675781 98.296875 C 292.238281 98.296875 292.519531 98.296875 293.082031 98.015625 Z M 321.707031 81.457031 " fill-opacity="1" fill-rule="nonzero"/></svg>