<svg xmlns="http://www.w3.org/2000/svg" xmlns:xlink="http://www.w3.org/1999/xlink" width="500" zoomAndPan="magnify" viewBox="0 0 375 374.999991" height="500" preserveAspectRatio="xMidYMid meet" version="1.0"><defs><clipPath id="5a7bf9110d"><path d="M 0 111.265625 L 245 111.265625 L 245 356 L 0 356 Z M 0 111.265625 " clip-rule="nonzero"/></clipPath><clipPath id="3e078fd857"><path d="M 241 119 L 256.988281 119 L 256.988281 366.617188 L 241 366.617188 Z M 241 119 " clip-rule="nonzero"/></clipPath><clipPath id="ac0a426e1c"><path d="M 86 7.898438 L 374.851562 7.898438 L 374.851562 334 L 86 334 Z M 86 7.898438 " clip-rule="nonzero"/></clipPath></defs><g clip-path="url(#5a7bf9110d)"><path fill="#000000" d="M 31.949219 351.574219 C 31.488281 351.324219 31.042969 350.90625 30.566406 350.859375 C 28.769531 350.695312 26.964844 350.628906 25.160156 350.597656 C 24.484375 350.585938 23.804688 350.765625 23.121094 350.859375 C 23.132812 350.9375 23.167969 351.152344 23.203125 351.371094 C 23.101562 351.382812 23.039062 351.390625 23.03125 351.386719 C 22.746094 349.9375 21.460938 350.582031 20.761719 350.515625 C 18.519531 350.296875 16.246094 350.433594 13.992188 350.378906 C 13.011719 350.359375 12.03125 350.234375 11.054688 350.109375 C 10.214844 350.007812 9.789062 350.234375 10.007812 351.230469 L 9.207031 351.230469 C 9.351562 350.925781 9.503906 350.601562 9.761719 350.046875 C 7.734375 349.945312 5.808594 349.996094 3.9375 349.695312 C 2.636719 349.480469 1.40625 348.796875 0.160156 348.28125 C 0.0664062 348.246094 0.0195312 347.910156 0.0664062 347.738281 C 0.289062 346.9375 2.148438 345.597656 2.929688 345.578125 C 4.363281 345.539062 5.792969 345.441406 7.226562 345.410156 C 8.550781 345.378906 9.871094 345.425781 11.195312 345.378906 C 12.078125 345.347656 12.957031 345.21875 13.871094 344.835938 C 13.558594 344.746094 13.210938 344.71875 12.949219 344.554688 C 12.714844 344.402344 11.890625 344.347656 12.710938 343.738281 C 12.894531 343.597656 12.683594 342.875 12.609375 342.429688 C 12.527344 341.917969 12.386719 341.40625 12.253906 340.808594 C 12.097656 340.882812 11.890625 340.980469 11.671875 341.082031 C 10.234375 339.710938 10.523438 337.820312 10.21875 336.121094 C 10.132812 335.644531 10.292969 335.125 10.347656 334.554688 C 8.90625 334.40625 9.648438 332.90625 9.457031 332.035156 C 8.96875 329.8125 8.777344 327.523438 8.550781 325.253906 C 8.507812 324.851562 8.859375 324.417969 9.082031 323.882812 C 8.304688 323.660156 8.316406 322.878906 8.347656 321.996094 C 8.371094 321.296875 8.128906 320.589844 8.070312 319.882812 C 8.039062 319.472656 8.132812 319.046875 7.992188 318.621094 C 8.191406 318.300781 8.386719 317.976562 8.585938 317.65625 L 7.746094 317.65625 C 7.71875 317.375 7.683594 316.988281 7.652344 316.597656 C 8.070312 316.40625 8.449219 316.230469 8.828125 316.050781 L 8.777344 315.875 C 8.449219 315.925781 8.125 315.972656 7.753906 316.03125 C 7.5625 315.027344 7.375 314.042969 7.183594 313.054688 L 7.542969 312.9375 L 8.144531 314.980469 C 8.253906 314.945312 8.363281 314.910156 8.472656 314.875 C 8.527344 313.949219 8.582031 313.023438 8.636719 312.0625 L 7.128906 312.0625 C 7.675781 311.773438 7.925781 311.636719 8.023438 311.585938 C 7.714844 310.445312 7.421875 309.375 7.132812 308.308594 C 7.089844 308.152344 6.957031 307.921875 7.011719 307.863281 C 8.15625 306.683594 7.289062 305.636719 6.945312 304.457031 C 6.59375 303.226562 6.59375 301.886719 6.515625 300.589844 C 6.441406 299.40625 6.464844 298.214844 6.453125 297.027344 C 6.453125 296.824219 6.40625 296.542969 6.515625 296.429688 C 7.144531 295.78125 7.101562 295.195312 6.464844 294.585938 C 6.378906 294.507812 6.453125 294.269531 6.453125 293.972656 C 6.753906 294.101562 6.976562 294.203125 7.371094 294.367188 C 7.371094 293.84375 7.371094 293.371094 7.371094 292.898438 C 7.121094 293.050781 6.875 293.195312 6.558594 293.386719 L 6.558594 291.191406 C 6.835938 291.605469 7.003906 291.855469 7.167969 292.105469 C 7.3125 292.105469 7.453125 292.105469 7.601562 292.097656 C 6.679688 290.519531 7.800781 289.246094 7.875 287.851562 C 7.960938 286.101562 7.703125 284.332031 7.667969 282.570312 C 7.625 280.515625 7.667969 278.457031 7.660156 276.402344 C 7.660156 276.296875 7.609375 276.195312 7.335938 276.070312 C 7.269531 276.535156 7.199219 277 7.132812 277.464844 L 6.921875 277.558594 C 6.734375 277.117188 6.273438 276.519531 6.410156 276.257812 C 6.953125 275.269531 6.171875 274.398438 6.328125 273.535156 C 6.53125 272.414062 5.964844 271.199219 6.828125 270.140625 C 7.019531 269.90625 6.742188 269.304688 6.707031 268.871094 C 6.679688 268.570312 6.15625 267.890625 7.132812 268.269531 C 7.195312 268.289062 7.328125 268.175781 7.402344 268.097656 C 7.925781 267.507812 7.644531 264.746094 7.019531 264.28125 C 7.785156 263.851562 7.847656 262.144531 7.242188 261.539062 C 6.925781 261.230469 6.835938 260.652344 6.710938 260.179688 C 6.621094 259.828125 6.625 259.453125 6.578125 259.007812 L 7.167969 259.007812 C 6.867188 258.519531 6.613281 258.109375 6.273438 257.558594 L 7.625 257.558594 C 7.644531 256.425781 8.554688 255.082031 6.519531 254.332031 C 7.054688 254.074219 7.375 253.917969 7.792969 253.714844 C 7.707031 253.078125 7.625 252.417969 7.515625 251.601562 C 7.527344 251.589844 7.734375 251.367188 7.9375 251.144531 C 7.863281 251.066406 7.796875 250.996094 7.722656 250.917969 C 7.402344 251.101562 7.074219 251.289062 6.621094 251.550781 C 6.894531 249.925781 6.0625 248.222656 7.621094 246.707031 C 8 246.335938 7.339844 244.894531 6.867188 244 C 7.023438 243.6875 7.175781 243.375 7.335938 243.054688 C 7.546875 243.132812 7.761719 243.207031 8 243.292969 C 8.015625 243.175781 8.054688 243.085938 8.03125 243.054688 C 7.671875 242.585938 7.296875 242.128906 6.996094 241.75 C 6.996094 239.820312 6.976562 237.832031 7.007812 235.84375 C 7.027344 234.402344 7.132812 232.972656 7.183594 231.53125 C 7.238281 230.09375 7.230469 228.65625 7.3125 227.222656 C 7.382812 226.003906 7.507812 224.789062 7.667969 223.578125 C 7.746094 222.996094 8.570312 222.679688 8.03125 221.78125 C 7.8125 221.417969 8.507812 220.457031 7.636719 219.957031 C 7.765625 219.78125 7.886719 219.59375 8.035156 219.433594 C 8.464844 218.972656 8.828125 218.566406 7.925781 218.175781 C 7.722656 218.089844 7.625 217.625 7.585938 217.320312 C 7.546875 217.035156 7.652344 216.734375 7.699219 216.40625 C 7.777344 216.402344 7.953125 216.386719 7.777344 216.402344 C 7.988281 215.652344 8.179688 215.054688 8.320312 214.449219 C 8.382812 214.183594 8.378906 213.882812 8.332031 213.613281 C 8.253906 213.15625 7.492188 212.75 8.261719 212.226562 C 8.320312 212.191406 8.175781 211.628906 8 211.519531 C 7.144531 210.996094 7.5 210.636719 8.226562 210.257812 C 7.953125 209.941406 7.730469 209.683594 7.515625 209.429688 C 7.558594 209.328125 7.589844 209.199219 7.621094 209.195312 C 8.308594 209.183594 8.535156 209.105469 8.195312 208.265625 C 7.855469 207.421875 7.957031 206.402344 7.839844 205.226562 C 7.871094 205.304688 7.785156 205.109375 7.703125 204.90625 C 8.964844 204.5625 7.917969 203.667969 8.085938 203.050781 C 8.277344 202.34375 7.953125 201.507812 7.925781 200.726562 C 7.902344 200.058594 8 199.394531 8.007812 198.730469 C 8.046875 196.957031 8.046875 195.179688 8.109375 193.410156 C 8.117188 193.128906 8.339844 192.859375 8.289062 192.621094 C 8.289062 192.089844 8.300781 191.554688 8.289062 191.023438 C 8.277344 190.652344 8.238281 190.277344 8.222656 189.902344 C 8.1875 189.058594 8.132812 188.210938 8.132812 187.371094 C 8.132812 186.570312 7.925781 185.621094 8.277344 185.007812 C 9.011719 183.738281 8.191406 182.613281 8.304688 181.441406 C 8.367188 180.789062 8.480469 180.140625 8.585938 179.429688 C 8.652344 179.210938 8.910156 178.828125 8.8125 178.644531 C 8.128906 177.40625 8.476562 176.164062 8.652344 174.902344 C 8.746094 174.234375 8.773438 173.550781 8.820312 172.878906 C 8.96875 170.597656 9.125 168.3125 9.25 166.027344 C 9.273438 165.539062 9.121094 165.042969 9.152344 164.554688 C 9.257812 162.792969 9.378906 161.03125 9.558594 159.277344 C 9.742188 157.480469 10.007812 155.695312 10.21875 153.898438 C 10.300781 153.191406 10.246094 152.453125 10.402344 151.769531 C 11.101562 148.679688 10.894531 145.539062 11.101562 142.417969 C 11.261719 140.003906 11.8125 137.613281 12.117188 135.207031 C 12.277344 133.9375 12.226562 132.652344 12.382812 131.382812 C 12.632812 129.34375 12.933594 127.300781 13.300781 125.28125 C 13.503906 124.171875 12.949219 123.40625 11.808594 123.292969 C 10.417969 123.160156 9.035156 122.902344 7.480469 122.675781 C 8.300781 121.046875 8.523438 119.378906 10.101562 118.21875 C 10.007812 118.953125 9.949219 119.445312 9.90625 119.753906 C 11.355469 119.753906 12.734375 119.726562 14.113281 119.761719 C 14.710938 119.777344 15.355469 120.136719 15.722656 119.316406 C 15.757812 119.242188 16.144531 119.21875 16.269531 119.3125 C 17.222656 119.996094 18.261719 119.238281 19.242188 119.511719 C 19.644531 119.628906 20.105469 119.613281 20.53125 119.566406 C 21.226562 119.488281 21.910156 119.332031 22.605469 119.21875 C 22.886719 119.171875 23.183594 119.09375 23.457031 119.132812 C 27.390625 119.789062 31.25 118.859375 35.128906 118.53125 C 36.316406 118.429688 37.496094 118.351562 38.6875 118.304688 C 39.269531 118.28125 40.285156 117.425781 40.34375 117.503906 C 41.257812 118.753906 42.371094 117.679688 43.351562 117.820312 C 43.757812 117.878906 44.589844 118.292969 44.597656 117.246094 C 44.773438 117.265625 44.953125 117.28125 45.132812 117.300781 C 46.019531 117.40625 46.914062 117.640625 47.792969 117.578125 C 49.140625 117.472656 50.472656 117.167969 52.03125 116.90625 C 52.015625 116.878906 52.179688 117.125 52.367188 117.390625 C 52.507812 117.316406 52.636719 117.289062 52.703125 117.214844 C 52.851562 117.046875 52.949219 116.703125 53.082031 116.695312 C 54.109375 116.640625 55.136719 116.667969 56.164062 116.621094 C 56.394531 116.609375 56.609375 116.410156 56.832031 116.289062 C 56.683594 116.128906 56.558594 115.851562 56.386719 115.820312 C 55.9375 115.738281 55.464844 115.734375 55.003906 115.742188 C 53.453125 115.773438 51.902344 115.804688 50.351562 115.867188 C 48.835938 115.929688 47.316406 115.992188 45.804688 116.121094 C 42.242188 116.421875 38.6875 116.777344 35.125 117.078125 C 34.289062 117.152344 33.445312 117.089844 32.601562 117.089844 L 32.585938 116.703125 C 33.210938 116.671875 33.835938 116.640625 34.460938 116.601562 C 34.734375 116.585938 35.015625 116.578125 35.28125 116.507812 C 38.148438 115.726562 41.117188 115.820312 44.035156 115.519531 C 45.660156 115.355469 47.292969 115.308594 48.914062 115.109375 C 50.304688 114.9375 51.667969 114.554688 53.058594 114.414062 C 54.28125 114.292969 55.53125 114.429688 56.765625 114.367188 C 58.253906 114.292969 59.734375 114.078125 61.222656 114.019531 C 64.507812 113.898438 67.789062 113.847656 71.078125 113.753906 C 72.230469 113.722656 73.386719 113.6875 74.535156 113.613281 C 76.601562 113.480469 78.667969 113.28125 80.738281 113.179688 C 82.183594 113.105469 83.710938 113.398438 85.074219 113.046875 C 86.222656 112.757812 87.207031 112.769531 88.335938 112.902344 C 89.433594 113.03125 90.574219 112.675781 91.699219 112.574219 C 93.070312 112.453125 94.441406 112.34375 95.816406 112.28125 C 97.578125 112.203125 99.375 112.375 101.078125 112.042969 C 101.996094 111.863281 102.738281 111.429688 103.589844 112.109375 C 103.640625 112.148438 103.984375 111.703125 104.195312 111.703125 C 106.152344 111.703125 108.105469 111.800781 110.0625 111.777344 C 111.179688 111.761719 112.292969 111.5 113.410156 111.460938 C 114.503906 111.414062 115.597656 111.53125 116.691406 111.523438 C 119.144531 111.507812 121.605469 111.375 124.058594 111.4375 C 126.902344 111.511719 129.738281 111.734375 132.582031 111.890625 C 132.648438 111.890625 132.722656 111.847656 132.789062 111.824219 C 132.789062 111.777344 132.816406 111.707031 132.800781 111.699219 C 132.683594 111.636719 132.5625 111.585938 132.457031 111.539062 C 135.441406 111.640625 138.398438 111.761719 141.359375 111.847656 C 143.6875 111.917969 146.011719 111.957031 148.339844 112 C 150.597656 112.042969 152.855469 112.050781 155.109375 112.097656 C 158.691406 112.175781 162.265625 112.328125 165.84375 112.347656 C 168.535156 112.363281 171.234375 112.175781 173.929688 112.164062 C 175.6875 112.160156 177.453125 112.347656 179.210938 112.367188 C 181.910156 112.398438 184.613281 112.351562 187.308594 112.347656 C 187.863281 112.347656 188.414062 112.390625 188.96875 112.390625 C 193.265625 112.367188 197.566406 112.265625 201.859375 112.34375 C 204.699219 112.394531 207.539062 112.617188 210.363281 112.925781 C 214.175781 113.335938 217.976562 113.835938 221.769531 114.433594 C 223.210938 114.664062 224.601562 115.25 226.007812 115.6875 C 228.144531 116.339844 230.273438 117.019531 232.414062 117.65625 C 232.765625 117.757812 233.359375 117.546875 233.507812 117.738281 C 233.855469 118.1875 234 118.792969 234.328125 119.574219 C 233.175781 119.328125 232.425781 119.226562 231.722656 118.992188 C 230.6875 118.652344 230.449219 119.066406 230.640625 120.074219 C 231.605469 119.457031 232.097656 119.886719 232.332031 120.851562 C 231.832031 121.226562 231.339844 121.59375 230.851562 121.964844 C 231.992188 122.898438 233.203125 123.828125 234.324219 124.863281 C 234.578125 125.09375 234.703125 125.851562 234.519531 126.085938 C 234.125 126.601562 233.492188 126.9375 232.917969 127.378906 C 232.984375 127.4375 233.207031 127.640625 233.585938 127.976562 C 233.183594 128.152344 232.859375 128.433594 232.574219 128.402344 C 228.839844 127.953125 225.105469 127.449219 221.371094 126.96875 C 221.101562 126.933594 220.820312 127 220.546875 127.007812 C 219.25 127.046875 219.097656 126.839844 219.554688 125.730469 C 218.132812 125.304688 216.773438 124.539062 215.191406 124.863281 C 213.71875 125.164062 212.292969 124.378906 210.851562 124.566406 C 210.273438 125.484375 211.09375 125.667969 211.554688 125.925781 C 211.726562 126.019531 212.117188 125.714844 212.71875 125.457031 C 212.8125 125.546875 213.167969 125.890625 213.519531 126.226562 C 213.460938 126.332031 213.398438 126.433594 213.335938 126.539062 C 211.917969 126.039062 210.082031 127.1875 208.96875 125.324219 C 209.417969 125.085938 209.78125 124.894531 210.316406 124.613281 C 209.328125 124.457031 208.5 124.328125 207.664062 124.195312 C 207.675781 124.160156 207.6875 124.125 207.695312 124.089844 C 207.171875 124.148438 206.472656 124.03125 206.175781 124.320312 C 205.761719 124.730469 205.648438 125.453125 205.402344 126.039062 C 205.277344 126.003906 205.160156 125.972656 205.035156 125.9375 C 205.128906 125.4375 205.222656 124.945312 205.355469 124.25 L 201.648438 124.25 C 201.632812 124.328125 201.617188 124.40625 201.601562 124.484375 C 201.871094 124.617188 202.140625 124.757812 202.472656 124.925781 C 201.964844 125.1875 202.140625 126.457031 201.0625 125.839844 C 199.90625 125.179688 201 124.777344 201.617188 124.304688 C 200.847656 124.132812 200.386719 124.035156 199.945312 123.9375 C 199.914062 124.382812 199.929688 124.910156 199.820312 125.40625 C 199.773438 125.621094 199.488281 125.9375 199.308594 125.941406 C 197.605469 125.96875 195.898438 125.957031 194.199219 125.910156 C 193.964844 125.90625 193.742188 125.65625 193.457031 125.484375 C 192.765625 126.554688 192.054688 125.613281 191.34375 125.636719 C 190.996094 125.683594 190.625 125.832031 190.308594 125.753906 C 188.839844 125.390625 187.386719 125.824219 185.933594 125.761719 C 185.34375 125.734375 184.765625 125.472656 184.300781 125.351562 C 183.800781 125.488281 183.335938 125.691406 182.847656 125.734375 C 182.203125 125.785156 181.546875 125.75 180.902344 125.6875 C 180.066406 125.605469 179.242188 125.414062 178.40625 125.351562 C 178.085938 125.324219 177.710938 125.660156 177.421875 125.59375 C 176.816406 125.453125 176.246094 125.152344 175.414062 124.816406 C 176.261719 124.574219 176.910156 124.390625 177.796875 124.132812 C 175.628906 123.339844 175.429688 124.027344 175.21875 125.5625 C 174.628906 125.554688 174.292969 125.167969 174.210938 124.40625 C 173.355469 125.78125 171.738281 126.113281 170.863281 125.195312 C 170.253906 125.375 169.675781 125.714844 169.136719 125.671875 C 168.15625 125.59375 167.199219 125.289062 166.339844 125.105469 C 165.734375 125.15625 165.167969 125.230469 164.597656 125.25 C 163.863281 125.277344 163.128906 125.265625 162.394531 125.25 C 161.179688 125.226562 159.972656 125.179688 158.757812 125.148438 C 158.570312 125.148438 158.382812 125.230469 158.203125 125.210938 C 157.824219 125.167969 157.449219 125.085938 156.828125 124.972656 C 156.414062 125.417969 154.476562 125.433594 153.851562 124.835938 C 153.25 124.988281 152.769531 125.21875 152.300781 125.210938 C 150.328125 125.15625 148.351562 125.078125 146.386719 124.898438 C 145.929688 124.855469 145.519531 124.359375 145.003906 124.019531 C 144.882812 124.285156 144.75 124.558594 144.699219 124.679688 C 144.425781 124.613281 144.144531 124.453125 144.015625 124.53125 C 143.546875 124.808594 143.296875 124.972656 142.921875 124.3125 C 142.757812 124.035156 141.886719 124.175781 141.347656 124.203125 C 140.890625 124.140625 140.433594 124.0625 139.972656 124.015625 C 139.351562 123.953125 138.730469 123.875 138.105469 123.875 C 137.707031 123.875 137.3125 124.019531 136.90625 124.0625 C 136.753906 124.078125 136.582031 123.980469 136.421875 123.949219 C 135.71875 123.808594 135.019531 123.59375 134.3125 123.570312 C 134.035156 123.558594 133.742188 123.984375 133.402344 124.253906 C 133.199219 123.925781 133.007812 123.601562 132.753906 123.191406 C 132.503906 123.546875 132.304688 123.824219 132.109375 124.105469 C 132.109375 123.988281 132.109375 123.875 132.113281 123.765625 C 130.796875 123.679688 129.480469 123.570312 128.15625 123.5 C 126.257812 123.402344 124.359375 123.273438 122.460938 123.277344 C 121.542969 123.277344 120.65625 122.898438 119.648438 123.421875 C 119.03125 123.746094 118.015625 123.269531 117.175781 123.199219 C 115.453125 123.054688 113.703125 122.734375 112.007812 122.898438 C 111.015625 122.996094 110.019531 122.789062 109.0625 123.058594 C 108.847656 123.117188 108.6875 123.382812 108.628906 123.433594 C 108.277344 123.28125 107.996094 123.066406 107.710938 123.054688 C 106.476562 123.019531 105.238281 123.003906 104 123.058594 C 103.683594 123.074219 103.382812 123.507812 103.070312 123.511719 C 102.570312 123.527344 102.070312 123.34375 101.554688 123.246094 C 101.523438 123.351562 101.460938 123.539062 101.34375 123.890625 C 101.207031 123.609375 101.121094 123.324219 101.066406 123.328125 C 100.394531 123.402344 99.722656 123.5 99.058594 123.625 C 98.601562 123.714844 98.148438 123.984375 97.714844 123.9375 C 97.21875 123.886719 96.746094 123.570312 96.257812 123.382812 C 96.160156 123.34375 96.015625 123.3125 95.925781 123.355469 C 93.460938 124.667969 90.761719 124.148438 88.171875 124.253906 C 82.515625 124.476562 76.851562 124.550781 71.191406 124.566406 C 67.769531 124.574219 64.34375 124.347656 60.917969 124.257812 C 59.308594 124.21875 57.691406 124.285156 56.082031 124.222656 C 55.535156 124.203125 55.007812 123.847656 54.464844 123.800781 C 53.707031 123.746094 52.875 123.667969 52.179688 123.90625 C 51.113281 124.273438 50.214844 123.855469 49.253906 123.632812 C 49.140625 123.605469 49 123.542969 48.917969 123.585938 C 46.460938 124.902344 43.820312 124.042969 41.265625 124.238281 C 39.316406 124.382812 37.355469 124.410156 35.398438 124.421875 C 34.570312 124.425781 33.734375 124.195312 32.902344 124.195312 C 30.636719 124.195312 28.371094 124.304688 26.101562 124.304688 C 23.492188 124.304688 20.878906 124.25 18.269531 124.21875 C 18.074219 124.21875 17.875 124.25 17.417969 124.289062 C 17.558594 125.816406 17.695312 127.277344 17.835938 128.734375 C 18.234375 132.992188 18.636719 137.246094 19.027344 141.503906 C 19.074219 142.027344 19.074219 142.558594 19.074219 143.085938 C 19.078125 145.175781 19.078125 147.261719 19.085938 149.351562 C 19.085938 150.976562 18.929688 152.621094 19.109375 154.226562 C 19.816406 160.507812 19.898438 166.8125 20.074219 173.121094 C 20.230469 178.734375 20.636719 184.335938 20.761719 189.949219 C 20.910156 196.605469 20.882812 203.269531 20.921875 209.929688 C 20.929688 211.820312 20.941406 213.71875 20.847656 215.601562 C 20.800781 216.546875 20.371094 217.480469 20.355469 218.421875 C 20.328125 219.808594 20.78125 221.246094 20.546875 222.574219 C 20.175781 224.683594 21.160156 226.78125 20.226562 228.925781 C 19.773438 229.96875 20.238281 231.390625 20.238281 232.648438 C 20.238281 233.3125 20.105469 233.972656 20.070312 234.636719 C 19.925781 237.25 19.734375 239.863281 19.675781 242.476562 C 19.609375 245.566406 19.726562 248.664062 19.640625 251.753906 C 19.5625 254.324219 19.308594 256.886719 19.117188 259.453125 C 19.054688 260.304688 18.867188 261.144531 18.851562 261.996094 C 18.800781 264.464844 18.847656 266.929688 18.785156 269.398438 C 18.742188 271.058594 18.488281 272.71875 18.492188 274.382812 C 18.492188 275.695312 18.898438 277.015625 18.863281 278.328125 C 18.804688 280.289062 18.507812 282.25 18.316406 284.207031 C 18.253906 284.851562 18.15625 285.5 18.167969 286.144531 C 18.167969 286.273438 18.59375 286.390625 18.824219 286.523438 C 18.53125 287.414062 17.851562 288.292969 19.027344 289.054688 C 19.171875 289.148438 19.089844 289.652344 19.054688 289.960938 C 19.027344 290.1875 18.835938 290.40625 18.851562 290.625 C 18.953125 292.421875 19.109375 294.21875 19.179688 296.019531 C 19.1875 296.246094 18.785156 296.492188 18.546875 296.757812 C 19.015625 297.316406 19.417969 298.019531 18.871094 298.9375 C 18.761719 299.125 18.914062 299.46875 18.945312 299.742188 C 19.054688 300.691406 19.214844 301.644531 19.261719 302.597656 C 19.332031 304.015625 19.332031 305.433594 19.34375 306.851562 C 19.34375 307.457031 19.285156 308.066406 19.285156 308.671875 C 19.277344 310.160156 19.285156 311.636719 19.285156 313.195312 C 19.269531 313.195312 19.425781 313.195312 19.980469 313.195312 C 19.40625 313.488281 19.148438 313.621094 18.699219 313.84375 C 18.992188 313.90625 19.230469 313.90625 19.25 313.96875 C 19.496094 314.75 19.820312 315.53125 19.898438 316.332031 C 20.101562 318.527344 20.226562 320.742188 20.320312 322.949219 C 20.351562 323.664062 20.121094 324.394531 20.164062 325.113281 C 20.207031 325.773438 20.4375 326.421875 20.613281 327.070312 C 20.734375 327.5 20.894531 327.917969 21.046875 328.347656 C 20.671875 328.1875 20.277344 327.894531 20.148438 327.984375 C 19.84375 328.191406 19.664062 328.59375 19.269531 329.148438 C 19.957031 328.996094 20.277344 328.929688 20.597656 328.855469 C 20.5 329.414062 20.417969 329.96875 20.304688 330.519531 C 20.273438 330.664062 20.148438 330.789062 20.003906 331.03125 C 21.175781 331.285156 21.496094 332.007812 21.304688 333.089844 C 21.0625 334.460938 20.910156 335.847656 20.707031 337.292969 C 21.050781 337.523438 21.460938 337.792969 22.019531 338.167969 C 21.488281 338.464844 21.144531 338.648438 20.800781 338.835938 C 20.824219 338.921875 20.84375 339.003906 20.871094 339.085938 C 21.128906 339.058594 21.394531 339.027344 21.972656 338.972656 C 21.460938 339.371094 21.15625 339.605469 20.847656 339.84375 C 20.957031 339.84375 21.066406 339.84375 21.171875 339.839844 C 21.085938 341.035156 21.128906 342.253906 20.890625 343.410156 C 20.71875 344.222656 20.910156 344.855469 21.773438 344.835938 C 22.699219 344.8125 23.628906 344.65625 24.5625 344.59375 C 26 344.496094 27.4375 344.414062 28.878906 344.347656 C 30.886719 344.253906 32.894531 344.195312 34.894531 344.09375 C 37.789062 343.941406 40.691406 343.773438 43.585938 343.605469 C 47.554688 343.363281 51.523438 343.140625 55.480469 342.839844 C 56.6875 342.746094 57.871094 342.320312 59.074219 342.238281 C 60.984375 342.101562 62.902344 342.144531 64.816406 342.078125 C 65.589844 342.050781 66.359375 341.9375 67.132812 341.847656 C 68.625 341.683594 70.109375 341.464844 71.601562 341.339844 C 73.4375 341.183594 75.28125 341.132812 77.117188 340.988281 C 79.238281 340.820312 81.355469 340.59375 83.476562 340.40625 C 85.789062 340.203125 88.105469 339.949219 90.421875 339.847656 C 91.6875 339.796875 92.964844 340.078125 94.242188 340.105469 C 94.875 340.113281 95.601562 339.648438 96.128906 339.832031 C 96.949219 340.121094 97.691406 339.285156 98.582031 339.949219 C 98.988281 340.25 100.035156 339.617188 100.804688 339.515625 C 101.960938 339.371094 103.089844 338.988281 104.300781 339.5625 C 104.742188 339.777344 105.476562 339.269531 106.082031 339.253906 C 107.5 339.214844 108.921875 339.308594 110.335938 339.300781 C 112.070312 339.289062 113.808594 339.230469 115.539062 339.175781 C 117.164062 339.121094 118.789062 339.027344 120.410156 338.992188 C 121.074219 338.976562 121.75 339.152344 122.410156 339.101562 C 123.753906 338.992188 125.085938 338.789062 126.425781 338.628906 C 126.507812 338.617188 126.601562 338.582031 126.667969 338.609375 C 127.839844 339.074219 128.976562 338.632812 130.128906 338.5 C 130.210938 338.488281 130.300781 338.472656 130.371094 338.5 C 133.132812 339.300781 135.890625 338.308594 138.652344 338.472656 C 140.84375 338.601562 143.050781 338.613281 145.25 338.722656 C 145.542969 338.738281 145.824219 339.042969 146.214844 339.277344 C 146.867188 338.410156 147.667969 338.472656 148.605469 339.230469 C 148.878906 339.453125 149.535156 339.453125 149.890625 339.292969 C 151.84375 338.386719 153.714844 339.011719 155.625 339.402344 C 155.992188 339.480469 156.414062 339.261719 156.808594 339.246094 C 157.199219 339.230469 157.601562 339.300781 158.003906 339.621094 C 158.21875 339.464844 158.429688 339.308594 158.777344 339.054688 C 158.816406 339.40625 158.835938 339.609375 158.859375 339.84375 C 159.976562 339.699219 161.117188 339.484375 162.269531 339.429688 C 162.84375 339.402344 163.613281 339.070312 163.992188 339.988281 C 164.046875 340.121094 164.804688 339.957031 165.230469 339.804688 C 166.574219 340.347656 167.917969 340.910156 169.414062 339.925781 C 170.097656 339.476562 170.507812 339.757812 170.699219 340.597656 C 170.796875 340.3125 170.894531 340.03125 171.046875 339.605469 C 171.125 339.953125 171.175781 340.15625 171.253906 340.5 C 171.613281 340.175781 171.890625 339.925781 172.296875 339.5625 C 172.453125 339.9375 172.578125 340.238281 172.703125 340.53125 L 175.996094 340.53125 C 175.871094 340.34375 175.773438 340.1875 175.570312 339.875 C 176.882812 339.980469 178.023438 340.066406 179.277344 340.171875 C 178.96875 340.394531 178.738281 340.5625 178.34375 340.847656 L 179.664062 340.847656 C 179.652344 340.597656 179.640625 340.351562 179.625 340.078125 C 179.796875 340.121094 179.933594 340.128906 179.933594 340.152344 C 179.988281 340.882812 180.222656 340.996094 181.0625 340.980469 C 184.25 340.910156 187.445312 341.054688 190.632812 341.140625 C 192.953125 341.203125 195.273438 341.339844 197.589844 341.359375 C 198.121094 341.359375 198.917969 341.683594 199.15625 340.746094 C 199.15625 340.738281 199.574219 340.777344 199.738281 340.882812 C 199.921875 340.996094 200.089844 341.382812 200.175781 341.355469 C 200.484375 341.257812 200.753906 341.035156 200.957031 340.910156 C 204.707031 341.5625 208.53125 341.398438 212.417969 341.40625 C 212.5625 341.214844 212.800781 340.898438 213.042969 340.578125 L 213.28125 340.722656 C 213.175781 340.957031 213.066406 341.1875 212.785156 341.769531 C 213.863281 341.507812 214.710938 341.292969 215.550781 341.089844 C 215.828125 341.023438 216.117188 340.960938 216.394531 340.898438 C 216.4375 341.121094 216.472656 341.34375 216.566406 341.871094 C 217.574219 340.269531 218.886719 340.800781 220.152344 341.070312 C 220.28125 341.097656 220.328125 341.417969 220.46875 341.496094 C 220.675781 341.609375 221.105469 341.738281 221.148438 341.671875 C 221.6875 340.808594 222.34375 341.152344 223.050781 341.371094 C 223.285156 341.445312 223.609375 341.234375 223.890625 341.152344 C 224.046875 341.105469 224.296875 340.964844 224.335938 341.019531 C 225.15625 341.953125 226.335938 340.867188 227.199219 341.527344 C 227.363281 341.652344 227.6875 341.808594 227.785156 341.734375 C 228.507812 341.21875 229.144531 341.34375 229.867188 341.765625 C 230.164062 341.9375 230.738281 342.726562 231.015625 341.667969 C 232.6875 341.765625 234.375 341.796875 236.039062 342.003906 C 236.601562 342.070312 237.0625 342.835938 237.636719 341.925781 C 237.757812 341.734375 238.546875 341.777344 238.898438 341.960938 C 240.261719 342.667969 241.695312 342.597656 243.148438 342.535156 C 243.578125 342.511719 244.011719 342.621094 244.5 342.679688 C 244.59375 343 244.800781 343.355469 244.769531 343.679688 C 244.738281 344 244.53125 344.417969 244.273438 344.5625 C 243.621094 344.929688 242.679688 344.980469 242.25 345.488281 C 241.460938 346.421875 240.492188 346.996094 239.109375 347.5 C 240.179688 347.789062 240.9375 347.996094 241.695312 348.203125 C 241.726562 348.355469 241.761719 348.5 241.792969 348.652344 C 241.179688 348.953125 240.53125 349.203125 239.96875 349.582031 C 239.515625 349.882812 239.171875 350.332031 238.597656 350.90625 C 239.46875 351.011719 240.039062 351.085938 240.648438 351.160156 C 239.558594 353.140625 227.078125 355.496094 225.914062 354.351562 C 224.382812 354.597656 223.109375 354.953125 221.828125 354.960938 C 220.078125 354.964844 218.335938 355.375 216.566406 354.867188 C 215.835938 354.652344 214.953125 354.992188 214.140625 355.027344 C 213.769531 355.042969 213.402344 354.933594 213.003906 354.875 C 212.765625 354.976562 212.390625 355.253906 212.027344 355.242188 C 211.09375 355.203125 210.164062 355.023438 209.230469 354.933594 C 209.011719 354.914062 208.773438 355 208.5625 355.085938 C 207.699219 355.421875 206.917969 355.488281 206.550781 354.816406 C 205.179688 354.96875 203.976562 355.167969 202.769531 355.226562 C 201.777344 355.269531 200.777344 355.148438 199.628906 355.089844 C 199.648438 354.949219 199.628906 355.121094 199.609375 355.234375 C 198.714844 355.308594 197.761719 355.480469 196.832031 355.40625 C 196.40625 355.375 196.019531 354.851562 195.75 354.652344 C 195.449219 354.953125 195.132812 355.488281 194.929688 355.453125 C 193.332031 355.140625 191.453125 356.269531 190.027344 354.550781 C 189.953125 354.824219 189.882812 355.117188 189.835938 355.277344 C 188.851562 355.179688 187.921875 355.105469 186.992188 354.984375 C 186.3125 354.902344 185.644531 354.679688 184.96875 354.667969 C 184.234375 354.660156 183.496094 354.851562 182.753906 354.886719 C 182.503906 354.898438 182.25 354.707031 181.992188 354.621094 C 181.78125 354.554688 181.375 354.449219 181.371094 354.460938 C 180.800781 356.226562 180.550781 354.691406 180.238281 354.351562 C 179.539062 354.488281 178.898438 354.613281 178.101562 354.761719 C 178.132812 354.835938 178.042969 354.636719 177.992188 354.523438 C 177.433594 354.636719 176.851562 354.683594 176.320312 354.882812 C 175.550781 355.167969 175.351562 354.738281 175.140625 354.148438 C 175.101562 354.050781 174.546875 353.992188 174.511719 354.0625 C 173.773438 355.535156 172.648438 354.738281 171.613281 354.621094 C 170.988281 354.554688 170.347656 354.707031 169.71875 354.664062 C 166.261719 354.433594 162.8125 354.171875 159.359375 353.9375 C 158.96875 353.910156 158.570312 354.03125 158.179688 354.003906 C 156.625 353.917969 155.074219 353.792969 153.519531 353.703125 C 151.953125 353.613281 150.371094 353.417969 148.8125 353.539062 C 147.722656 353.621094 147.976562 352.492188 147.230469 352.234375 C 147.148438 352.535156 147.074219 352.789062 146.980469 353.121094 C 146.632812 351.621094 145.871094 352.824219 145.367188 352.871094 C 144.273438 352.976562 143.351562 352.871094 142.261719 352.5 C 141.34375 352.1875 140.015625 351.335938 138.882812 352.484375 C 138.714844 352.65625 138.203125 352.609375 137.894531 352.515625 C 136.542969 352.113281 135.164062 352.367188 133.800781 352.257812 C 132.421875 352.152344 131.03125 352.0625 129.644531 352.089844 C 127.707031 352.121094 125.707031 352.570312 123.839844 352.246094 C 122.746094 352.050781 121.65625 352.871094 120.632812 352.078125 C 120.46875 351.953125 120.039062 352.1875 119.726562 352.230469 C 119.394531 352.269531 119.003906 352.394531 118.734375 352.273438 C 117.636719 351.78125 116.546875 352.078125 115.4375 352.15625 C 114.40625 352.222656 113.355469 352.078125 112.3125 352.058594 C 110.921875 352.03125 109.507812 351.871094 108.144531 352.066406 C 105.960938 352.382812 103.8125 352.367188 101.636719 352.109375 C 101.332031 352.074219 100.996094 352.484375 100.664062 352.503906 C 100.03125 352.539062 99.914062 352.144531 99.871094 351.53125 C 99.8125 350.742188 99.507812 349.964844 99.25 349.207031 C 99.195312 349.039062 98.882812 348.960938 98.6875 348.847656 C 98.589844 349.039062 98.472656 349.226562 98.394531 349.429688 C 98.210938 349.886719 98.042969 350.355469 97.863281 350.820312 C 98.28125 350.773438 98.742188 350.722656 99.160156 350.675781 C 99.289062 351.070312 99.558594 351.453125 99.480469 351.742188 C 99.371094 352.121094 99.011719 352.691406 98.726562 352.710938 C 96.621094 352.871094 94.4375 353.273438 92.421875 352.882812 C 90.851562 352.578125 89.296875 353.785156 87.859375 352.667969 C 86.570312 353.667969 85.042969 353.105469 83.648438 353.210938 C 80.945312 353.40625 78.214844 353.273438 75.5 353.328125 C 72.195312 353.402344 68.890625 353.582031 65.585938 353.613281 C 63.511719 353.636719 61.429688 353.433594 59.355469 353.390625 C 58.316406 353.371094 57.28125 353.515625 56.242188 353.523438 C 55.304688 353.523438 54.371094 353.398438 53.429688 353.390625 C 52.71875 353.390625 52.015625 353.496094 51.214844 353.558594 C 51.691406 352.332031 53.082031 351.765625 54.632812 351.988281 C 54.3125 350.921875 51.175781 350.363281 49.492188 351.152344 C 50.039062 351.824219 50.574219 352.484375 51.105469 353.136719 L 50.929688 353.578125 C 48.632812 353.613281 46.335938 353.722656 44.035156 353.671875 C 41.640625 353.613281 39.234375 353.492188 36.851562 353.21875 C 34.730469 352.980469 32.53125 353.195312 30.472656 352.523438 C 30.492188 352.367188 30.519531 352.214844 30.539062 352.050781 C 31.050781 352.125 31.570312 352.191406 32.132812 352.269531 C 32.058594 351.980469 31.996094 351.746094 31.9375 351.515625 C 32.832031 351.515625 33.730469 351.515625 34.816406 351.515625 C 34.507812 351.269531 34.242188 350.894531 33.925781 350.84375 C 33.183594 350.722656 32.371094 350.632812 31.960938 351.542969 Z M 104.351562 349.726562 C 104.386719 349.703125 104.417969 349.675781 104.460938 349.667969 C 104.496094 349.664062 104.570312 349.6875 104.570312 349.695312 C 104.507812 350.648438 105.058594 350.945312 105.660156 351.066406 C 105.679688 350.3125 105.714844 349.6875 105.707031 349.070312 C 105.707031 348.945312 105.539062 348.738281 105.417969 348.714844 C 105.257812 348.675781 105 348.722656 104.90625 348.835938 C 104.6875 349.113281 104.542969 349.449219 104.363281 349.75 C 103.851562 349.675781 103.339844 349.511719 102.847656 349.566406 C 102.703125 349.582031 102.5625 350.1875 102.535156 350.53125 C 102.523438 350.664062 102.964844 350.976562 102.996094 350.953125 C 103.46875 350.566406 103.90625 350.144531 104.351562 349.730469 Z M 101.746094 114.660156 C 101.816406 114.871094 101.875 115.078125 101.945312 115.292969 C 102.378906 115.109375 102.816406 114.921875 103.246094 114.742188 L 102.625 113.355469 C 102.515625 113.375 102.410156 113.398438 102.300781 113.417969 C 102.261719 113.765625 102.261719 114.128906 102.160156 114.460938 C 102.125 114.574219 101.859375 114.621094 101.699219 114.703125 C 101.1875 113.535156 99.703125 113.265625 98.929688 114.234375 C 98.78125 114.417969 98.8125 114.871094 98.929688 115.109375 C 99.007812 115.265625 99.621094 115.34375 99.625 115.328125 C 100.046875 114.164062 101.015625 114.792969 101.746094 114.664062 Z M 149.332031 350.863281 C 149.082031 350.433594 148.925781 349.867188 148.554688 349.597656 C 148.085938 349.253906 147.003906 348.890625 146.957031 348.976562 C 146.269531 350.183594 145.761719 349.304688 145.140625 348.8125 C 145.027344 349.347656 144.925781 349.808594 144.859375 350.125 C 144.511719 349.871094 144.175781 349.628906 143.839844 349.382812 C 143.738281 349.527344 143.636719 349.675781 143.539062 349.824219 C 144.382812 350.378906 145.234375 350.9375 146.078125 351.496094 C 146.132812 351.402344 146.183594 351.308594 146.230469 351.214844 C 146.179688 351.035156 146.125 350.859375 146.148438 350.929688 C 146.886719 350.96875 147.777344 350.753906 148.242188 351.097656 C 148.90625 351.585938 149.035156 351.300781 149.296875 350.835938 L 150.804688 350.835938 C 150.414062 350.160156 150.074219 349.570312 149.730469 348.984375 L 149.421875 349.175781 C 149.390625 349.742188 149.359375 350.300781 149.328125 350.863281 Z M 109.917969 350.863281 C 109.476562 348.675781 108.714844 348.304688 106.730469 349.320312 C 106.507812 349.433594 106.171875 349.75 106.207031 349.867188 C 106.3125 350.175781 106.566406 350.648438 106.804688 350.679688 C 107.84375 350.804688 108.902344 350.796875 109.949219 350.835938 C 110.894531 350.914062 111.832031 351.039062 112.777344 351.058594 C 114.425781 351.097656 116.074219 351.070312 117.730469 351.070312 C 117.917969 350.640625 118.21875 350.347656 118.542969 350.316406 C 118.921875 350.285156 119.316406 350.527344 119.710938 350.5625 C 119.816406 350.570312 119.945312 350.261719 120.0625 350.097656 C 120.316406 350.410156 120.574219 350.722656 120.835938 351.039062 C 121.058594 350.9375 121.324219 350.695312 121.582031 350.703125 C 123.125 350.71875 124.664062 350.816406 126.207031 350.832031 C 127.191406 350.84375 128.144531 350.742188 129.148438 351.039062 C 129.925781 351.269531 130.84375 351.058594 131.6875 350.964844 C 131.902344 350.945312 132.082031 350.625 132.113281 350.597656 C 132.644531 350.695312 133.039062 350.789062 133.4375 350.835938 C 134.484375 350.972656 135.546875 350.222656 136.585938 350.90625 C 136.710938 350.988281 136.929688 351.085938 137.011719 351.035156 C 138.085938 350.347656 139.070312 350.128906 139.765625 351.523438 C 139.90625 351.179688 140.027344 350.894531 140.144531 350.601562 C 140.761719 350.910156 141.378906 351.214844 142.296875 351.667969 C 141.929688 350.503906 141.644531 349.597656 141.359375 348.691406 C 141.25 348.675781 141.136719 348.660156 141.027344 348.644531 C 140.726562 349.292969 140.425781 349.945312 140.125 350.585938 C 139.964844 350.183594 139.828125 349.765625 139.640625 349.371094 C 139.207031 348.457031 138.722656 348.433594 138.070312 349.222656 C 137.917969 349.402344 137.550781 349.585938 137.359375 349.527344 C 136.695312 349.324219 136.078125 348.992188 135.417969 348.765625 C 135.207031 348.691406 134.9375 348.785156 134.691406 348.816406 C 134.058594 348.90625 133 349.257812 132.871094 349.039062 C 132.347656 348.179688 131.335938 348.652344 131.191406 348.746094 C 130.433594 349.242188 129.894531 348.609375 129.265625 348.589844 C 129.042969 348.582031 128.816406 348.425781 128.597656 348.4375 C 127.378906 348.480469 126.160156 348.519531 124.949219 348.621094 C 123.777344 348.714844 122.632812 348.246094 121.398438 348.929688 C 120.789062 349.269531 120.171875 349.304688 120.085938 350.125 C 119.992188 350.042969 119.867188 349.980469 119.808594 349.882812 C 119.199219 348.800781 118.492188 348.109375 117.207031 349.046875 C 117 349.195312 116.496094 349.238281 116.3125 349.09375 C 114.886719 347.964844 113.269531 349.066406 111.773438 348.671875 C 111.484375 348.59375 110.9375 349.175781 110.632812 349.542969 C 110.320312 349.921875 110.152344 350.421875 109.917969 350.867188 Z M 115.128906 113.640625 C 115 113.480469 114.796875 113.164062 114.757812 113.183594 C 113.175781 113.929688 111.253906 112.628906 109.757812 114.09375 C 110.191406 114.386719 110.652344 114.703125 111.15625 115.054688 C 111.292969 114.8125 111.425781 114.582031 111.40625 114.617188 L 115.027344 114.617188 C 115.085938 114.207031 115.125 113.898438 115.167969 113.597656 C 115.34375 114.03125 115.519531 114.457031 115.6875 114.867188 C 116.660156 114.730469 117.542969 114.613281 118.425781 114.492188 C 118.398438 114.449219 118.367188 114.410156 118.339844 114.367188 C 120.273438 114.539062 122.203125 114.703125 124.15625 114.875 C 124.648438 114.464844 125.15625 114.039062 125.402344 113.835938 C 125.921875 114.085938 126.230469 114.292969 126.574219 114.382812 C 126.925781 114.472656 127.316406 114.386719 127.675781 114.460938 C 128.167969 114.566406 128.644531 114.855469 129.125 114.859375 C 129.738281 114.867188 130.359375 114.539062 130.96875 114.582031 C 132.191406 114.660156 133.40625 114.917969 134.628906 115.027344 C 134.945312 115.054688 135.292969 114.804688 135.605469 114.691406 C 135.578125 114.324219 135.558594 114.03125 135.539062 113.75 C 134.882812 113.636719 134.199219 113.441406 133.515625 113.410156 C 130.90625 113.292969 128.300781 113.734375 125.683594 113.421875 C 124.277344 113.257812 122.84375 113.320312 121.421875 113.339844 C 120.59375 113.355469 119.769531 113.496094 118.945312 113.574219 C 118.511719 113.613281 118.082031 113.675781 117.652344 113.683594 C 116.8125 113.683594 115.976562 113.652344 115.136719 113.636719 Z M 210.746094 352.441406 C 211.097656 352.683594 211.425781 353.023438 211.816406 353.140625 C 212.054688 353.214844 212.640625 352.960938 212.640625 352.851562 C 212.644531 352.265625 212.421875 351.757812 211.714844 351.703125 C 211.519531 351.6875 211.320312 351.710938 211.128906 351.695312 C 210.535156 351.640625 210.035156 351.179688 209.300781 351.640625 C 208.988281 351.832031 208.132812 351.132812 207.507812 350.867188 C 207.414062 350.828125 207.167969 350.957031 207.109375 351.070312 C 206.898438 351.484375 206.730469 351.925781 206.464844 352.554688 C 206.144531 352.367188 205.71875 352.046875 205.238281 351.855469 C 204.691406 351.636719 204.105469 351.5 203.523438 351.394531 C 203.046875 351.304688 202.550781 351.304688 202.3125 351.285156 C 201.871094 351.429688 201.304688 351.640625 201.289062 351.609375 C 200.976562 350.90625 200.515625 351.207031 199.980469 351.257812 C 199.386719 351.316406 198.746094 350.914062 198.140625 350.945312 C 197.09375 351.007812 196.054688 351.253906 195.074219 351.40625 C 195.105469 351.492188 195.242188 351.84375 195.371094 352.199219 C 194.492188 351.382812 193.570312 350.972656 192.398438 351.042969 C 191.28125 351.113281 190.164062 351.097656 189.046875 351.058594 C 187.359375 351.007812 185.679688 350.878906 184 350.847656 C 183.617188 350.84375 182.898438 351.269531 182.882812 351.230469 C 182.367188 350.152344 181.492188 351.050781 180.835938 350.847656 C 180.492188 350.742188 180.105469 350.800781 179.75 350.726562 C 177.933594 350.34375 176.683594 351.148438 176.660156 352.535156 C 177.21875 352.816406 177.660156 353.210938 178.121094 353.230469 C 179.164062 353.273438 180.21875 353.121094 181.269531 353.070312 C 181.503906 353.058594 181.742188 353.171875 181.976562 353.183594 C 183.226562 353.230469 184.472656 353.28125 185.722656 353.296875 C 187.269531 353.320312 188.820312 353.296875 190.363281 353.304688 C 190.753906 353.304688 191.152344 353.367188 191.53125 353.304688 C 192.511719 353.140625 193.585938 352.582031 194.425781 352.824219 C 195.25 353.070312 195.976562 353.335938 196.859375 353.234375 C 197.441406 353.171875 198.046875 353.359375 198.644531 353.371094 C 199.332031 353.382812 200.023438 353.292969 200.714844 353.292969 C 203.648438 353.292969 206.585938 353.292969 209.523438 353.3125 C 210.335938 353.320312 210.839844 353.070312 210.75 352.441406 Z M 223.808594 350.863281 C 223.148438 350.863281 222.621094 352.191406 222.183594 350.796875 C 221.84375 350.980469 221.417969 351.332031 221.316406 351.257812 C 220.136719 350.339844 219.082031 351.402344 217.972656 351.433594 C 217.753906 351.4375 217.535156 351.65625 217.324219 351.777344 C 216.917969 351.007812 216.503906 351.546875 216.058594 351.734375 C 215.773438 351.855469 215.414062 351.925781 215.121094 351.863281 C 214.65625 351.765625 214.222656 351.378906 213.78125 351.394531 C 212.675781 351.433594 213.136719 352.300781 213.011719 352.914062 C 215.976562 353.359375 218.792969 353.3125 221.558594 352.609375 C 221.550781 352.488281 221.546875 352.367188 221.535156 352.25 C 221.875 352.488281 222.210938 352.726562 222.59375 353.003906 C 223 352.289062 223.386719 351.609375 223.808594 350.867188 Z M 183.507812 117.839844 C 183.507812 117.972656 183.507812 118.101562 183.507812 118.230469 L 203.964844 118.230469 L 203.964844 117.824219 C 197.144531 117.523438 190.324219 117.597656 183.507812 117.839844 Z M 199.28125 115.089844 C 198.507812 114.808594 197.765625 114.289062 197.0625 114.332031 C 194.453125 114.480469 191.867188 114.402344 189.273438 114.179688 C 188.96875 114.15625 188.625 114.582031 188.300781 114.796875 C 188.363281 114.898438 188.417969 114.992188 188.480469 115.089844 L 199.285156 115.089844 Z M 232.597656 351.261719 C 232.933594 352.074219 233.699219 352.296875 234.59375 351.710938 C 234.878906 351.523438 235.261719 351.402344 235.605469 351.390625 C 236.59375 351.351562 237.585938 351.378906 238.507812 351.378906 C 238.617188 350.789062 238.703125 350.339844 238.820312 349.683594 C 237.867188 349.914062 236.90625 349.929688 236.226562 350.371094 C 235.496094 350.847656 235.136719 350.945312 234.828125 350.121094 C 234.085938 350.5 233.390625 350.851562 232.589844 351.261719 Z M 221.40625 116.273438 C 222.257812 117.898438 223.507812 117.914062 224.710938 118.074219 C 225.375 118.164062 226.023438 118.3125 226.683594 118.4375 C 226.527344 117.945312 226.183594 117.503906 225.734375 117.25 C 225.515625 117.128906 225.105469 117.359375 224.777344 117.425781 C 224.816406 117.367188 224.855469 117.3125 224.890625 117.25 C 223.835938 116.953125 222.777344 116.65625 221.40625 116.273438 Z M 97.0625 351.257812 C 96.949219 350.488281 96.84375 349.804688 96.765625 349.292969 C 95.902344 349.292969 95.179688 349.277344 94.453125 349.304688 C 94.289062 349.308594 93.988281 349.445312 93.980469 349.539062 C 93.960938 349.8125 93.996094 350.308594 94.117188 350.34375 C 94.652344 350.5 95.222656 350.527344 95.886719 350.609375 L 95.886719 351.332031 C 96.296875 351.304688 96.648438 351.277344 97.058594 351.253906 Z M 130.222656 117.566406 C 128.808594 116.820312 122.363281 116.824219 121.746094 117.566406 Z M 18.363281 342.839844 C 17.402344 343.695312 16.476562 344.523438 15.628906 345.277344 C 16.523438 345.21875 17.519531 345.152344 18.628906 345.078125 C 18.53125 344.226562 18.4375 343.457031 18.363281 342.839844 Z M 96.003906 115.632812 C 96.683594 115.332031 97.230469 115.125 97.742188 114.855469 C 97.996094 114.71875 98.199219 114.480469 98.425781 114.289062 C 98.246094 114.082031 98.007812 113.675781 97.886719 113.707031 C 97.609375 113.78125 97.378906 114.066406 97.171875 114.234375 C 96.761719 114.019531 96.355469 113.8125 95.765625 113.503906 C 95.855469 114.277344 95.910156 114.808594 96.003906 115.632812 Z M 104.730469 114.929688 L 105.0625 114.871094 C 105.078125 114.679688 105.097656 114.480469 105.125 114.148438 C 106.046875 114.429688 106.886719 114.683594 107.8125 114.96875 C 107.769531 114.480469 107.722656 113.988281 107.695312 113.640625 C 107.011719 113.640625 106.390625 113.628906 105.765625 113.640625 C 105.347656 113.652344 104.925781 113.707031 104.5 113.738281 C 104.578125 114.132812 104.65625 114.527344 104.730469 114.921875 Z M 92.09375 114.523438 C 92.113281 114.648438 92.140625 114.773438 92.160156 114.890625 C 92.449219 114.996094 92.742188 115.136719 93.042969 115.199219 C 93.371094 115.269531 93.722656 115.34375 94.042969 115.296875 C 94.296875 115.261719 94.535156 115.054688 94.769531 114.90625 C 94.976562 114.777344 95.253906 114.664062 95.351562 114.464844 C 95.402344 114.363281 95.152344 113.941406 95.042969 113.941406 C 94.722656 113.941406 94.394531 114.070312 94.078125 114.175781 C 93.769531 114.273438 93.476562 114.457031 93.167969 114.507812 C 92.820312 114.566406 92.457031 114.523438 92.097656 114.523438 Z M 101.882812 349.652344 C 101.9375 349.582031 102.167969 349.300781 102.324219 349.109375 L 100.5625 349.109375 C 100.496094 349.507812 100.402344 350.042969 100.273438 350.800781 C 100.824219 350.773438 101.3125 350.800781 101.769531 350.6875 C 101.867188 350.660156 101.835938 350.128906 101.886719 349.648438 Z M 49.125 352.425781 C 48.710938 350.851562 47.539062 350.632812 46.171875 351.625 C 47.164062 351.894531 48.003906 352.121094 49.125 352.425781 Z M 92.558594 349.039062 C 92.429688 349.039062 92.304688 349.035156 92.175781 349.03125 C 91.980469 349.511719 91.789062 350 91.65625 350.3125 C 92.351562 350.671875 92.851562 350.929688 93.355469 351.183594 C 93.429688 351.144531 93.515625 351.105469 93.59375 351.066406 C 93.25 350.390625 92.90625 349.710938 92.558594 349.035156 Z M 87.257812 349.570312 C 87.195312 349.679688 87.132812 349.789062 87.070312 349.890625 C 87.648438 350.285156 88.222656 350.679688 88.800781 351.074219 C 88.945312 350.78125 89.292969 350.394531 89.203125 350.203125 C 88.792969 349.285156 87.886719 349.914062 87.257812 349.570312 Z M 174.671875 352.714844 C 175.160156 352.835938 175.667969 352.964844 176.28125 353.117188 C 176.128906 352.253906 176.027344 351.65625 175.875 350.773438 C 175.398438 351.546875 175.097656 352.035156 174.671875 352.714844 Z M 174.671875 352.714844 " fill-opacity="1" fill-rule="nonzero"/></g><g clip-path="url(#3e078fd857)"><path fill="#000000" d="M 244.976562 121.429688 C 244.523438 121.601562 244.164062 121.742188 243.804688 121.875 C 243.859375 122.027344 243.910156 122.175781 243.96875 122.328125 C 244.292969 122.265625 244.625 122.199219 245.253906 122.074219 C 244.953125 122.507812 244.777344 122.773438 244.574219 123.066406 C 245.472656 123.304688 245.730469 124.011719 245.90625 125 C 246.183594 126.527344 246.871094 127.972656 247.214844 129.492188 C 247.480469 130.691406 247.449219 131.953125 247.613281 133.179688 C 247.742188 134.140625 248.011719 135.085938 248.164062 136.046875 C 248.644531 139.21875 249.148438 142.386719 249.558594 145.570312 C 249.949219 148.597656 250.191406 151.644531 250.566406 154.671875 C 251.171875 159.617188 251.925781 164.542969 252.433594 169.496094 C 252.765625 172.753906 252.726562 176.042969 252.945312 179.316406 C 253.144531 182.363281 253.484375 185.40625 253.707031 188.449219 C 253.910156 191.191406 254.070312 193.9375 254.203125 196.691406 C 254.402344 200.882812 254.558594 205.070312 254.75 209.261719 C 254.855469 211.578125 255.058594 213.894531 255.105469 216.210938 C 255.175781 220.03125 255.171875 223.851562 255.171875 227.679688 C 255.171875 228.882812 254.742188 230.207031 255.113281 231.261719 C 255.839844 233.296875 254.558594 235.363281 255.167969 237.046875 C 255.746094 238.660156 255.34375 240.058594 255.40625 241.519531 C 255.550781 244.746094 255.382812 247.992188 255.378906 251.234375 C 255.378906 253.222656 255.460938 255.207031 255.445312 257.195312 C 255.429688 258.875 255.328125 260.558594 255.269531 262.246094 C 255.203125 264.117188 255.121094 265.992188 255.082031 267.859375 C 255.035156 270.371094 255.019531 272.886719 255.003906 275.398438 C 254.996094 277.128906 255.027344 278.851562 255 280.582031 C 254.964844 282.945312 254.867188 285.308594 254.851562 287.667969 C 254.851562 288.355469 255.238281 289.085938 255.105469 289.71875 C 254.835938 291.007812 255.125 292.234375 255.191406 293.492188 C 255.21875 293.945312 255.015625 294.410156 255.011719 294.871094 C 254.949219 298.5 254.835938 302.136719 254.882812 305.765625 C 254.9375 310.058594 255.175781 314.347656 255.253906 318.644531 C 255.300781 321.109375 255.167969 323.582031 255.144531 326.054688 C 255.144531 326.703125 255.316406 327.351562 255.34375 328.003906 C 255.421875 329.921875 255.5 331.835938 255.519531 333.753906 C 255.546875 336.535156 255.460938 339.324219 255.539062 342.101562 C 255.59375 344.078125 255.894531 346.039062 255.953125 348.011719 C 256 349.351562 255.804688 350.703125 255.777344 352.050781 C 255.773438 352.382812 256 352.722656 256.136719 353.050781 C 256.300781 353.453125 256.484375 353.855469 256.664062 354.257812 C 256.425781 354.351562 256.390625 354.367188 256.355469 354.378906 L 256.195312 353.9375 C 256.121094 353.941406 256.054688 353.953125 255.980469 353.957031 C 256.042969 354.382812 255.996094 354.871094 256.199219 355.214844 C 256.609375 355.921875 256.988281 358.953125 256.40625 359.34375 C 255.140625 360.1875 255.507812 361.097656 255.910156 362.160156 C 255.992188 362.390625 255.628906 362.753906 255.578125 363.074219 C 255.5 363.558594 255.566406 364.066406 255.484375 364.550781 C 255.367188 365.179688 255.246094 366.285156 254.988281 366.328125 C 254.035156 366.476562 254.210938 365.539062 254.070312 364.929688 C 253.855469 363.980469 253.621094 363.035156 253.363281 361.96875 C 253.054688 362.058594 252.699219 362.167969 252.351562 362.265625 C 252.359375 362.101562 252.375 361.929688 252.40625 361.441406 C 252.070312 361.980469 251.898438 362.253906 251.738281 362.511719 C 251.613281 362.308594 251.492188 361.996094 251.417969 362.007812 C 250.824219 362.078125 250.378906 363.007812 249.640625 362.300781 C 249.578125 362.449219 249.515625 362.59375 249.367188 362.953125 C 248.953125 361.445312 247.40625 360.660156 247.742188 358.910156 C 247.855469 358.335938 247.070312 357.46875 247.078125 357.074219 C 247.105469 355.832031 245.617188 355.226562 246.1875 353.65625 C 246.664062 352.332031 246.089844 350.613281 245.925781 349.078125 C 245.765625 347.550781 245.570312 346.027344 245.335938 344.511719 C 245.207031 343.660156 244.976562 342.820312 244.800781 342.007812 C 244.628906 341.972656 244.800781 342.007812 245.035156 342.0625 C 245.035156 341.339844 245.046875 340.597656 245.03125 339.855469 C 245.03125 339.671875 244.925781 339.335938 244.878906 339.339844 C 243.402344 339.414062 244.058594 338.484375 244.175781 337.835938 C 244.261719 337.316406 244.542969 336.867188 243.734375 336.515625 C 243.433594 336.386719 243.472656 335.398438 243.421875 334.800781 C 243.390625 334.429688 243.46875 334.050781 243.5 333.671875 C 243.386719 333.648438 243.273438 333.628906 243.15625 333.601562 C 243.363281 333.363281 243.574219 333.125 243.785156 332.886719 C 243.117188 332.464844 242.972656 331.5625 243.386719 330.921875 C 243.527344 330.707031 243.628906 330.207031 243.527344 330.125 C 242.53125 329.328125 243.101562 328.65625 243.710938 327.902344 C 242.679688 327.300781 242.582031 326.695312 243.828125 326.160156 C 242.644531 325.015625 242.863281 323.574219 242.835938 322.164062 C 242.804688 320.347656 242.644531 318.535156 242.582031 316.722656 C 242.546875 315.585938 242.582031 314.449219 242.582031 313.308594 C 242.582031 312.867188 242.535156 312.421875 242.554688 311.980469 C 242.566406 311.769531 242.667969 311.558594 242.746094 311.351562 C 242.824219 311.140625 243.027344 310.765625 243 310.75 C 241.664062 309.925781 242.808594 309.203125 243.152344 308.355469 C 242.804688 308.246094 242.488281 308.148438 242.3125 308.089844 C 242.3125 306.898438 242.300781 305.800781 242.324219 304.707031 C 242.324219 304.488281 242.425781 304.257812 242.535156 304.058594 C 242.742188 303.671875 242.980469 303.308594 243.210938 302.941406 C 243.117188 302.875 243.027344 302.804688 242.933594 302.738281 C 242.789062 302.835938 242.648438 302.929688 242.347656 303.132812 C 242.347656 302.027344 242.375 300.976562 242.34375 299.933594 C 242.308594 298.71875 242.066406 297.484375 242.199219 296.289062 C 242.40625 294.371094 241.574219 292.347656 242.773438 290.519531 C 242.855469 290.394531 242.519531 289.996094 242.351562 289.683594 C 243.261719 289.445312 243.058594 288.675781 242.976562 287.804688 C 242.882812 286.855469 243.089844 285.878906 243.109375 284.914062 C 243.121094 284.554688 242.910156 284.195312 242.910156 283.835938 C 242.929688 282.113281 243.007812 280.390625 243.027344 278.664062 C 243.042969 277.257812 242.988281 275.855469 242.996094 274.449219 C 242.996094 273.65625 243.085938 272.859375 243.117188 272.066406 C 243.199219 269.683594 243.316406 267.300781 243.328125 264.914062 C 243.328125 263.460938 243.121094 262.011719 243.0625 260.558594 C 243.015625 259.292969 243.027344 258.023438 243.054688 256.757812 C 243.101562 254.140625 243.210938 251.519531 243.210938 248.902344 C 243.210938 247.664062 243.371094 246.445312 242.910156 245.171875 C 242.632812 244.414062 243.164062 243.367188 243.332031 242.453125 C 243.355469 242.332031 243.417969 242.214844 243.410156 242.09375 C 243.394531 240.242188 243.390625 238.382812 243.347656 236.527344 C 243.316406 235.011719 243.136719 233.488281 243.214844 231.980469 C 243.3125 230.078125 243.671875 228.195312 243.796875 226.292969 C 243.898438 224.742188 243.8125 223.171875 243.835938 221.613281 C 243.859375 220.410156 244.105469 219.167969 243.898438 218.007812 C 243.765625 217.238281 243.78125 216.503906 243.742188 215.757812 C 243.703125 214.953125 243.675781 214.152344 243.648438 213.347656 C 243.566406 210.757812 243.214844 208.136719 243.484375 205.574219 C 243.78125 202.800781 243.214844 200.105469 243.308594 197.375 C 243.375 195.355469 243.566406 193.335938 243.582031 191.316406 C 243.59375 189.996094 243.15625 188.640625 243.332031 187.359375 C 243.695312 184.742188 243.34375 182.152344 243.359375 179.550781 C 243.378906 175.914062 243.21875 172.28125 243.164062 168.640625 C 243.121094 165.769531 243.132812 162.898438 243.089844 160.027344 C 243.027344 155.761719 242.945312 151.503906 242.871094 147.242188 C 242.789062 142.578125 242.742188 137.910156 242.613281 133.246094 C 242.5625 131.328125 242.3125 129.410156 242.175781 127.488281 C 242.066406 125.945312 241.90625 124.398438 241.9375 122.855469 C 241.949219 122.269531 242.332031 121.59375 242.746094 121.148438 C 243.210938 120.65625 243.898438 120.375 244.644531 119.90625 C 244.824219 120.722656 244.929688 121.214844 244.976562 121.429688 Z M 244.921875 123.464844 C 244.195312 124.820312 244.714844 127.199219 245.851562 127.742188 C 245.539062 126.308594 245.242188 124.941406 244.921875 123.464844 Z M 244.921875 123.464844 " fill-opacity="1" fill-rule="nonzero"/></g><path fill="#000000" d="M 32.199219 117.1875 C 29.257812 117.800781 26.234375 117.660156 23.253906 117.960938 C 23.246094 117.839844 23.230469 117.722656 23.21875 117.601562 C 26.1875 117.34375 29.148438 117.089844 32.117188 116.828125 C 32.140625 116.949219 32.171875 117.066406 32.199219 117.1875 Z M 32.199219 117.1875 " fill-opacity="1" fill-rule="nonzero"/><path fill="#000000" d="M 17.054688 351.257812 C 17.726562 351.257812 18.15625 351.230469 18.582031 351.273438 C 18.738281 351.289062 18.929688 351.421875 19.007812 351.558594 C 19.0625 351.664062 18.976562 351.984375 18.933594 351.988281 C 18.40625 352.027344 17.867188 352.078125 17.347656 352 C 17.21875 351.980469 17.15625 351.523438 17.0625 351.261719 Z M 17.054688 351.257812 " fill-opacity="1" fill-rule="nonzero"/><path fill="#000000" d="M 19.640625 350.957031 C 20.390625 351.363281 20.925781 351.648438 21.699219 352.0625 C 20.914062 352.15625 20.371094 352.222656 19.703125 352.300781 C 19.6875 351.917969 19.664062 351.546875 19.640625 350.957031 Z M 19.640625 350.957031 " fill-opacity="1" fill-rule="nonzero"/><g clip-path="url(#ac0a426e1c)"><path fill="#000000" d="M 172.625 311.449219 C 173.035156 311.574219 173.441406 311.699219 173.847656 311.820312 C 174.40625 310.15625 174.960938 308.484375 175.519531 306.820312 C 175.054688 306.683594 174.585938 306.550781 174.121094 306.417969 C 173.621094 308.09375 173.125 309.773438 172.625 311.449219 Z M 282.046875 81.050781 C 282.589844 81.53125 283.132812 82.015625 283.679688 82.496094 C 284.496094 81.371094 285.3125 80.246094 286.125 79.125 C 285.921875 78.992188 285.722656 78.863281 285.519531 78.734375 C 284.363281 79.503906 283.207031 80.277344 282.046875 81.050781 Z M 341.652344 40.105469 C 342.027344 40.4375 342.398438 40.773438 342.773438 41.105469 C 343.78125 40.003906 344.789062 38.90625 345.796875 37.804688 C 345.566406 37.578125 345.339844 37.351562 345.109375 37.125 C 343.957031 38.121094 342.800781 39.113281 341.652344 40.105469 Z M 167.882812 326.292969 C 170.730469 323.785156 172.304688 320.90625 171.890625 317.445312 C 171.386719 317.296875 170.882812 317.148438 170.378906 316.996094 C 169.542969 320.097656 168.714844 323.199219 167.882812 326.292969 Z M 333.34375 40.046875 C 338.453125 35.929688 342.914062 32.929688 345.21875 26.320312 C 339.773438 30.15625 335.160156 33.023438 333.34375 40.046875 Z M 301.199219 60.050781 C 292.058594 66.640625 290.726562 68.472656 290.175781 74.109375 C 294.121094 69.078125 297.660156 64.566406 301.199219 60.050781 Z M 134.382812 209.726562 C 134.859375 216.578125 138.671875 222.4375 145.390625 226.945312 C 141.222656 220.425781 137.800781 215.074219 134.382812 209.726562 Z M 138.570312 238.535156 C 139.050781 238.148438 139.539062 237.761719 140.019531 237.371094 C 136.234375 232.183594 132.453125 227 128.664062 221.8125 C 128.757812 229.679688 134.617188 233.433594 138.570312 238.535156 Z M 166.660156 255.886719 C 167.121094 255.46875 167.578125 255.054688 168.039062 254.644531 C 163.609375 248.027344 160.878906 240.285156 155.121094 234.550781 C 154.636719 234.867188 154.148438 235.183594 153.660156 235.5 C 157.992188 242.292969 162.328125 249.089844 166.660156 255.886719 Z M 121.75 239.421875 C 122.398438 239.039062 123.050781 238.664062 123.699219 238.28125 C 118.960938 230.972656 114.222656 223.664062 109.488281 216.355469 C 108.921875 216.714844 108.359375 217.078125 107.796875 217.4375 C 112.449219 224.765625 117.097656 232.09375 121.75 239.421875 Z M 326.628906 60.546875 C 327.039062 60.890625 327.453125 61.234375 327.863281 61.578125 C 334.613281 55.402344 341.359375 49.222656 348.105469 43.042969 C 339.761719 47.601562 332.761719 53.605469 326.628906 60.546875 Z M 122.980469 198.28125 C 124.394531 196.101562 125.890625 194.808594 125.671875 193.980469 C 123.648438 186.539062 119.792969 180.316406 111.882812 175.292969 C 114.273438 184.109375 119.109375 190.109375 122.980469 198.28125 Z M 316.5 44.804688 C 317.050781 45.257812 317.601562 45.707031 318.152344 46.160156 C 321.65625 42.109375 324.972656 37.878906 328.722656 34.070312 C 332.300781 30.445312 336.492188 27.429688 340.121094 23.851562 C 343.613281 20.40625 349.058594 19.097656 351.292969 14.3125 C 338.765625 20.503906 318.714844 38.5 316.5 44.804688 Z M 91.78125 199.4375 C 94.191406 209.210938 104.132812 223.636719 110.570312 227.441406 C 107.921875 222.4375 104.589844 217.800781 102.964844 212.628906 C 101.132812 206.789062 97.160156 203.5 91.78125 199.4375 Z M 191.433594 256.253906 C 192 256.472656 192.566406 256.6875 193.132812 256.90625 C 200.253906 239.921875 207.371094 222.9375 214.492188 205.953125 C 203.914062 221.484375 196.980469 238.570312 191.433594 256.253906 Z M 326.558594 42.417969 C 324.292969 43.464844 323.542969 43.589844 323.152344 44.03125 C 316.644531 51.214844 309.796875 58.125 303.796875 65.707031 C 289.644531 83.597656 275.863281 101.773438 262.035156 119.917969 C 260.214844 122.304688 259 125.152344 257.503906 127.792969 C 258.839844 127.964844 259.3125 127.730469 259.589844 127.355469 C 277.472656 103.117188 295.792969 79.253906 316.304688 57.128906 C 319.949219 53.199219 322.53125 48.269531 326.558594 42.417969 Z M 227.902344 193.746094 C 245.53125 165.714844 263.160156 137.679688 280.785156 109.648438 C 258.039062 134.511719 241.960938 163.5625 227.902344 193.746094 Z M 226.589844 184.542969 C 223.644531 186.15625 222.921875 188.808594 223.9375 192.15625 C 224.75 189.546875 225.5625 186.9375 226.378906 184.332031 C 229.769531 182.625 230.558594 179.398438 231.179688 176.074219 C 232.578125 174.175781 233.976562 172.28125 235.375 170.382812 C 234.859375 170.078125 234.347656 169.773438 233.832031 169.46875 C 232.835938 171.570312 231.839844 173.675781 230.84375 175.777344 C 229.421875 178.695312 228 181.613281 226.589844 184.542969 Z M 272.394531 140.550781 C 269.167969 146.210938 265.886719 151.839844 262.722656 157.535156 C 249.90625 180.636719 236.703125 203.539062 224.511719 226.964844 C 218.160156 239.167969 213.6875 252.339844 208.222656 265.011719 C 206.589844 268.78125 204.964844 272.738281 202.457031 275.917969 C 196.324219 283.6875 192.898438 292.605469 190.050781 301.871094 C 189.703125 302.996094 188.941406 303.992188 188.378906 305.035156 C 189.261719 300.324219 190.148438 295.621094 191.027344 290.917969 C 188.882812 292.789062 187.855469 295.1875 186.382812 297.269531 C 183.863281 300.835938 185.539062 302.988281 188.5 304.902344 C 188.5 307.480469 188.5 310.058594 188.5 313.460938 C 185.878906 312.234375 183.984375 311.351562 181.816406 310.332031 C 177.855469 311.414062 176.089844 314.734375 174.800781 318.523438 C 173.390625 322.671875 172.015625 326.828125 170.4375 330.90625 C 169.484375 333.367188 167.960938 335.207031 164.132812 332.945312 C 165.378906 327.609375 166.949219 322.078125 167.914062 316.449219 C 168.820312 311.132812 173.53125 305.988281 168.96875 299.277344 C 166.121094 304.5625 163.675781 309.097656 161.234375 313.628906 C 160.6875 313.382812 160.140625 313.136719 159.597656 312.890625 C 160.347656 306.882812 165.082031 302.121094 165.875 295.320312 C 163.8125 296.113281 162.058594 296.789062 159.042969 297.945312 C 162.515625 291.757812 159.664062 288.324219 156.203125 284.550781 C 141.585938 268.59375 127.160156 252.457031 112.8125 236.257812 C 103.441406 225.671875 94.96875 214.410156 88.074219 201.996094 C 86.53125 199.226562 85.289062 196.851562 89.035156 193.691406 C 93.652344 197.734375 98.285156 201.796875 102.917969 205.859375 C 103.277344 205.671875 103.632812 205.488281 103.988281 205.304688 C 102.160156 200.734375 100.371094 196.152344 98.488281 191.609375 C 97.746094 189.824219 96.667969 188.164062 95.984375 186.359375 C 95.582031 185.292969 95.105469 183.476562 95.613281 182.988281 C 96.824219 181.835938 98.851562 181.535156 100.082031 180.386719 C 101.242188 179.300781 98.691406 177 101.664062 175.632812 C 104.203125 174.46875 106.019531 171.722656 109.042969 168.828125 C 110.09375 169.570312 112.125 170.652344 113.710938 172.1875 C 123.53125 181.738281 131.53125 192.773438 139.097656 204.117188 C 145.039062 213.019531 150.347656 222.378906 156.675781 230.988281 C 163.097656 239.726562 170.433594 247.796875 177.894531 256.792969 C 182.21875 247.441406 186.171875 238.882812 190.132812 230.328125 C 192.582031 225.035156 195.054688 219.757812 197.472656 214.453125 C 198.074219 213.132812 199.34375 211.144531 198.871094 210.460938 C 195.75 205.941406 198.816406 202.535156 200.71875 199.140625 C 210.9375 180.898438 221.296875 162.742188 231.667969 144.585938 C 235.882812 137.207031 240.023438 129.773438 244.566406 122.59375 C 261.125 96.445312 277.675781 70.296875 294.585938 44.382812 C 299.898438 36.253906 306.042969 28.609375 312.371094 21.230469 C 316.277344 16.675781 321.128906 12.886719 325.820312 9.089844 C 327.097656 8.054688 329.339844 7.933594 331.148438 7.910156 C 333.148438 7.878906 335.160156 8.445312 337.625 8.820312 C 336.71875 12.773438 332.449219 12.652344 330.285156 14.875 C 327.9375 17.285156 325.621094 19.726562 323.351562 22.097656 C 325.855469 25.597656 325.855469 25.597656 323.507812 30.972656 C 325.355469 29.96875 326.515625 29.511719 327.472656 28.792969 C 334.671875 23.394531 341.734375 17.816406 349.042969 12.582031 C 351.511719 10.808594 354.433594 9.140625 357.921875 10.785156 C 358.859375 14.453125 355.132812 15.625 354.109375 18.210938 C 356.242188 24.96875 353.050781 29.988281 348.519531 34.90625 C 356.238281 29.925781 363.183594 22.566406 374.589844 28.574219 C 372.070312 30.714844 370.234375 32.488281 368.191406 33.980469 C 348.019531 48.703125 329.777344 65.625 313.949219 84.828125 C 301.132812 100.378906 289.875 117.214844 277.890625 133.457031 C 276.054688 135.949219 274.078125 138.335938 272.152344 140.773438 C 272.5625 138.839844 272.972656 136.898438 273.386719 134.953125 C 275.304688 132.515625 277.226562 130.074219 279.140625 127.632812 C 278.640625 127.316406 278.136719 127.003906 277.632812 126.6875 C 276.265625 129.484375 274.898438 132.28125 273.53125 135.078125 C 267.28125 140.214844 264.375 147.523438 260.78125 154.398438 C 263.375 151.953125 265.140625 148.9375 267.21875 146.15625 C 268.730469 144.128906 270.652344 142.410156 272.394531 140.550781 " fill-opacity="1" fill-rule="nonzero"/></g></svg>