<svg xmlns="http://www.w3.org/2000/svg" xmlns:xlink="http://www.w3.org/1999/xlink" width="500" zoomAndPan="magnify" viewBox="0 0 375 374.999991" height="500" preserveAspectRatio="xMidYMid meet" version="1.0"><defs><clipPath id="3d9592f59f"><path d="M 68.703125 51 L 105 51 L 105 92 L 68.703125 92 Z M 68.703125 51 " clip-rule="nonzero"/></clipPath></defs><path fill="#000000" d="M 206.882812 231.554688 C 161.773438 251.042969 163.792969 280.148438 163.609375 341.175781 C 163.609375 341.910156 163.792969 342.648438 163.609375 343.320312 C 163.425781 343.933594 162.875 344.425781 162.140625 345.40625 L 156.8125 345.710938 C 154.488281 341.972656 154.609375 337.253906 150.632812 334.804688 L 150.632812 291.972656 C 146.835938 277.941406 142.125 237.5 110.050781 235.476562 C 100.074219 235.90625 104.113281 224.753906 109.5 224.816406 L 127.3125 224.816406 C 132.207031 219.609375 137.164062 214.460938 142.0625 209.253906 C 147.203125 189.09375 138.757812 115.378906 153.449219 117.402344 C 154.183594 118.445312 154.917969 118.996094 154.917969 119.546875 C 154.976562 136.765625 154.917969 179.964844 154.917969 196.875 C 159.140625 215.5625 180.378906 223.652344 184.542969 224.878906 C 197.089844 225.734375 202.660156 222.917969 207.863281 222.917969 C 209.941406 227.082031 209.820312 229.902344 206.882812 231.433594 Z M 163.609375 248.714844 C 160.792969 243.382812 168.996094 242.21875 167.648438 236.457031 C 165.8125 231.003906 158.773438 228.738281 155.285156 221.8125 C 155.039062 219.914062 154.671875 216.484375 154.304688 213.601562 C 152.898438 211.886719 151.183594 212.070312 151 213.910156 C 150.449219 219.546875 147.265625 224.140625 144.511719 228.429688 C 141.328125 233.332031 140.960938 237.070312 143.714844 241.851562 C 146.960938 247.609375 149.773438 253.554688 152.835938 259.4375 C 156.445312 255.820312 160.058594 252.207031 163.609375 248.652344 Z M 163.609375 248.714844 " fill-opacity="1" fill-rule="nonzero"/><path fill="#000000" d="M 276.050781 370.035156 C 274.578125 371.691406 270.664062 375.0625 269.011719 365.378906 C 269.683594 339.214844 261.726562 322.550781 245.320312 312.4375 C 244.710938 312.011719 244.710938 310.785156 244.402344 309.925781 C 249.605469 302.574219 266.316406 309.925781 272.621094 283.273438 C 274.824219 279.902344 276.476562 268.320312 276.417969 265.992188 C 276.292969 257.78125 276.417969 249.570312 276.355469 241.359375 C 276.355469 239.949219 284.558594 231.433594 285.046875 250.367188 C 284.558594 275.613281 293.800781 302.082031 293.984375 303.003906 C 294.042969 303.371094 294.59375 303.675781 295.453125 304.535156 L 307.265625 304.535156 C 308.855469 307.230469 309.957031 311.886719 303.960938 315.929688 C 276.050781 317.402344 276.050781 354.042969 275.988281 369.976562 Z M 271.824219 324.511719 C 274.210938 322.121094 273.96875 322.550781 276.476562 320.28125 C 278.496094 318.503906 279.964844 316.359375 283.273438 315.625 C 286.085938 315.011719 288.167969 311.335938 290.617188 309.007812 C 285.535156 303.492188 283.578125 299.9375 280.882812 290.011719 C 277.457031 294.117188 277.089844 299.9375 272.742188 303.613281 C 268.765625 307.046875 267.785156 308.089844 264.175781 311.703125 C 266.070312 316.605469 267.171875 321.570312 271.824219 324.449219 Z M 271.824219 324.511719 " fill-opacity="1" fill-rule="nonzero"/><path fill="#000000" d="M 298.144531 58.761719 C 300.042969 58.761719 314.734375 61.886719 318.589844 61.886719 C 320.546875 61.886719 318.222656 61.519531 319.691406 62.988281 L 319.691406 67.890625 L 315.957031 73.285156 C 312.164062 73.285156 309.714844 73.285156 307.265625 73.285156 C 284.496094 73.285156 290.679688 110.355469 290.679688 121.015625 C 290.679688 121.996094 290.738281 122.976562 290.679688 123.898438 C 290.679688 124.265625 290.128906 124.632812 289.578125 125.367188 C 288.046875 125.367188 288.167969 128.429688 285.71875 127.941406 L 281.804688 123.773438 C 281.804688 114.949219 279.046875 85.234375 279.046875 80.453125 C 276.292969 73.53125 275.867188 71.9375 270.296875 70.160156 C 269.316406 70.160156 255.542969 69.730469 255.542969 65.929688 C 255.542969 58.824219 265.519531 64.277344 274.703125 61.703125 C 278.679688 58.824219 277.273438 58.945312 279.171875 56.863281 L 279.171875 1.65625 C 281.496094 0.0625 283.148438 0.246094 285.167969 2.328125 C 288.964844 50.183594 288.964844 52.328125 298.085938 58.699219 Z M 293.1875 70.589844 C 296.554688 70.21875 298.144531 70.832031 299.308594 68.8125 C 295.820312 65.320312 292.269531 61.765625 289.332031 58.824219 C 284.375 58.332031 285.535156 61.640625 284.433594 63.359375 C 283.148438 65.320312 281.128906 66.851562 278.742188 69.238281 C 281.007812 70.832031 283.273438 72.425781 284.496094 73.285156 C 285.230469 76.042969 284.066406 77.757812 286.148438 78.613281 C 288.78125 75.675781 291.472656 72.550781 293.1875 70.589844 Z M 293.1875 70.589844 " fill-opacity="1" fill-rule="nonzero"/><g clip-path="url(#3d9592f59f)"><path fill="#000000" d="M 82.8125 57.230469 C 82.933594 55.023438 82.691406 52.574219 86.421875 51.65625 C 91.503906 55.574219 88.261719 63.234375 92.117188 67.035156 C 95.113281 71.996094 102.152344 71.015625 104.113281 76.347656 C 100.316406 81.25 93.585938 78.675781 90.402344 83.332031 C 90.523438 85.292969 89.667969 88.785156 88.445312 91.300781 C 83.792969 89.15625 82.628906 84.253906 80.058594 80.515625 C 77.242188 76.410156 70.324219 77.207031 68.980469 71.507812 C 72.039062 66.851562 78.039062 67.707031 80.609375 63.601562 C 82.445312 61.765625 82.691406 59.496094 82.8125 57.109375 Z M 83.484375 69.730469 C 83.769531 73.039062 85.730469 75.53125 89.363281 77.207031 C 89.484375 71.875 86.667969 71.078125 83.484375 69.730469 Z M 83.484375 69.730469 " fill-opacity="1" fill-rule="nonzero"/></g><path fill="#000000" d="M 201.984375 151.714844 C 201.3125 146.386719 206.453125 144.914062 208.78125 141.605469 C 211.289062 138.113281 209.515625 133.027344 213.125 129.839844 C 215.328125 132.617188 216.921875 136.273438 217.902344 140.808594 C 219.675781 144.238281 225.0625 140.992188 226.652344 146.199219 C 211.535156 153.429688 221.816406 164.398438 216.0625 164.398438 C 207.921875 155.390625 213.1875 149.753906 201.984375 151.714844 Z M 213.1875 149.695312 C 214.351562 149.511719 214.65625 148.835938 214.042969 147.855469 C 213.859375 147.550781 213.25 147.058594 213.125 147.121094 C 212.515625 147.488281 212.023438 147.976562 211.535156 148.46875 C 212.085938 148.898438 212.636719 149.265625 213.1875 149.695312 Z M 213.1875 149.695312 " fill-opacity="1" fill-rule="nonzero"/></svg>