<svg xmlns="http://www.w3.org/2000/svg" xmlns:xlink="http://www.w3.org/1999/xlink" width="500" zoomAndPan="magnify" viewBox="0 0 375 374.999991" height="500" preserveAspectRatio="xMidYMid meet" version="1.0"><defs><clipPath id="4f3b99cf74"><path d="M 199.292969 29.019531 L 348 29.019531 L 348 169.269531 L 199.292969 169.269531 Z M 199.292969 29.019531 " clip-rule="nonzero"/></clipPath><clipPath id="2345ad5730"><path d="M 122 257 L 302 257 L 302 341 L 122 341 Z M 122 257 " clip-rule="nonzero"/></clipPath><clipPath id="ca4dbc6bbf"><path d="M 318.632812 268.9375 L 240.292969 396.855469 L 120.6875 323.609375 L 199.027344 195.691406 Z M 318.632812 268.9375 " clip-rule="nonzero"/></clipPath><clipPath id="ea57a1b09d"><path d="M 318.632812 268.9375 L 240.292969 396.855469 L 120.6875 323.609375 L 199.027344 195.691406 Z M 318.632812 268.9375 " clip-rule="nonzero"/></clipPath><clipPath id="ab81f812bb"><path d="M 318.632812 268.9375 L 240.292969 396.855469 L 120.6875 323.609375 L 199.027344 195.691406 Z M 318.632812 268.9375 " clip-rule="nonzero"/></clipPath><clipPath id="b0a2e5516c"><path d="M 318.191406 269.734375 L 240.3125 396.902344 L 120.671875 323.636719 L 198.550781 196.46875 Z M 318.191406 269.734375 " clip-rule="nonzero"/></clipPath><clipPath id="47ae05abc8"><path d="M 30 49 L 131 49 L 131 234 L 30 234 Z M 30 49 " clip-rule="nonzero"/></clipPath><clipPath id="a4fbd3dcb8"><path d="M 55.019531 242.851562 L -9.238281 107.3125 L 117.492188 47.230469 L 181.75 182.769531 Z M 55.019531 242.851562 " clip-rule="nonzero"/></clipPath><clipPath id="cc2b0ce976"><path d="M 55.019531 242.851562 L -9.238281 107.3125 L 117.492188 47.230469 L 181.75 182.769531 Z M 55.019531 242.851562 " clip-rule="nonzero"/></clipPath><clipPath id="da0b506251"><path d="M 55.019531 242.851562 L -9.238281 107.3125 L 117.492188 47.230469 L 181.75 182.769531 Z M 55.019531 242.851562 " clip-rule="nonzero"/></clipPath><clipPath id="ad4a039cfb"><path d="M 54.59375 242.046875 L -9.289062 107.300781 L 117.480469 47.203125 L 181.359375 181.945312 Z M 54.59375 242.046875 " clip-rule="nonzero"/></clipPath><clipPath id="2b4e2617d7"><path d="M 115.425781 108.785156 L 263.925781 108.785156 L 263.925781 257.285156 L 115.425781 257.285156 Z M 115.425781 108.785156 " clip-rule="nonzero"/></clipPath><clipPath id="7b4faee189"><path d="M 114.675781 136.535156 L 114.675781 229.535156 C 114.675781 245.277344 127.4375 258.035156 143.175781 258.035156 L 236.175781 258.035156 C 251.917969 258.035156 264.675781 245.277344 264.675781 229.535156 L 264.675781 136.535156 C 264.675781 120.796875 251.917969 108.035156 236.175781 108.035156 L 143.175781 108.035156 C 127.4375 108.035156 114.675781 120.796875 114.675781 136.535156 Z M 114.675781 136.535156 " clip-rule="nonzero"/></clipPath><clipPath id="f90e955b3b"><path d="M 144.078125 108.9375 L 235.277344 108.9375 C 251.015625 108.9375 263.777344 121.695312 263.777344 137.4375 L 263.777344 228.636719 C 263.777344 244.375 251.015625 257.136719 235.277344 257.136719 L 144.078125 257.136719 C 128.335938 257.136719 115.578125 244.375 115.578125 228.636719 L 115.578125 137.4375 C 115.578125 121.695312 128.335938 108.9375 144.078125 108.9375 Z M 144.078125 108.9375 " clip-rule="nonzero"/></clipPath><clipPath id="4e88b92528"><path d="M 114.675781 108.035156 L 264.675781 108.035156 L 264.675781 258.035156 L 114.675781 258.035156 Z M 114.675781 108.035156 " clip-rule="nonzero"/></clipPath><clipPath id="2847179a41"><path d="M 114.675781 136.535156 L 114.675781 229.535156 C 114.675781 245.277344 127.4375 258.035156 143.175781 258.035156 L 236.175781 258.035156 C 251.917969 258.035156 264.675781 245.277344 264.675781 229.535156 L 264.675781 136.535156 C 264.675781 120.796875 251.917969 108.035156 236.175781 108.035156 L 143.175781 108.035156 C 127.4375 108.035156 114.675781 120.796875 114.675781 136.535156 Z M 114.675781 136.535156 " clip-rule="nonzero"/></clipPath><clipPath id="cf10025a05"><path d="M 114.675781 136.535156 L 114.675781 229.535156 C 114.675781 245.277344 127.4375 258.035156 143.175781 258.035156 L 236.175781 258.035156 C 251.917969 258.035156 264.675781 245.277344 264.675781 229.535156 L 264.675781 136.535156 C 264.675781 120.796875 251.917969 108.035156 236.175781 108.035156 L 143.175781 108.035156 C 127.4375 108.035156 114.675781 120.796875 114.675781 136.535156 Z M 114.675781 136.535156 " clip-rule="nonzero"/></clipPath></defs><g clip-path="url(#4f3b99cf74)"><path fill="#000000" d="M 318.601562 89.675781 C 302.425781 69.292969 280.601562 53.394531 255.480469 43.710938 L 254.875 43.476562 L 256.800781 32.660156 C 256.992188 31.554688 256.585938 30.433594 255.730469 29.714844 C 254.867188 28.992188 253.6875 28.785156 252.640625 29.167969 L 201.359375 47.761719 C 200.304688 48.144531 199.535156 49.058594 199.335938 50.160156 C 199.144531 51.265625 199.550781 52.386719 200.414062 53.105469 L 242.171875 88.164062 C 243.03125 88.878906 244.203125 89.09375 245.257812 88.710938 C 246.3125 88.328125 247.089844 87.414062 247.28125 86.308594 L 249.0625 76.242188 L 249.984375 76.65625 C 287.773438 93.585938 312.660156 127.9375 314.917969 166.308594 C 315.011719 167.964844 316.382812 169.253906 318.042969 169.261719 L 344.367188 169.269531 C 345.226562 169.269531 346.054688 168.914062 346.644531 168.296875 C 347.242188 167.671875 347.550781 166.832031 347.5 165.96875 C 346.054688 138.429688 335.789062 111.339844 318.601562 89.675781 Z M 318.601562 89.675781 " fill-opacity="1" fill-rule="nonzero"/></g><g clip-path="url(#2345ad5730)"><g clip-path="url(#ca4dbc6bbf)"><g clip-path="url(#ea57a1b09d)"><g clip-path="url(#ab81f812bb)"><g clip-path="url(#b0a2e5516c)"><path fill="#000000" d="M 204.117188 339.78125 C 229.949219 336.628906 254.902344 326.320312 276.28125 309.953125 L 276.796875 309.5625 L 285.019531 316.851562 C 285.859375 317.59375 287.027344 317.832031 288.089844 317.480469 C 289.152344 317.121094 289.945312 316.222656 290.167969 315.128906 L 301.09375 261.6875 C 301.316406 260.585938 300.9375 259.457031 300.101562 258.710938 C 299.257812 257.96875 298.09375 257.730469 297.027344 258.089844 L 245.324219 275.386719 C 244.261719 275.75 243.46875 276.640625 243.246094 277.738281 C 243.019531 278.835938 243.394531 279.976562 244.234375 280.714844 L 251.886719 287.492188 L 251.054688 288.0625 C 216.882812 311.449219 174.59375 314.730469 140.691406 296.613281 C 139.226562 295.832031 137.414062 296.328125 136.539062 297.738281 L 122.785156 320.183594 C 122.335938 320.917969 122.207031 321.808594 122.425781 322.632812 C 122.648438 323.46875 123.203125 324.171875 123.964844 324.578125 C 148.203125 337.730469 176.667969 343.125 204.117188 339.78125 Z M 204.117188 339.78125 " fill-opacity="1" fill-rule="nonzero"/></g></g></g></g></g><g clip-path="url(#47ae05abc8)"><g clip-path="url(#a4fbd3dcb8)"><g clip-path="url(#cc2b0ce976)"><g clip-path="url(#da0b506251)"><g clip-path="url(#ad4a039cfb)"><path fill="#000000" d="M 58.328125 108.234375 C 46.839844 131.585938 41.824219 158.117188 43.839844 184.964844 L 43.882812 185.613281 L 33.285156 188.507812 C 32.207031 188.804688 31.367188 189.652344 31.082031 190.734375 C 30.800781 191.824219 31.117188 192.976562 31.914062 193.757812 L 70.683594 232.132812 C 71.480469 232.921875 72.632812 233.222656 73.71875 232.929688 C 74.796875 232.628906 75.632812 231.785156 75.917969 230.695312 L 89.707031 177.945312 C 89.984375 176.863281 89.675781 175.710938 88.875 174.921875 C 88.078125 174.132812 86.921875 173.824219 85.84375 174.125 L 75.980469 176.824219 L 75.960938 175.816406 C 75.070312 134.417969 95.449219 97.214844 129.152344 78.738281 C 130.609375 77.941406 131.1875 76.152344 130.484375 74.648438 L 119.210938 50.859375 C 118.84375 50.082031 118.171875 49.484375 117.359375 49.21875 C 116.535156 48.945312 115.644531 49.027344 114.890625 49.441406 C 90.625 62.546875 70.542969 83.425781 58.328125 108.234375 Z M 58.328125 108.234375 " fill-opacity="1" fill-rule="nonzero"/></g></g></g></g></g><g clip-path="url(#2b4e2617d7)"><g clip-path="url(#7b4faee189)"><g clip-path="url(#f90e955b3b)"><path fill="#000000" d="M 252.988281 108.035156 L 126.363281 108.035156 C 119.917969 108.035156 114.675781 113.277344 114.675781 119.722656 L 114.675781 246.347656 C 114.675781 252.796875 119.917969 258.035156 126.363281 258.035156 L 252.988281 258.035156 C 259.4375 258.035156 264.675781 252.796875 264.675781 246.347656 L 264.675781 119.722656 C 264.675781 113.277344 259.4375 108.035156 252.988281 108.035156 Z M 260.78125 246.347656 C 260.78125 250.652344 257.292969 254.140625 252.988281 254.140625 L 126.363281 254.140625 C 122.058594 254.140625 118.574219 250.652344 118.574219 246.347656 L 118.574219 119.722656 C 118.574219 115.417969 122.058594 111.933594 126.363281 111.933594 L 252.988281 111.933594 C 257.292969 111.933594 260.78125 115.417969 260.78125 119.722656 Z M 260.78125 246.347656 " fill-opacity="1" fill-rule="nonzero"/></g></g></g><g clip-path="url(#4e88b92528)"><g clip-path="url(#2847179a41)"><g clip-path="url(#cf10025a05)"><path stroke-linecap="butt" transform="matrix(0.75, 0, 0, 0.75, 114.676329, 108.035712)" fill="none" stroke-linejoin="miter" d="M -0.000730293 37.999261 L -0.000730293 161.999269 C -0.000730293 182.988854 17.014896 199.999272 37.999272 199.999272 L 161.99928 199.999272 C 182.988865 199.999272 199.999283 182.988854 199.999283 161.999269 L 199.999283 37.999261 C 199.999283 17.014885 182.988865 -0.000741141 161.99928 -0.000741141 L 37.999272 -0.000741141 C 17.014896 -0.000741141 -0.000730293 17.014885 -0.000730293 37.999261 Z M -0.000730293 37.999261 " stroke="#000000" stroke-width="26" stroke-opacity="1" stroke-miterlimit="4"/></g></g></g><path fill="#7ed957" d="M 183.890625 244.023438 L 111.578125 171.710938 C 107.234375 167.367188 107.234375 160.320312 111.578125 155.976562 L 127.308594 140.242188 C 131.65625 135.898438 138.699219 135.898438 143.042969 140.242188 L 191.757812 188.957031 L 296.09375 84.621094 C 300.4375 80.273438 307.484375 80.273438 311.828125 84.621094 L 327.558594 100.351562 C 331.90625 104.695312 331.90625 111.742188 327.558594 116.085938 L 199.625 244.023438 C 195.277344 248.367188 188.234375 248.367188 183.890625 244.023438 Z M 183.890625 244.023438 " fill-opacity="1" fill-rule="nonzero"/></svg>