<svg xmlns="http://www.w3.org/2000/svg" xmlns:xlink="http://www.w3.org/1999/xlink" width="500" zoomAndPan="magnify" viewBox="0 0 375 374.999991" height="500" preserveAspectRatio="xMidYMid meet" version="1.0"><defs><clipPath id="42d82ca6a0"><path d="M 6.777344 18.75 L 368.277344 18.75 L 368.277344 356.25 L 6.777344 356.25 Z M 6.777344 18.75 " clip-rule="nonzero"/></clipPath></defs><g clip-path="url(#42d82ca6a0)"><path fill="#000000" d="M 366.550781 191.421875 C 366.800781 190.558594 367.738281 190.390625 368.25 189.632812 C 367.0625 189.488281 365.957031 189.792969 364.894531 189.289062 C 365.035156 189.1875 365.09375 189.101562 365.140625 189.109375 C 366.191406 189.195312 365.964844 188.230469 366.105469 187.753906 C 366.304688 187.09375 365.527344 187.433594 365.214844 187.261719 C 364.800781 187.035156 364.136719 187.226562 364.003906 186.402344 C 364.800781 186.503906 365.785156 186.570312 365.878906 185.652344 C 365.964844 184.789062 364.988281 185.414062 364.5625 185.148438 C 365.347656 184.03125 365.339844 184.070312 364.023438 183.898438 C 362.542969 183.710938 361.085938 183.492188 359.585938 183.625 C 359.21875 183.664062 358.914062 183.472656 358.695312 183.226562 C 358.5625 183.085938 358.714844 182.875 358.828125 182.714844 C 359.207031 182.214844 359.265625 182.859375 359.492188 182.894531 C 359.597656 182.914062 359.710938 182.859375 359.816406 182.847656 C 360.621094 182.734375 361.492188 182.753906 362.183594 183.066406 C 362.96875 183.417969 363.09375 183.238281 363.007812 182.382812 C 363.453125 182.820312 363.585938 183.40625 364.222656 183.320312 C 364.429688 183.292969 364.667969 183.472656 364.769531 183.152344 C 364.902344 182.761719 363.652344 181.257812 363.226562 181.292969 C 362.289062 181.390625 362.230469 181.351562 362.003906 180.367188 C 362.25 180.253906 362.46875 180.554688 362.640625 180.488281 C 363.066406 180.320312 363.757812 180.914062 363.945312 180.042969 C 364.089844 179.371094 363.785156 179.085938 363.160156 178.859375 C 362.382812 178.574219 361.804688 178.660156 360.601562 178.421875 C 359.9375 178.289062 359.207031 178.574219 358.582031 178.140625 C 358.375 177.996094 357.769531 178.292969 357.910156 177.742188 C 357.988281 177.449219 358.335938 176.9375 358.859375 177.152344 C 359.378906 177.371094 359.957031 177.210938 360.488281 177.496094 C 360.828125 177.675781 361.351562 177.703125 361.550781 177.058594 C 361.691406 176.613281 362.128906 176.1875 361.605469 175.769531 C 361.019531 175.308594 360.609375 174.386719 359.585938 174.832031 C 359.445312 174.890625 359.3125 175.058594 359.113281 174.871094 C 358.535156 174.351562 357.691406 173.941406 357.265625 174.101562 C 356.546875 174.378906 356.035156 174.152344 355.578125 173.621094 C 355.277344 173.269531 354.984375 173.117188 354.5 173.382812 C 353.683594 173.847656 352.839844 174.359375 351.949219 173.441406 C 351.742188 173.222656 351.457031 173.335938 351.296875 173.628906 C 350.945312 174.292969 350.585938 174.054688 350.3125 173.59375 C 350.148438 173.308594 349.855469 173.164062 349.667969 173.222656 C 348.625 173.574219 347.675781 172.851562 346.683594 173.082031 C 346.539062 172.671875 347.164062 172.671875 346.976562 172.199219 C 346.597656 172.53125 345.6875 171.753906 345.714844 172.929688 C 345.714844 172.964844 345.441406 173.25 345.023438 173.210938 C 344.21875 173.128906 343.460938 172.4375 342.570312 172.957031 C 342.359375 173.082031 342.199219 172.765625 342.160156 172.53125 C 342.132812 172.359375 342.265625 172.179688 342.027344 172.039062 C 341.480469 171.695312 339.46875 172.113281 339.0625 172.691406 C 338.777344 171.175781 337.5 171.972656 336.683594 171.695312 C 336.457031 171.621094 335.945312 171.535156 336.058594 172.160156 C 336.117188 172.4375 335.839844 172.445312 335.679688 172.378906 C 335.5 172.3125 335.082031 172.304688 335.195312 172.085938 C 335.625 171.261719 334.835938 171.59375 334.667969 171.574219 C 333.851562 171.480469 333.019531 171.449219 332.191406 171.421875 C 331.976562 171.414062 331.566406 171.480469 331.566406 171.527344 C 331.511719 172.671875 330.667969 171.867188 330.25 172.066406 L 330.164062 171.992188 C 329.777344 172.539062 329.398438 171.992188 329.007812 171.972656 C 329.066406 170.976562 328.296875 171.316406 327.835938 171.289062 C 325.476562 171.167969 323.117188 170.988281 320.765625 171.242188 C 320.261719 171.300781 319.355469 170.597656 319.371094 171.886719 C 319.371094 171.972656 318.925781 172.046875 318.859375 171.734375 C 318.625 170.597656 317.933594 171.015625 317.476562 171.433594 C 317.078125 171.792969 316.679688 171.960938 316.207031 172 C 315.15625 172.085938 314.105469 172.027344 313.0625 171.867188 C 313.117188 171.480469 313.820312 171.800781 313.726562 171.289062 C 313.628906 170.789062 313.214844 170.578125 312.769531 170.417969 C 312.671875 170.351562 312.578125 170.277344 312.484375 170.210938 C 312.445312 170.277344 312.417969 170.332031 312.390625 170.398438 C 312.257812 170.410156 312.125 170.410156 311.992188 170.417969 C 311.867188 170.578125 311.734375 170.597656 311.574219 170.476562 C 311.5 170.464844 311.421875 170.457031 311.347656 170.445312 C 310.796875 170.351562 310.324219 170.503906 309.832031 170.757812 C 309.207031 171.089844 308.570312 171.441406 307.804688 171.355469 C 306.875 171.25 305.9375 171.15625 305.007812 171.136719 C 304.515625 171.128906 303.9375 171.089844 303.710938 171.78125 C 303.613281 172.074219 303.253906 172.132812 302.96875 172.207031 C 302.636719 171.972656 303.214844 171.628906 302.847656 171.394531 C 302.5625 171.214844 300.441406 171.488281 300.410156 171.800781 C 300.296875 172.957031 299.75 172.132812 299.351562 172.171875 C 299.371094 171.734375 300.011719 172.027344 299.882812 171.515625 C 299.09375 171.367188 298.480469 171.6875 298.023438 172.246094 C 297.539062 172.105469 298.25 171.628906 297.757812 171.554688 C 297.359375 171.648438 297.550781 172.132812 297.21875 172.246094 C 297.039062 172.066406 297.171875 171.679688 296.8125 171.628906 C 296.535156 172.511719 295.210938 172.84375 294.613281 172.105469 C 294.128906 171.507812 293.941406 171.554688 293.4375 172.113281 C 293.125 172.464844 292.421875 173.023438 292.007812 171.953125 C 291.808594 171.449219 291.085938 171.574219 290.792969 171.695312 C 290.140625 171.980469 291.25 172.125 290.9375 172.53125 C 290.574219 172.351562 290.234375 172.113281 289.875 171.941406 C 289.277344 171.660156 288.082031 171.535156 288.066406 172.007812 C 287.988281 173.667969 286.234375 172.191406 286.027344 173.277344 C 285.6875 172.425781 284.359375 173.402344 284.121094 172.238281 C 284.054688 171.933594 283.5625 171.960938 283.363281 172.246094 C 283.03125 172.71875 283.609375 172.617188 283.78125 172.785156 C 282.882812 173.183594 281.878906 172.578125 281.023438 173.070312 C 280.457031 173.402344 280.132812 173.34375 280.039062 172.652344 C 280.011719 172.464844 279.980469 172.257812 279.753906 172.21875 C 279.453125 172.179688 279.453125 172.398438 279.355469 172.625 C 279.089844 173.328125 278.570312 173.328125 278.210938 172.765625 C 277.632812 171.867188 277.175781 172.324219 276.722656 172.816406 C 276.382812 173.183594 275.945312 173.402344 275.527344 173.25 C 274.316406 172.84375 273.160156 173.070312 271.984375 173.375 C 271.777344 173.429688 271.539062 173.648438 271.367188 173.394531 C 271.101562 173.003906 271.832031 173.0625 271.671875 172.585938 C 271.378906 172.796875 270.734375 172.179688 270.789062 173.117188 C 270.820312 173.535156 270.535156 173.460938 270.261719 173.476562 C 269.699219 173.507812 269.140625 173.628906 268.574219 173.648438 C 267.351562 173.695312 266.109375 174.167969 265.011719 173.015625 C 264.632812 172.605469 263.246094 172.585938 263.171875 173.15625 C 263.011719 174.320312 262.785156 173.742188 262.355469 173.402344 C 261.863281 173.003906 259.683594 172.890625 259.617188 173.261719 C 259.46875 174.152344 258.792969 173.773438 258.359375 173.953125 C 257.835938 174.167969 257.125 173.527344 257.058594 173.667969 C 256.632812 174.597656 255.78125 174 255.191406 174.292969 C 254.945312 174.417969 254.566406 174.300781 254.605469 173.847656 C 254.625 173.675781 254.777344 173.460938 254.464844 173.421875 C 254.226562 173.394531 253.960938 173.46875 253.886719 173.695312 C 253.496094 174.925781 252.140625 174.558594 251.621094 174.511719 C 250.179688 174.40625 248.789062 174.652344 247.375 174.632812 C 245.621094 174.605469 243.871094 174.738281 242.125 174.878906 C 241.226562 174.957031 240.277344 174.757812 239.472656 174.890625 C 238.34375 175.078125 237.398438 175.421875 236.59375 174.332031 C 236.554688 174.285156 236.070312 174.300781 236.25 174.472656 C 236.960938 175.15625 236.023438 175.078125 235.929688 175.089844 C 234.148438 175.242188 232.375 175.5625 230.585938 175.355469 C 230.074219 175.296875 229.617188 175.210938 229.410156 175.875 C 229.304688 176.214844 228.9375 176.40625 228.71875 176.074219 C 228.121094 175.203125 227.4375 175.410156 226.710938 175.78125 C 226.511719 175.882812 226.320312 176.082031 226.167969 175.75 C 225.847656 175.097656 225.382812 175.390625 224.910156 175.523438 C 223.722656 175.882812 222.511719 175.648438 221.316406 175.695312 C 219.878906 175.75 218.398438 175.402344 216.941406 176 C 216.597656 176.140625 215.8125 176.480469 215.339844 176.054688 C 214.695312 175.46875 214.125 175.800781 213.519531 176.007812 C 213.40625 176.046875 213.246094 176.328125 213.1875 176.160156 C 212.914062 175.289062 212.15625 175.636719 211.59375 175.449219 C 211 175.242188 210.488281 174.871094 210.847656 174.085938 C 210.933594 173.90625 210.980469 173.761719 210.921875 173.554688 C 210.421875 171.847656 210.902344 170.058594 210.503906 168.332031 C 210.488281 168.265625 210.609375 168.183594 210.667969 168.105469 C 210.886719 168.21875 210.675781 168.628906 211.359375 168.550781 C 210.667969 167.859375 212.203125 166.503906 210.289062 166.277344 C 210.183594 166.269531 210.011719 165.964844 210.03125 165.8125 C 210.175781 164.621094 210.496094 163.425781 210.078125 162.214844 C 210.042969 162.101562 210.25 161.890625 210.363281 161.75 C 210.769531 161.21875 210.875 160.753906 210.183594 160.355469 C 209.992188 160.253906 209.738281 159.789062 210.144531 159.84375 C 211.226562 159.996094 210.628906 159.304688 210.542969 159.078125 C 210.316406 158.480469 209.984375 158.027344 210.429688 157.277344 C 210.78125 156.679688 210.269531 156.3125 209.351562 156.691406 C 210.03125 155.78125 209.765625 154.957031 209.863281 154.1875 C 209.890625 153.933594 209.746094 153.476562 209.519531 153.582031 C 208.894531 153.855469 209.007812 153.410156 209.179688 153.230469 C 209.785156 152.570312 209.710938 152 209.179688 151.335938 C 209.035156 151.15625 208.96875 150.769531 209.066406 150.578125 C 209.585938 149.519531 208.933594 148.523438 208.941406 147.5 C 208.941406 147.140625 208.515625 146.808594 208.96875 146.136719 C 209.09375 147.300781 209.3125 148.183594 210.089844 148.902344 C 210.203125 148.332031 210.402344 147.984375 209.796875 147.441406 C 209.09375 146.816406 209.320312 145.632812 209.351562 144.800781 C 209.378906 144.097656 209.578125 143.226562 209.871094 142.449219 C 210.050781 141.976562 210.230469 141.125 209.851562 140.441406 C 209.179688 140.925781 209.878906 141.710938 209.246094 142.175781 C 208.820312 141.132812 209.007812 140.128906 209.167969 139.105469 C 209.632812 139.171875 209.207031 139.757812 209.824219 139.769531 C 209.957031 138.953125 210.078125 138.140625 209.765625 137.316406 C 209.671875 137.417969 209.652344 137.523438 209.652344 137.628906 C 209.652344 137.941406 209.613281 138.367188 209.265625 138.308594 C 208.773438 138.222656 208.953125 137.796875 209.113281 137.496094 C 209.292969 137.164062 209.167969 136.839844 209.140625 136.5 C 209.054688 135.515625 209.09375 134.53125 209.632812 133.667969 C 209.785156 133.421875 209.796875 133.261719 209.632812 133.082031 C 208.921875 132.246094 208.789062 131.300781 209.066406 130.226562 C 210.042969 130.683594 209.007812 131.828125 209.765625 132.371094 C 210.25 130.9375 210.191406 129.402344 210.050781 128.105469 C 209.84375 126.257812 210.308594 124.441406 209.910156 122.628906 C 209.871094 122.449219 209.9375 122.230469 209.671875 122.214844 C 209.253906 122.183594 209.546875 122.660156 209.3125 122.773438 C 209 122.488281 209.265625 121.871094 208.695312 121.769531 C 209.207031 121.085938 209.246094 120.136719 209.359375 119.4375 C 209.585938 118.035156 209.179688 116.519531 208.960938 115.058594 C 208.855469 114.359375 208.488281 115.058594 208.183594 114.992188 C 208.382812 114.558594 208.421875 114.101562 208.242188 113.667969 C 208.195312 113.542969 208.050781 113.449219 207.929688 113.394531 C 207.890625 113.375 207.699219 113.523438 207.710938 113.574219 C 207.871094 114.691406 207.644531 115.789062 207.558594 116.898438 C 207.503906 117.714844 207.910156 118.972656 207.625 119.285156 C 206.675781 120.300781 207.132812 121.457031 206.828125 122.496094 C 206.707031 122.933594 206.78125 123.238281 207.207031 123.425781 C 206.554688 124.164062 206.554688 124.175781 207.425781 124.476562 C 207.738281 124.582031 207.671875 124.835938 207.683594 125.035156 C 207.75 126.03125 207.4375 127.054688 207.558594 127.992188 C 207.671875 128.875 206.355469 129.488281 207.273438 130.371094 C 207.238281 130.378906 207.171875 130.390625 207.171875 130.410156 C 206.960938 131.269531 206.734375 132.132812 206.894531 133.03125 C 207.066406 133.980469 207.351562 135.109375 207.21875 135.855469 C 206.914062 137.597656 206.933594 139.210938 207.265625 140.914062 C 207.417969 141.683594 207.84375 142.402344 207.664062 143.273438 C 207.585938 143.632812 206.933594 143.738281 207.226562 143.8125 C 208.109375 144.03125 206.78125 145.09375 207.816406 145.101562 C 207.585938 146.503906 208.109375 147.925781 207.597656 149.328125 C 206.992188 150.988281 207.226562 152.703125 207.445312 154.398438 C 207.445312 154.425781 207.570312 154.433594 207.550781 154.425781 C 208.070312 154.351562 207.585938 153.847656 208.015625 153.6875 C 208.507812 154.785156 208.496094 155.800781 207.730469 156.785156 C 207.332031 157.296875 207.53125 157.609375 208.25 157.636719 C 208.476562 157.648438 208.476562 157.769531 208.507812 157.902344 C 208.609375 158.421875 208.714844 158.945312 208.828125 159.53125 C 208.429688 159.371094 208.296875 159.179688 208.308594 158.867188 C 208.316406 158.652344 208.183594 158.5 207.949219 158.554688 C 207.777344 158.59375 207.757812 158.753906 207.757812 158.917969 C 207.75 159.777344 207.71875 160.640625 207.75 161.503906 C 207.757812 161.65625 207.53125 162.429688 208.203125 161.84375 C 208.382812 161.691406 208.421875 161.882812 208.46875 162.035156 C 208.640625 162.648438 208.886719 163.320312 208.675781 163.910156 C 208.527344 164.335938 208.34375 164.742188 208.753906 164.953125 C 209.433594 165.292969 208.875 164.25 209.378906 164.269531 C 209.585938 165.199219 209.398438 165.9375 208.449219 166.304688 C 208.261719 166.382812 208.183594 166.429688 208.394531 166.582031 C 208.988281 167.007812 208.714844 167.539062 208.667969 168.105469 C 208.582031 169.035156 208.335938 169.945312 208.527344 170.921875 C 208.808594 172.417969 208.914062 173.941406 208.789062 175.46875 C 208.773438 175.65625 208.855469 175.902344 208.582031 175.867188 C 207.976562 175.789062 207.3125 175.769531 206.992188 175.078125 C 206.914062 174.910156 206.601562 174.699219 207.140625 174.765625 C 207.371094 174.796875 207.273438 174.464844 207.199219 174.3125 C 207.09375 174.113281 206.914062 173.960938 206.800781 173.761719 C 206.707031 173.601562 206.449219 173.363281 206.820312 173.230469 C 207.570312 172.976562 207.53125 173.761719 207.863281 174.046875 C 207.949219 174.121094 208.03125 174.1875 208.183594 174.054688 C 208.082031 173.429688 208.082031 172.519531 207.445312 172.351562 C 206.480469 172.09375 206.582031 171.480469 206.515625 170.816406 C 206.441406 170.066406 206.328125 169.328125 206.25 168.578125 C 205.984375 166.03125 205.664062 163.484375 205.492188 160.925781 C 205.398438 159.550781 205.472656 158.160156 205.625 156.773438 C 205.710938 155.980469 205.570312 155.117188 205.445312 154.292969 C 205.398438 154.445312 205.359375 154.585938 205.3125 154.738281 C 205.390625 153.15625 205.238281 151.582031 205.21875 150.03125 C 205.199219 148.164062 204.714844 146.304688 204.8125 144.382812 C 204.914062 142.269531 204.449219 140.167969 204.6875 138.035156 C 204.894531 136.148438 204.222656 134.285156 204.355469 132.417969 C 204.574219 129.308594 204.59375 126.210938 204.488281 123.113281 C 204.355469 119.3125 204.621094 115.503906 204.300781 111.707031 C 204.054688 108.75 204.261719 105.785156 204.316406 102.820312 C 204.375 99.957031 204.59375 97.097656 204.335938 94.226562 C 204.300781 93.800781 204.136719 93.382812 204.25 92.898438 C 204.8125 90.503906 203.703125 88.097656 204.222656 85.679688 C 204.234375 85.625 204.1875 85.539062 204.136719 85.472656 C 203.683594 84.753906 203.84375 84.097656 204.402344 83.53125 C 204.546875 83.378906 204.640625 83.320312 204.5 83.09375 C 203.882812 82.097656 204.101562 80.980469 204.003906 79.890625 C 203.835938 77.910156 204.535156 75.867188 203.636719 73.933594 C 204.316406 73.144531 203.976562 72.21875 203.988281 71.347656 C 204.015625 69.535156 204.101562 67.707031 203.902344 65.90625 C 203.757812 64.675781 203.703125 63.484375 203.75 62.242188 C 203.796875 61.171875 204.382812 60.042969 203.949219 59.097656 C 203.542969 58.195312 204.300781 56.898438 202.992188 56.359375 C 202.945312 56.339844 202.933594 56.128906 202.972656 56.035156 C 203.457031 54.832031 202.925781 53.640625 202.925781 52.4375 C 202.925781 51.742188 203.285156 51.015625 203.171875 50.464844 C 202.78125 48.664062 203.410156 46.875 203.03125 45.101562 C 202.8125 44.058594 203.378906 42.941406 202.46875 41.9375 C 202.042969 41.464844 202.6875 40.582031 202.488281 39.863281 C 202.441406 39.703125 202.652344 39.703125 202.8125 39.691406 C 203.445312 39.664062 203.636719 39.332031 203.304688 38.746094 C 203.152344 38.480469 202.8125 38.195312 203 37.960938 C 203.53125 37.304688 203.085938 36.746094 202.964844 36.121094 C 202.914062 36.691406 202.554688 37.039062 202.242188 37.429688 C 201.996094 36.453125 201.910156 35.4375 201.703125 34.453125 C 201.476562 33.363281 200.773438 32.265625 201.285156 31.050781 C 201.363281 30.863281 201.3125 30.570312 201.066406 30.457031 C 200.832031 30.339844 200.800781 30.539062 200.699219 30.722656 C 200.480469 31.082031 200.328125 30.777344 200.28125 30.589844 C 200.160156 30.066406 200.167969 29.527344 200.355469 29.023438 C 200.792969 27.851562 199.863281 26.847656 199.941406 25.707031 C 199.960938 25.492188 199.703125 25.625 199.582031 25.585938 C 198.613281 25.320312 198.453125 24.695312 198.773438 23.84375 C 198.886719 23.53125 199.105469 23.054688 198.679688 22.960938 C 198.1875 22.847656 198.292969 23.378906 198.273438 23.691406 C 198.160156 25.425781 198.707031 27.09375 198.792969 28.808594 C 198.8125 29.101562 199.039062 29.441406 198.625 29.546875 C 198.28125 29.632812 198.160156 29.347656 198.027344 29.023438 C 197.847656 28.589844 197.78125 28.171875 197.800781 27.726562 C 197.808594 27.507812 197.96875 27.273438 197.628906 27.207031 C 196.605469 26.988281 196.671875 26.058594 196.671875 25.40625 C 196.671875 24.714844 196.578125 23.585938 196.792969 23.378906 C 197.550781 22.648438 197.164062 22.230469 196.757812 21.664062 C 196.632812 21.484375 196.453125 21.152344 196.527344 21.046875 C 197.296875 19.996094 196.367188 19.445312 195.914062 18.71875 C 195.761719 18.925781 195.628906 19.105469 195.488281 19.277344 C 195.078125 19.769531 194.292969 20.082031 194.585938 20.90625 C 194.84375 21.617188 194.546875 22.316406 194.71875 23.039062 C 194.851562 23.597656 195.570312 23.140625 195.542969 23.652344 C 195.496094 24.5625 195.960938 25.453125 195.648438 26.449219 C 195.109375 25.726562 195.78125 24.753906 195.03125 24.125 C 194.398438 27.074219 195.382812 29.980469 195.089844 33.011719 C 194.863281 32.84375 194.8125 32.824219 194.804688 32.804688 C 194.699219 31.761719 195.4375 30.550781 194.132812 29.753906 C 193.988281 29.667969 193.953125 29.222656 194.3125 29.109375 C 194.652344 29.007812 194.757812 28.777344 194.566406 28.523438 C 194.359375 28.238281 194.09375 28.476562 193.855469 28.570312 C 193.335938 28.769531 193.429688 29.367188 192.976562 29.925781 C 193.335938 27.109375 192.976562 24.65625 191.839844 22.242188 C 190.984375 23.777344 190.984375 23.777344 190.40625 23.140625 C 190.152344 24.648438 189.574219 26.183594 189.726562 27.640625 C 189.914062 29.554688 189.6875 31.429688 189.792969 33.316406 C 189.867188 34.726562 189.773438 34.824219 188.597656 35.582031 C 188.636719 34.085938 188.285156 32.632812 188.34375 31.128906 C 188.417969 29.136719 188.390625 27.128906 188.113281 25.140625 C 188.066406 24.808594 187.953125 24.78125 187.6875 24.816406 C 187.433594 24.847656 187.148438 24.761719 187.28125 25.234375 C 187.46875 25.890625 187.355469 26.5625 187.308594 27.242188 C 187.253906 28.050781 187.222656 28.976562 187.574219 29.660156 C 188.03125 30.539062 187.421875 31.109375 187.488281 31.828125 C 187.101562 31.527344 187.375 31.109375 187.214844 30.851562 C 186.929688 30.417969 186.929688 29.527344 186.246094 29.660156 C 185.519531 29.800781 185.488281 30.589844 185.546875 31.261719 C 185.554688 31.363281 185.59375 31.488281 185.660156 31.574219 C 186.230469 32.453125 185.042969 33.441406 185.832031 34.3125 C 185.027344 35.269531 185.109375 36.414062 185.109375 37.550781 C 185.109375 37.882812 185.195312 38.367188 184.703125 38.289062 C 184.363281 38.242188 184.464844 37.761719 184.550781 37.503906 C 184.84375 36.640625 184.777344 35.929688 184.117188 35.222656 C 183.699219 34.777344 183.480469 34.199219 183.878906 33.46875 C 184.597656 32.152344 183.546875 31.023438 183.195312 29.839844 C 183.121094 29.574219 183.027344 29.269531 182.949219 28.976562 C 182.882812 28.730469 182.496094 28.4375 182.429688 28.777344 C 182.324219 29.335938 181.652344 29.667969 181.890625 30.304688 C 182.097656 30.871094 182.535156 30.472656 182.855469 30.53125 C 182.988281 30.550781 183.121094 30.65625 183.207031 30.757812 C 183.242188 30.804688 183.160156 31.023438 183.128906 31.035156 C 182.5625 31.0625 181.964844 31.167969 181.433594 31.035156 C 181.148438 30.957031 181.359375 30.417969 181.320312 30.09375 C 181.273438 29.621094 181.632812 29.175781 181.59375 28.796875 C 181.453125 27.328125 181.160156 25.878906 180.914062 24.421875 C 180.867188 24.125 181.066406 23.730469 180.542969 23.53125 C 180.15625 24.609375 180.164062 25.726562 179.964844 26.835938 C 178.953125 26.515625 179.632812 25.066406 178.496094 24.835938 C 178.316406 27.09375 178.761719 29.347656 178.25 31.601562 C 177.945312 29.90625 178.144531 28.144531 177.433594 26.371094 C 177.171875 27.082031 177.1875 27.660156 177.265625 28.304688 C 177.433594 29.8125 177.605469 31.429688 176.734375 32.710938 C 176.097656 33.628906 176.175781 34.480469 176.148438 35.429688 C 176.082031 37.710938 176.335938 40.035156 175.882812 42.28125 C 175.785156 42.773438 175.710938 43.253906 175.652344 43.738281 C 175.503906 42.621094 175.304688 41.511719 175.113281 40.402344 C 175.066406 40.109375 175.265625 39.710938 174.746094 39.511719 C 174.355469 40.59375 174.367188 41.710938 174.167969 42.820312 C 173.152344 42.496094 173.835938 41.046875 172.699219 40.820312 C 172.519531 43.074219 172.964844 45.332031 172.453125 47.585938 C 172.148438 45.890625 172.347656 44.125 171.636719 42.355469 C 171.371094 43.066406 171.390625 43.644531 171.464844 44.289062 C 171.636719 45.792969 171.808594 47.414062 170.933594 48.695312 C 170.300781 49.613281 170.375 50.464844 170.347656 51.414062 C 170.28125 53.695312 170.539062 56.015625 170.082031 58.261719 C 169.855469 59.378906 169.730469 60.480469 169.695312 61.605469 C 169.65625 62.628906 169.515625 63.632812 169.324219 64.628906 C 169.257812 64.96875 169.398438 65.472656 168.679688 65.339844 C 168.320312 65.273438 168.492188 65.757812 168.433594 65.984375 C 168.359375 66.257812 168.472656 66.257812 168.765625 66.316406 C 169.390625 66.4375 169.628906 66.996094 169.710938 67.660156 C 169.429688 67.546875 169.503906 67.195312 169.199219 67.175781 C 168.972656 67.339844 169.011719 67.59375 169.050781 67.792969 C 169.363281 69.585938 169.019531 71.269531 168.671875 73.042969 C 168.242188 75.203125 168.359375 77.457031 168.242188 79.675781 C 168.226562 80.035156 168.632812 80.328125 168.375 80.746094 C 167.742188 81.769531 167.96875 82.953125 168.214844 83.945312 C 168.792969 86.304688 168.007812 88.449219 167.628906 90.789062 C 167.164062 90.277344 167.675781 89.765625 167.316406 89.402344 C 166.539062 90.132812 166.605469 90.835938 167.46875 91.421875 C 167.601562 91.515625 167.75 91.847656 167.703125 91.894531 C 166.992188 92.664062 167.609375 93.460938 167.675781 94.207031 C 167.78125 95.316406 167.417969 96.386719 167.503906 97.484375 C 166.945312 97.21875 167.675781 96.492188 166.832031 96.140625 C 166.359375 99.523438 166.226562 102.839844 166.273438 106.164062 C 166.71875 105.84375 166.738281 105.414062 166.71875 105.019531 C 166.699219 104.488281 166.578125 103.957031 167.03125 103.53125 C 167.125 103.644531 167.304688 103.757812 167.304688 103.871094 C 167.269531 105.300781 167.402344 106.761719 166.871094 108.152344 C 166.691406 108.003906 166.699219 107.671875 166.414062 107.679688 C 166.09375 107.6875 166.101562 107.992188 166.121094 108.191406 C 166.226562 109.347656 165.949219 110.476562 165.875 111.621094 C 165.867188 111.800781 165.921875 111.980469 165.941406 112.140625 C 166.9375 111.859375 166.460938 110.835938 167.089844 109.980469 C 166.964844 111.460938 166.839844 112.585938 166.984375 113.675781 C 166.433594 113.847656 166.671875 113.082031 166.234375 113.269531 C 165.96875 113.382812 165.867188 113.648438 165.847656 113.921875 C 165.808594 114.351562 166.046875 114.367188 166.414062 114.378906 C 166.71875 114.386719 166.699219 114.578125 166.328125 114.832031 C 165.960938 115.097656 165.601562 117.363281 165.875 117.636719 C 166.214844 117.976562 166.347656 117.285156 166.605469 117.476562 C 167.003906 117.769531 166.632812 120.035156 166.167969 120.234375 C 165.628906 120.46875 165.542969 121.011719 166.035156 121.105469 C 166.839844 121.265625 166.472656 121.722656 166.480469 122.082031 C 166.511719 122.828125 166.539062 123.585938 166.480469 124.335938 C 166.386719 125.679688 166.726562 127.054688 166.359375 128.4375 C 165.980469 128.144531 166.511719 127.472656 165.855469 127.507812 C 165.429688 127.539062 165.570312 128.03125 165.476562 128.332031 C 165.269531 129.007812 165.4375 129.667969 165.382812 130.332031 C 164.976562 134.671875 165.421875 139.019531 165.15625 143.359375 C 165.136719 143.617188 165.03125 143.964844 165.449219 143.945312 C 165.769531 143.929688 165.933594 143.699219 165.882812 143.304688 C 165.828125 142.714844 165.867188 142.109375 165.867188 141.425781 C 166.625 142.449219 166.425781 143.929688 165.496094 144.601562 C 165.191406 144.820312 165.164062 145.121094 165.269531 145.40625 C 165.601562 146.257812 165.257812 147.3125 166.09375 148.03125 C 166.460938 148.351562 166.328125 148.863281 166.328125 149.320312 C 166.328125 150.675781 166.273438 152.027344 166.234375 153.375 C 166.1875 154.957031 166.585938 156.566406 166.074219 158.140625 C 165.476562 158.347656 165.316406 158.804688 165.210938 159.398438 C 165.058594 160.269531 165.648438 160.992188 165.554688 161.816406 C 165.230469 164.589844 165.488281 167.339844 165.769531 170.097656 C 165.828125 170.609375 165.542969 171.195312 166.027344 171.679688 C 166.746094 171.136719 166.367188 170.257812 166.792969 169.679688 C 166.957031 171.800781 167.125 173.914062 167.285156 176.035156 C 167.171875 176.046875 167.050781 176.066406 166.9375 176.09375 C 166.890625 175.753906 166.839844 175.402344 166.792969 175.058594 C 166.765625 174.84375 166.785156 174.519531 166.511719 174.519531 C 166.167969 174.519531 166.214844 174.832031 166.179688 175.109375 C 166.113281 175.554688 166.101562 175.988281 166.113281 176.433594 C 166.015625 176.492188 165.921875 176.546875 165.835938 176.625 C 165.496094 176.292969 165.175781 175.46875 164.492188 176.054688 C 164.007812 176.472656 163.734375 176.3125 163.324219 176.054688 C 162.378906 175.457031 161.34375 175.703125 160.320312 175.789062 C 160 175.820312 160.105469 176.414062 159.363281 176.101562 C 158.457031 175.714844 157.070312 175.269531 156.085938 176.425781 C 155.726562 176.851562 155.527344 176.234375 155.214844 176.234375 C 155.082031 176.234375 155.121094 175.789062 154.808594 175.78125 C 153.605469 175.714844 152.449219 176.148438 151.195312 176.035156 C 150.03125 175.933594 148.835938 176.679688 147.605469 176.082031 C 147.21875 175.894531 147.160156 176.3125 146.980469 176.546875 C 146.601562 177.058594 146.203125 177.335938 145.929688 176.414062 C 145.824219 176.066406 145.578125 175.363281 145.140625 175.789062 C 144.101562 176.792969 143.011719 176.347656 142.054688 175.941406 C 141 175.488281 140.734375 175.902344 140.621094 176.792969 C 140.273438 176.660156 140.535156 176.09375 139.949219 176.148438 C 138.925781 176.246094 138.0625 176.878906 136.851562 176.613281 C 136.101562 176.453125 135.03125 176.832031 134.179688 176.519531 C 132.929688 176.074219 131.65625 177.382812 130.464844 176.367188 C 130.453125 176.359375 130.359375 176.460938 130.292969 176.5 C 129.867188 176.757812 129.394531 176.613281 128.976562 176.671875 C 128.511719 176.726562 127.582031 175.742188 127.488281 176.957031 C 126.609375 176.804688 125.953125 175.894531 124.929688 176.148438 C 124.4375 176.273438 123.992188 176.613281 123.507812 176.8125 C 123.386719 176.859375 123.1875 177.230469 123.128906 176.957031 C 122.910156 175.894531 122.542969 176.8125 122.230469 176.832031 C 121.785156 176.859375 121.367188 177.011719 120.929688 177.070312 C 120.058594 177.171875 119 176.578125 118.371094 177.648438 C 118.011719 177.34375 118.277344 176.925781 118.097656 176.726562 C 116.960938 176.699219 116.0625 178.621094 114.820312 176.925781 C 114.660156 176.699219 114.214844 176.71875 113.871094 176.957031 C 114.0625 177.03125 114.222656 177.097656 114.46875 177.203125 C 113.683594 177.296875 112.980469 177.410156 112.402344 177.894531 C 112.242188 178.027344 112.0625 178.042969 111.804688 177.910156 C 111 177.515625 110.109375 177.382812 109.296875 177.828125 C 108.878906 178.054688 108.679688 177.835938 108.339844 177.75 C 107.523438 177.550781 106.699219 176.824219 105.808594 177.515625 C 104.785156 178.308594 104.71875 178.300781 104.273438 177.125 C 103.867188 177.390625 102.945312 177.484375 104.140625 178.339844 C 103.648438 178.1875 103.421875 178.042969 103.222656 178.082031 C 102.414062 178.234375 101.5625 179.324219 100.878906 177.902344 C 100.871094 177.894531 100.804688 177.902344 100.777344 177.914062 C 99.59375 178.527344 98.371094 178.632812 97.042969 178.5 C 96.417969 178.433594 95.792969 179.171875 95.035156 178.6875 C 94.910156 178.613281 94.742188 178.867188 94.675781 179.058594 C 94.636719 179.152344 94.644531 179.445312 94.445312 179.183594 C 93.785156 178.292969 93.082031 179.117188 92.410156 179.117188 C 91.765625 179.117188 91.0625 179.199219 90.496094 178.972656 C 90.203125 178.859375 90.269531 178.6875 89.824219 178.898438 C 88.941406 179.304688 87.890625 179.464844 86.894531 179.496094 C 86.089844 179.511719 85.359375 179.464844 84.726562 180.070312 C 84.449219 180.328125 84.148438 180.488281 83.796875 180.0625 C 83.179688 179.324219 82.820312 179.570312 82.761719 180.527344 C 82.414062 180.195312 82.203125 179.988281 81.703125 179.988281 C 80.886719 179.976562 80.234375 180.453125 79.523438 180.5 C 78.554688 180.566406 77.484375 179.683594 76.671875 180.90625 C 76.652344 180.933594 76.472656 180.886719 76.367188 180.839844 C 75.636719 180.546875 74.90625 180.195312 74.234375 180.953125 C 74.1875 181 74.007812 181.011719 73.949219 180.960938 C 73.003906 180.214844 71.941406 180.867188 71.070312 181 C 70.152344 181.132812 68.890625 180.820312 68.207031 181.910156 C 68.191406 181.949219 68.066406 181.957031 68.007812 181.9375 C 66.976562 181.464844 65.859375 181.597656 64.84375 181.796875 C 64.125 181.9375 62.902344 181.339844 62.75 182.941406 C 62.410156 182.527344 62.296875 181.757812 62.117188 181.984375 C 61.621094 182.621094 61.273438 182.050781 60.902344 182.101562 C 60.164062 182.183594 59.433594 182.527344 58.675781 182.714844 C 57.925781 182.90625 56.980469 182.023438 56.429688 183.121094 C 56.410156 183.09375 56.382812 183.039062 56.363281 183.039062 C 54.714844 182.894531 53.039062 182.839844 51.492188 183.484375 C 50.261719 183.996094 48.839844 183.320312 47.722656 184.222656 C 47.351562 183.3125 47.058594 184.144531 46.738281 184.261719 C 46.527344 184.335938 46.289062 184.523438 46.109375 184.476562 C 45.550781 184.335938 44.878906 183.671875 44.71875 184.886719 C 44.71875 184.902344 44.40625 184.941406 44.320312 184.867188 C 43.078125 183.890625 42.101562 184.46875 41.164062 185.367188 C 40.984375 185.546875 40.777344 185.625 40.632812 185.3125 C 40.378906 184.722656 40.160156 184.523438 39.953125 185.339844 C 39.855469 185.71875 39.609375 185.992188 39.242188 185.566406 C 38.632812 184.867188 38.179688 185.027344 37.800781 185.777344 C 37.660156 186.050781 37.414062 186.15625 37.136719 186.078125 C 36.835938 185.992188 37.214844 185.652344 36.949219 185.511719 C 36.464844 185.652344 36.132812 186.882812 35.421875 185.765625 C 35.382812 185.710938 35.101562 185.738281 35.003906 185.8125 C 34.085938 186.523438 33.074219 186.570312 31.945312 186.542969 C 31.605469 186.535156 31.109375 186.335938 30.683594 186.542969 C 29.8125 186.96875 28.675781 186.828125 27.957031 187.320312 C 27.09375 187.90625 26.242188 187.804688 25.386719 187.992188 C 25.347656 188.003906 25.332031 188.117188 25.300781 188.199219 C 25.566406 188.484375 25.917969 188.390625 26.25 188.4375 C 26.371094 188.457031 26.496094 188.597656 26.570312 188.722656 C 26.675781 188.882812 26.554688 189.0625 26.421875 189.082031 C 24.988281 189.242188 24.515625 190.484375 23.757812 191.402344 C 23.550781 191.660156 23.398438 191.914062 23.558594 192.21875 C 23.945312 192.9375 24.15625 193.289062 23.199219 194.027344 C 22.335938 194.699219 21.929688 194.851562 21.039062 194.398438 C 20.375 194.054688 19.558594 193.707031 19.359375 194.976562 C 19.332031 195.164062 17.363281 195.324219 17.390625 195.242188 C 17.570312 194.558594 17.105469 194.710938 16.785156 194.746094 C 15.296875 194.957031 14.1875 195.941406 12.925781 196.625 C 12.585938 196.804688 12.605469 197.097656 12.652344 197.410156 C 12.707031 197.761719 12.984375 197.769531 13.25 197.808594 C 13.941406 197.902344 14.605469 197.722656 15.265625 197.582031 C 15.761719 197.476562 16.261719 197.597656 16.109375 198.121094 C 15.828125 199.097656 16.832031 199.683594 16.6875 200.574219 C 16.652344 200.792969 16.851562 200.90625 17.058594 200.90625 C 17.246094 200.90625 17.511719 200.898438 17.464844 200.660156 C 17.238281 199.542969 18.679688 200.574219 18.640625 199.730469 C 18.859375 200.054688 19.371094 199.949219 19.523438 200.46875 C 19.644531 200.886719 20.050781 201.226562 20.335938 201.605469 C 20.554688 201.371094 20.269531 200.933594 20.726562 200.847656 C 21.257812 201.550781 21.257812 202.109375 20.335938 202.507812 C 19.921875 202.6875 19.472656 203.066406 19.550781 203.503906 C 19.589844 203.730469 19.757812 203.84375 19.976562 203.898438 C 19.84375 203.917969 19.722656 203.9375 19.589844 203.964844 C 19.550781 203.976562 19.53125 204.089844 19.503906 204.175781 C 19.769531 204.457031 20.117188 204.363281 20.449219 204.410156 C 20.527344 204.421875 20.59375 204.476562 20.660156 204.554688 C 18.507812 204.648438 16.585938 205.878906 14.425781 205.644531 C 14.40625 206.390625 15.003906 207.574219 15.125 207.441406 C 15.65625 206.816406 16.519531 207.441406 17.039062 206.808594 C 17.464844 206.289062 17.996094 206.144531 18.480469 206.667969 C 18.308594 206.914062 18.136719 207.148438 17.957031 207.378906 C 17.75 207.632812 17.597656 207.886719 17.757812 208.191406 C 17.789062 208.25 17.816406 208.296875 17.84375 208.34375 C 17.742188 208.316406 17.625 208.238281 17.511719 208.039062 C 17.257812 208.304688 16.898438 208.523438 16.765625 208.835938 C 16.554688 209.339844 16.554688 209.90625 16.820312 210.410156 C 16.300781 210.710938 15.902344 210.722656 15.238281 210.378906 C 14.574219 210.039062 13.761719 209.6875 13.5625 210.957031 C 13.535156 211.148438 11.5625 211.308594 11.589844 211.222656 C 11.769531 210.542969 11.304688 210.691406 10.984375 210.730469 C 9.496094 210.9375 8.386719 211.925781 7.128906 212.605469 C 6.785156 212.785156 6.804688 213.082031 6.851562 213.394531 C 6.910156 213.742188 7.183594 213.753906 7.449219 213.789062 C 8.140625 213.886719 8.804688 213.707031 9.46875 213.5625 C 9.960938 213.460938 10.464844 213.582031 10.3125 214.105469 C 10.027344 215.078125 11.03125 215.667969 10.890625 216.558594 C 10.851562 216.773438 11.050781 216.890625 11.257812 216.890625 C 11.449219 216.890625 11.714844 216.878906 11.667969 216.644531 C 11.4375 215.523438 12.878906 216.558594 12.839844 215.714844 C 13.058594 216.035156 13.570312 215.933594 13.722656 216.453125 C 13.847656 216.871094 14.253906 217.210938 14.539062 217.589844 C 14.753906 217.351562 14.472656 216.917969 14.925781 216.832031 C 15.457031 217.535156 15.457031 218.09375 14.539062 218.488281 C 14.121094 218.671875 13.675781 219.050781 13.75 219.484375 C 13.816406 219.921875 14.375 219.949219 14.804688 219.941406 C 14.820312 219.855469 14.839844 219.777344 14.859375 219.695312 C 14.859375 219.589844 14.871094 219.496094 14.871094 219.390625 C 14.886719 219.34375 14.917969 219.296875 14.964844 219.265625 C 15.695312 219.410156 15.34375 220.121094 15.703125 220.546875 C 13.191406 220.269531 11.058594 221.882812 8.625 221.617188 C 8.605469 222.363281 9.203125 223.550781 9.324219 223.417969 C 9.855469 222.792969 10.71875 223.417969 11.238281 222.78125 C 11.714844 222.203125 12.3125 222.089844 12.832031 222.820312 C 12.9375 222.960938 13.125 223.039062 13.25 223.171875 C 13.417969 223.351562 13.675781 222.59375 13.714844 223.1875 C 13.730469 223.492188 13.636719 224.175781 13.171875 223.964844 C 12.613281 223.71875 12.1875 224.847656 11.703125 224.011719 C 11.449219 224.277344 11.089844 224.496094 10.957031 224.808594 C 10.738281 225.339844 10.738281 225.9375 11.042969 226.449219 C 11.238281 226.789062 11.789062 226.601562 11.847656 226.515625 C 12.246094 225.917969 12.992188 226.355469 13.136719 226.410156 C 14.519531 226.960938 14.492188 226.980469 15.742188 226.75 C 16.433594 226.628906 16.90625 226.304688 17.179688 225.652344 C 17.484375 226.136719 19.144531 226.628906 19.292969 226.257812 C 19.589844 225.539062 19.882812 225.71875 20.375 225.984375 C 20.59375 226.109375 20.933594 226.003906 21.4375 226.003906 C 20.640625 226.390625 20.46875 226.847656 20.90625 227.433594 C 20.933594 227.472656 21.027344 227.460938 21.09375 227.480469 C 21.386719 227.347656 21.007812 226.742188 21.597656 226.78125 C 21.578125 226.914062 21.570312 227.027344 21.539062 227.128906 C 21.339844 228.019531 22.03125 229.167969 22.914062 229.375 C 23.140625 229.433594 23.445312 229.613281 23.550781 229.1875 C 23.691406 228.636719 24.097656 228.457031 24.675781 228.609375 C 25.746094 228.882812 26.933594 229.785156 27.671875 228.070312 C 27.765625 227.859375 28.164062 227.851562 28.410156 227.953125 C 28.730469 228.097656 29.054688 228.105469 29.386719 228.144531 C 30.609375 228.296875 31.785156 227.71875 32.875 227.757812 C 34.019531 227.804688 35.183594 227.613281 36.292969 227.59375 C 39.855469 227.527344 43.410156 226.894531 46.984375 226.609375 C 48.746094 226.46875 50.449219 226.050781 52.195312 225.851562 C 54.277344 225.613281 56.382812 225.566406 58.476562 225.351562 C 60.34375 225.160156 62.191406 224.628906 64.046875 224.640625 C 67.507812 224.65625 70.890625 224.003906 74.3125 223.75 C 75.796875 223.636719 77.371094 223.863281 78.726562 222.972656 C 78.800781 222.925781 78.964844 222.953125 79.046875 223 C 80.300781 223.683594 81.636719 223.171875 82.90625 223.171875 C 85.710938 223.160156 88.515625 222.925781 91.300781 222.621094 C 93.726562 222.355469 96.179688 222.117188 98.578125 222.023438 C 100.550781 221.949219 102.558594 221.605469 104.558594 221.890625 C 104.824219 221.929688 105.058594 221.890625 105.324219 221.816406 C 106.699219 221.410156 108.167969 221.304688 109.550781 221.371094 C 110.945312 221.4375 112.347656 221.503906 113.636719 221.152344 C 114.394531 220.945312 114.640625 221.597656 115.304688 221.484375 C 117.492188 221.113281 119.710938 220.640625 121.90625 221.503906 C 122.105469 221.578125 122.351562 221.550781 122.582031 221.550781 C 124.808594 221.550781 127.035156 221.503906 129.183594 220.867188 C 129.695312 220.71875 130.113281 221.03125 130.605469 220.878906 C 131.894531 220.46875 133.25 220.59375 134.558594 220.585938 C 135.523438 220.585938 136.519531 220.46875 137.496094 220.652344 C 137.960938 220.734375 138.488281 220.980469 138.925781 220.734375 C 139.910156 220.195312 141.046875 220.421875 142.035156 220.386719 C 142.753906 220.355469 143.710938 220.320312 144.613281 220.660156 C 145.691406 221.066406 147.066406 220.660156 148.316406 220.652344 C 150.542969 220.621094 152.78125 220.652344 155.007812 220.59375 C 155.679688 220.574219 156.324219 220.753906 156.96875 220.71875 C 158.09375 220.652344 159.195312 219.910156 160.339844 220.6875 C 160.4375 220.753906 160.683594 220.734375 160.777344 220.660156 C 162.039062 219.730469 163.5625 220.261719 164.792969 220.367188 C 166.492188 220.5 168.167969 220.5 169.855469 220.421875 C 170.15625 220.414062 170.15625 220.507812 170.167969 220.714844 C 170.1875 221.617188 170.441406 222.480469 170.421875 223.398438 C 170.394531 224.640625 170.554688 225.878906 170.699219 227.113281 C 170.726562 227.367188 170.660156 227.917969 171.144531 227.871094 C 171.484375 227.832031 171.675781 227.492188 171.636719 227.082031 C 171.625 226.96875 171.542969 226.78125 171.84375 226.789062 C 171.855469 227.878906 172.121094 228.96875 171.808594 230.058594 C 171.578125 229.605469 171.570312 229.121094 171.597656 228.628906 C 171.609375 228.476562 171.558594 228.296875 171.378906 228.296875 C 171.246094 228.296875 171.085938 228.382812 171 228.476562 C 170.773438 228.722656 170.859375 229.035156 170.867188 229.339844 C 170.898438 230.988281 171.21875 232.617188 171.113281 234.273438 C 171.097656 234.578125 170.914062 235.0625 171.425781 235.070312 C 171.84375 235.078125 171.863281 234.625 171.871094 234.285156 C 171.882812 234.019531 171.84375 233.753906 171.863281 233.496094 C 171.949219 232.417969 171.457031 231.347656 171.789062 230.257812 C 172.441406 231.59375 172.0625 233.042969 172.234375 234.433594 C 172.28125 234.796875 172.488281 235.34375 172.070312 235.476562 C 171.132812 235.78125 171.34375 236.519531 171.296875 237.15625 C 171.179688 238.9375 171.34375 240.707031 171.53125 242.480469 C 171.550781 242.6875 171.476562 243 171.769531 243.027344 C 172.109375 243.066406 172.203125 242.753906 172.214844 242.488281 C 172.242188 241.84375 172.222656 241.210938 172.222656 240.566406 C 172.382812 241.863281 173.011719 243.125 172.679688 244.515625 C 172.261719 244.203125 171.617188 243.578125 171.609375 244.554688 C 171.578125 246.914062 171.757812 249.273438 171.902344 251.632812 C 171.921875 251.867188 171.777344 252.445312 172.335938 252.339844 C 172.820312 252.257812 172.699219 251.828125 172.714844 251.433594 C 172.753906 250.808594 172.382812 250.105469 173.011719 249.527344 C 173.238281 251.773438 173.265625 254.007812 173.21875 256.234375 C 173.210938 256.679688 173.710938 257.636719 172.488281 257.410156 C 172.433594 257.402344 172.253906 257.667969 172.269531 257.769531 C 172.507812 258.679688 172.148438 259.5625 172.167969 260.46875 C 172.242188 263.964844 172.746094 267.433594 172.648438 270.9375 C 172.640625 271.148438 172.59375 271.414062 172.925781 271.449219 C 173.417969 271.253906 173.246094 270.644531 173.664062 270.265625 C 173.664062 271.222656 173.664062 272.078125 173.664062 273.117188 C 173.523438 272.871094 173.457031 272.785156 173.417969 272.691406 C 173.324219 272.4375 173.570312 271.972656 173.125 271.953125 C 172.6875 271.945312 172.667969 272.371094 172.667969 272.71875 C 172.667969 272.949219 172.613281 273.195312 172.699219 273.402344 C 173.132812 274.539062 172.859375 275.742188 172.945312 276.898438 C 173.125 279.21875 173.046875 279.183594 174.070312 280.820312 C 174.394531 281.34375 174.5625 282.421875 173.777344 282.875 C 172.726562 283.492188 172.878906 284.402344 173.191406 285.152344 C 173.671875 286.316406 173.492188 287.386719 173.359375 288.5625 C 173.199219 289.972656 172.867188 291.460938 173.605469 292.851562 C 174.117188 292.617188 173.929688 292.066406 174.382812 291.601562 C 174.382812 293.773438 174.355469 295.714844 174.394531 297.648438 C 174.414062 298.375 174.535156 299.050781 173.796875 299.5625 C 173.417969 299.828125 173.292969 300.367188 173.378906 300.8125 C 173.597656 301.96875 173.605469 303.132812 173.550781 304.296875 C 173.539062 304.515625 173.4375 304.921875 173.882812 304.855469 C 174.175781 304.808594 174.234375 304.535156 174.242188 304.230469 C 174.261719 303.636719 174.335938 303.027344 174.382812 302.433594 C 174.441406 302.441406 174.488281 302.441406 174.546875 302.449219 C 174.546875 303.539062 174.546875 304.628906 174.546875 305.871094 C 174.195312 305.246094 173.882812 305.09375 173.644531 305.730469 C 173.53125 306.03125 173.539062 306.402344 173.550781 306.734375 C 173.625 310.164062 173.730469 313.582031 173.796875 317.011719 C 173.84375 319.316406 173.824219 321.617188 173.84375 323.917969 C 173.84375 324.554688 173.917969 325.101562 174.925781 324.59375 C 173.96875 325.113281 173.777344 325.945312 173.84375 326.695312 C 174.003906 328.390625 173.890625 330.078125 173.863281 331.765625 C 173.84375 333.515625 173.75 335.289062 173.09375 336.964844 C 173.011719 337.191406 172.632812 337.4375 172.945312 337.648438 C 173.265625 337.863281 173.570312 337.601562 173.804688 337.324219 C 174.117188 336.964844 173.949219 336.347656 174.402344 336.035156 C 174.820312 336.367188 174.289062 336.910156 174.753906 337.183594 C 175.332031 337.523438 174.667969 337.960938 174.828125 338.347656 C 175.007812 338.785156 174.042969 339.019531 174.429688 339.164062 C 175.386719 339.523438 174.488281 339.863281 174.488281 340.15625 C 175.085938 340.601562 175.730469 339.902344 176.269531 340.335938 C 176.839844 340.8125 176.449219 341.550781 176.734375 342.109375 C 177.511719 341.949219 177.578125 341.246094 177.910156 340.507812 C 177.9375 340.859375 178.011719 341.085938 177.957031 341.132812 C 177.558594 341.417969 178.703125 342.433594 177.359375 342.335938 C 177.09375 342.316406 177.671875 342.820312 177.664062 343.246094 C 177.644531 344.582031 178.089844 345.890625 177.878906 347.386719 C 178.542969 346.800781 178.960938 346.734375 179.214844 347.492188 C 179.273438 347.660156 179.234375 347.972656 179.445312 347.964844 C 180.304688 347.917969 180.058594 348.449219 179.898438 348.847656 C 179.792969 349.109375 179.625 349.289062 179.945312 349.5 C 180.257812 349.707031 180.636719 350.105469 180.949219 349.851562 C 182.023438 348.96875 182.097656 349.917969 182.324219 350.542969 C 182.617188 351.328125 183.40625 351.574219 183.992188 351.960938 C 184.371094 352.21875 184.34375 351.253906 184.855469 351.054688 C 185.222656 352.292969 185.792969 351.800781 186.476562 351.320312 C 187.0625 350.902344 187.128906 350.417969 187.101562 349.785156 C 187.042969 348.65625 187.867188 347.792969 188.597656 348.296875 C 189.515625 348.921875 191.316406 348.5625 191.0625 350.445312 C 191.5625 350.324219 191.183594 349.753906 191.734375 349.753906 C 191.800781 351.015625 191.867188 352.273438 191.933594 353.574219 C 192.339844 353.480469 192.367188 352.703125 192.871094 353.167969 C 193.117188 353.402344 193.496094 353.554688 193.15625 354.105469 C 192.917969 354.492188 193.183594 355.070312 193.421875 355.574219 C 193.78125 355.183594 193.355469 354.378906 194.214844 354.472656 C 194.710938 354.53125 194.957031 354.824219 195.042969 355.269531 C 195.097656 355.582031 194.851562 356.085938 195.296875 356.132812 C 195.769531 356.179688 195.667969 355.5625 195.847656 355.261719 C 195.980469 355.03125 195.921875 354.699219 195.949219 354.371094 C 196.1875 354.664062 196.234375 355.164062 196.605469 355.136719 C 197.476562 355.0625 197.960938 354.304688 198.605469 353.714844 C 198.699219 353.960938 198.785156 354.09375 198.804688 354.226562 C 198.886719 354.910156 199.464844 355.0625 199.949219 355.144531 C 200.601562 355.25 200.453125 354.566406 200.519531 354.246094 C 200.726562 353.164062 201.875 352.464844 201.664062 351.214844 C 201.589844 350.777344 202.347656 350.503906 202.402344 350.511719 C 203.292969 350.578125 203 349.851562 202.925781 349.59375 C 202.613281 348.542969 203.066406 347.625 203.152344 346.515625 C 204.375 348.21875 203.078125 350 203.703125 351.648438 C 203.929688 350.265625 203.417969 348.636719 205.191406 347.785156 C 205.058594 348.515625 205.285156 349.0625 205.804688 349.613281 C 206.128906 349.953125 206.316406 350.542969 206.042969 351.195312 C 205.796875 351.773438 205.996094 352.464844 206.867188 351.953125 C 207.484375 351.59375 207.929688 351.847656 208.335938 352.152344 C 208.78125 352.484375 209.074219 352.285156 209.019531 351.933594 C 208.894531 351.082031 209.492188 350.378906 209.398438 349.554688 C 209.234375 348.136719 209.625 346.722656 209.398438 345.300781 C 209.359375 345.09375 209.425781 344.820312 209.597656 344.839844 C 210.023438 344.886719 210.554688 344.78125 210.03125 344.402344 C 209.40625 343.957031 210.421875 343.511719 209.945312 343.453125 C 208.921875 343.3125 209.664062 343.199219 209.859375 342.894531 C 210.242188 342.316406 210.6875 341.664062 210.144531 340.945312 C 209.859375 340.566406 209.84375 340.601562 210.097656 340.148438 C 210.183594 339.996094 210.191406 339.710938 209.945312 339.683594 C 208.988281 339.589844 209.253906 338.898438 209.21875 338.320312 C 209.101562 336.226562 209.054688 334.121094 208.828125 332.046875 C 208.808594 331.828125 208.808594 331.621094 208.820312 331.414062 C 208.875 331.136719 208.921875 330.855469 208.953125 330.550781 C 210.175781 332.257812 208.875 334.039062 209.5 335.6875 C 209.730469 334.304688 209.21875 332.671875 210.988281 331.820312 C 210.875 332.445312 211.035156 332.929688 211.40625 333.402344 C 211.453125 333.628906 211.5 333.859375 211.519531 334.085938 C 211.566406 334.597656 211.652344 335.109375 211.757812 335.609375 C 211.746094 335.761719 211.765625 335.894531 211.832031 335.988281 C 212.058594 337.144531 212.269531 338.300781 212.003906 339.496094 C 211.964844 339.65625 212.15625 339.957031 211.890625 339.96875 C 210.621094 340.007812 210.980469 341.066406 210.949219 341.664062 C 210.914062 342.402344 210.96875 343.3125 211.511719 343.871094 C 212.230469 344.601562 212.304688 344.933594 211.445312 345.320312 C 210.808594 345.605469 211.328125 346.175781 211.386719 346.191406 C 211.804688 346.304688 212.277344 346.429688 212.667969 346.324219 C 213.101562 346.210938 213.242188 345.765625 213.128906 345.292969 C 213.09375 345.113281 212.996094 344.855469 213.195312 344.773438 C 214.316406 344.328125 213.046875 342.875 214.183594 342.449219 C 213.632812 341.257812 214.636719 340.101562 214.25 338.871094 C 214.152344 338.566406 213.71875 338.460938 213.878906 337.949219 C 214.058594 337.363281 214.152344 336.785156 214.164062 336.207031 C 214.582031 336.5 214.863281 336.3125 214.808594 335.96875 C 214.683594 335.117188 215.28125 334.417969 215.1875 333.59375 C 215.027344 332.171875 215.414062 330.757812 215.1875 329.339844 C 215.148438 329.128906 215.214844 328.855469 215.386719 328.875 C 215.8125 328.921875 216.34375 328.816406 215.820312 328.4375 C 215.195312 327.992188 216.210938 327.546875 215.734375 327.492188 C 214.710938 327.347656 215.453125 327.234375 215.652344 326.933594 C 216.03125 326.355469 216.476562 325.699219 215.933594 324.980469 C 215.652344 324.601562 215.632812 324.640625 215.886719 324.183594 C 215.972656 324.03125 215.984375 323.75 215.734375 323.71875 C 214.777344 323.625 215.042969 322.933594 215.007812 322.355469 C 214.894531 320.261719 214.84375 318.160156 214.617188 316.082031 C 214.496094 314.945312 214.902344 313.90625 214.789062 312.785156 C 215.300781 312.84375 215.519531 313.28125 215.964844 313.183594 C 215.964844 311.101562 215.964844 309.015625 215.964844 307.007812 C 215.527344 306.875 215.585938 307.300781 215.339844 307.3125 C 215.339844 306.921875 214.921875 306.488281 215.339844 306.144531 C 216.199219 305.445312 215.878906 304.667969 215.632812 303.851562 C 215.175781 303.984375 215.414062 304.523438 215.328125 304.507812 C 213.964844 304.25 215.054688 305.246094 214.789062 305.546875 C 214.648438 305.710938 214.597656 305.957031 214.523438 306.144531 C 213.917969 305.027344 214.941406 303.863281 214.230469 302.78125 C 214.125 302.628906 214.34375 302.527344 214.464844 302.382812 C 215.15625 301.617188 214.875 300.734375 214.835938 299.757812 C 214.277344 300.121094 214.703125 300.574219 214.25 300.878906 C 214.191406 299.941406 214.117188 299.058594 214.078125 298.175781 C 213.992188 296.066406 214.628906 293.988281 214.363281 291.878906 C 214.210938 290.730469 214.4375 289.527344 213.898438 288.429688 C 213.917969 288.351562 213.9375 288.285156 213.964844 288.210938 C 213.953125 287.945312 213.925781 287.691406 213.925781 287.425781 C 213.9375 286.980469 213.035156 286.183594 214.410156 286.222656 C 214.609375 286.230469 214.496094 285.871094 214.324219 285.605469 C 213.886719 284.921875 213.539062 284.382812 214.117188 283.332031 C 214.65625 282.355469 215.527344 281.171875 214.949219 279.722656 C 214.683594 279.066406 214.882812 278.234375 214.816406 277.484375 C 214.789062 277.203125 215.015625 276.792969 214.5625 276.625 C 214.351562 276.746094 214.390625 276.957031 214.332031 277.125 C 214.25 277.402344 214.550781 277.902344 213.964844 277.894531 C 213.519531 277.882812 213.492188 277.476562 213.441406 277.136719 C 213.425781 276.984375 213.375 276.839844 213.367188 276.691406 C 213.167969 274.074219 213.28125 271.433594 212.941406 268.828125 C 212.875 268.34375 212.929688 267.832031 212.929688 267.148438 C 213.1875 267.507812 213.308594 267.832031 213.414062 267.820312 C 213.765625 267.792969 213.699219 267.453125 213.726562 267.195312 C 213.785156 266.667969 213.480469 266.222656 213.425781 265.691406 C 213.292969 264.421875 213.671875 263.179688 213.40625 261.871094 C 213.207031 260.894531 212.515625 260.136719 212.503906 259.144531 C 212.46875 255.78125 212.230469 252.425781 211.804688 249.082031 C 211.773438 248.855469 211.746094 248.644531 211.824219 248.417969 C 212.230469 247.234375 211.898438 246.039062 211.792969 244.875 C 211.652344 243.246094 211.425781 241.605469 211.453125 239.976562 C 211.5 236.519531 211.113281 233.070312 211.1875 229.621094 C 211.214844 228.191406 210.554688 226.667969 211.585938 225.300781 C 211.738281 225.113281 211.492188 224.78125 211.261719 224.875 C 210.667969 225.101562 210.847656 224.675781 210.816406 224.421875 C 210.675781 223.140625 210.648438 221.863281 210.601562 220.582031 C 211.140625 220.566406 211.691406 220.566406 212.222656 220.640625 C 212.730469 220.714844 213.242188 220.746094 213.753906 220.746094 C 213.726562 220.792969 213.707031 220.839844 213.671875 220.878906 C 213.167969 221.351562 213.195312 221.75 213.671875 222.136719 C 214.449219 222.78125 213.8125 223.9375 213.699219 224.0625 C 212.949219 224.808594 213.546875 225.652344 213.707031 226.105469 C 213.9375 226.78125 213.917969 227.28125 213.71875 227.871094 C 213.5 228.523438 213.226562 229.140625 214.152344 229.546875 C 214.769531 229.820312 214.695312 230.796875 214.476562 230.910156 C 213.246094 231.527344 214.164062 232.664062 213.746094 233.441406 C 213.574219 233.753906 213.945312 233.972656 214.097656 234.21875 C 214.171875 234.332031 214.238281 234.453125 214.316406 234.566406 C 213.140625 235.15625 214.257812 236.007812 214.058594 236.707031 C 213.886719 237.296875 214.542969 237.808594 214.4375 238.242188 C 214.058594 239.691406 214.152344 241.132812 214.21875 242.59375 C 214.238281 243.054688 214.703125 243.121094 214.75 243.492188 C 214.910156 244.707031 214.855469 245.9375 215.054688 247.160156 C 215.1875 247.972656 215.261719 249.0625 214.84375 249.652344 C 214.285156 250.425781 214.976562 250.804688 215.148438 250.804688 C 216.246094 250.835938 215.5 251.695312 215.460938 251.707031 C 213.917969 252.238281 214.636719 253.460938 214.703125 254.378906 C 214.789062 255.648438 214.902344 256.925781 215.128906 258.167969 C 215.273438 258.925781 214.683594 259.429688 214.875 260.121094 C 215.226562 261.390625 215.1875 262.734375 215.652344 263.984375 C 215.71875 264.15625 215.832031 264.429688 215.753906 264.515625 C 214.777344 265.726562 215.652344 266.96875 215.488281 268.363281 C 215.878906 267.972656 215.621094 267.59375 215.933594 267.375 C 216.21875 269.042969 214.371094 270.863281 216.304688 272.332031 C 215.613281 272.929688 215.945312 273.855469 215.613281 274.578125 C 215.539062 274.738281 215.933594 275.109375 216.117188 275.382812 C 216.863281 274.757812 216.570312 275.449219 216.511719 275.722656 C 216.398438 276.292969 216.496094 276.839844 216.019531 277.390625 C 215.519531 277.960938 216.363281 278.699219 216.285156 279.34375 C 216.011719 281.550781 216.132812 283.75 216.164062 285.957031 C 216.171875 286.5625 216.191406 287.09375 217.15625 286.941406 C 216.695312 287.339844 216.011719 287.519531 216.332031 288.152344 C 216.5625 288.589844 216.183594 289.386719 217.074219 289.433594 C 216.824219 289.964844 216.523438 290.457031 216.84375 291.101562 C 216.988281 291.375 216.976562 291.753906 216.742188 292.066406 C 216.097656 292.9375 216.363281 293.90625 216.378906 294.824219 C 216.835938 294.976562 216.941406 293.839844 217.367188 294.617188 C 217.6875 295.191406 218.226562 295.855469 217.566406 296.566406 C 217.074219 297.097656 216.941406 296.40625 216.484375 296.160156 C 216.777344 297.003906 216.058594 297.847656 216.976562 298.441406 C 217.015625 298.472656 217.007812 298.585938 217.015625 298.652344 C 216.808594 298.613281 216.496094 298.386719 216.523438 298.851562 C 216.542969 299.183594 216.808594 299.351562 217.074219 299.511719 C 217.328125 299.664062 217.234375 299.941406 217.15625 300.121094 C 216.683594 301.199219 216.910156 302.347656 216.824219 303.464844 C 216.742188 304.628906 217.234375 305.785156 216.796875 306.949219 C 216.5625 307.59375 217.300781 308.257812 216.875 308.941406 C 217.980469 309.261719 217.007812 310.046875 217.222656 310.570312 C 217.261719 310.675781 217.269531 310.796875 217.261719 310.902344 C 217.207031 311.679688 217.148438 312.445312 217.0625 313.222656 C 217.042969 313.421875 216.769531 313.628906 217.042969 313.808594 C 217.414062 314.046875 217.527344 313.628906 217.746094 313.429688 C 217.59375 313.90625 218.125 314.550781 217.574219 314.765625 C 217.054688 314.976562 217.1875 315.097656 217.433594 315.34375 C 217.566406 315.46875 217.8125 315.515625 217.585938 315.742188 C 216.824219 316.460938 217.261719 317.285156 217.328125 318.101562 C 217.488281 319.910156 218.21875 321.664062 217.8125 323.519531 C 217.773438 323.683594 217.964844 323.984375 217.699219 323.996094 C 216.429688 324.03125 216.789062 325.09375 216.757812 325.691406 C 216.722656 326.429688 216.777344 327.339844 217.320312 327.898438 C 218.039062 328.628906 218.113281 328.960938 217.253906 329.347656 C 216.617188 329.632812 217.140625 330.199219 217.195312 330.21875 C 217.613281 330.332031 218.085938 330.457031 218.476562 330.351562 C 218.910156 330.238281 219.054688 329.792969 218.9375 329.320312 C 218.902344 329.140625 218.804688 328.882812 219.003906 328.796875 C 220.125 328.351562 218.855469 326.902344 219.992188 326.476562 C 219.441406 325.28125 220.445312 324.128906 220.058594 322.894531 C 219.960938 322.59375 219.527344 322.488281 219.6875 321.976562 C 220.179688 320.421875 220.027344 318.878906 219.335938 317.363281 C 219.25 317.171875 218.683594 316.273438 219.714844 316.035156 C 220.257812 315.914062 220.238281 315.554688 219.679688 315.355469 C 218.9375 315.089844 219.082031 314.433594 219.535156 314.3125 C 220.207031 314.132812 220.09375 313.734375 220.085938 313.34375 C 220.039062 311.375 220.046875 309.386719 219.839844 307.433594 C 219.761719 306.714844 220.058594 305.851562 219.628906 305.292969 C 219.101562 304.609375 219.136719 303.851562 219.195312 303.199219 C 219.328125 301.722656 220.238281 300.328125 219.015625 298.785156 C 218.492188 298.128906 218.4375 296.90625 219.222656 296.054688 C 219.488281 295.769531 219.347656 295.410156 219.441406 295.089844 C 219.582031 294.632812 219.0625 294.292969 218.855469 294.101562 C 218.523438 293.800781 218.738281 294.652344 218.179688 294.691406 C 218.542969 293.820312 218.523438 292.949219 218.4375 292.113281 C 218.371094 291.441406 218.097656 290.835938 218.625 290.191406 C 219.335938 289.328125 219.355469 288.457031 218.804688 287.375 C 218.597656 286.960938 218.921875 286.097656 218.4375 285.5 C 218.398438 285.453125 218.542969 285.140625 218.597656 285.140625 C 219.507812 285.132812 219.136719 284.488281 218.949219 284.230469 C 218.644531 283.824219 218.710938 283.492188 218.789062 283.074219 C 218.871094 282.5625 219.082031 281.65625 218.910156 281.578125 C 217.90625 281.085938 218.855469 280.773438 218.902344 280.386719 C 218.949219 280.015625 219.136719 279.179688 218.671875 279.3125 C 217.726562 279.578125 218 278.746094 217.6875 278.488281 C 217.632812 278.441406 217.714844 278.082031 217.839844 277.988281 C 218.097656 277.789062 218.078125 278.148438 218.199219 278.226562 C 218.757812 278.546875 218.589844 278.074219 218.625 277.828125 C 218.703125 277.351562 218.132812 276.925781 218.457031 276.453125 C 219.070312 275.542969 217.914062 274.84375 218.199219 273.980469 C 218.199219 273.972656 218.085938 273.90625 218.019531 273.894531 C 217.386719 273.753906 217.328125 273.714844 217.632812 273.242188 C 217.972656 272.691406 218.011719 272.046875 218.398438 271.496094 C 218.710938 271.050781 218.671875 270.351562 218.332031 269.753906 C 217.753906 270.132812 218.371094 270.589844 218 270.871094 C 217.5 270.078125 217.546875 269.414062 218.246094 269.035156 C 218.503906 268.902344 218.503906 268.75 218.445312 268.636719 C 218.199219 268.117188 218.464844 267.527344 218.265625 266.988281 C 217.707031 267.207031 217.933594 267.765625 217.6875 268.210938 C 217.507812 267.472656 217.242188 266.882812 217.269531 266.304688 C 217.289062 265.757812 217.820312 265.273438 217.820312 264.609375 C 217.925781 264.753906 218.019531 264.886719 218.125 265.027344 C 218.179688 264.894531 218.277344 264.769531 218.277344 264.636719 C 218.265625 264.222656 218.285156 263.785156 218.164062 263.40625 C 217.980469 262.875 217.765625 262.421875 217.933594 261.796875 C 218.179688 260.90625 217.800781 260.613281 217.109375 261.105469 C 217.109375 257.976562 217.109375 254.84375 217.109375 251.707031 C 217.320312 251.960938 217.308594 252.226562 217.328125 252.484375 C 217.355469 252.84375 217.460938 253.210938 217.886719 253.203125 C 218.417969 253.203125 218.265625 252.738281 218.277344 252.4375 C 218.285156 252.039062 218.324219 251.613281 217.953125 251.269531 C 217.820312 251.726562 218.21875 252.238281 217.753906 252.671875 C 217.46875 252.007812 217.660156 251.402344 217.640625 250.816406 C 217.601562 249.632812 217.507812 249.554688 216.464844 249.992188 C 216.324219 249.660156 216.277344 249.335938 216.496094 249.023438 C 217.121094 248.125 216.085938 246.828125 217.203125 246.039062 C 217.253906 246.003906 217.148438 245.757812 217.128906 245.613281 C 216.949219 244.0625 217.242188 242.421875 216.390625 240.972656 C 216.363281 240.925781 216.378906 240.792969 216.417969 240.773438 C 217.546875 240.253906 216.902344 239.597656 216.675781 238.859375 C 216.550781 238.441406 216.34375 238.0625 216.246094 237.664062 C 216.117188 237.105469 215.527344 236.328125 216.578125 235.980469 C 216.863281 235.882812 216.789062 235.722656 216.730469 235.535156 C 216.664062 235.316406 216.511719 234.984375 216.304688 235.15625 C 215.667969 235.667969 215.8125 235.042969 215.820312 234.824219 C 215.898438 233.800781 215.992188 232.785156 215.832031 231.761719 C 215.800781 231.613281 215.859375 231.414062 216.03125 231.402344 C 216.84375 231.355469 216.429688 231.023438 216.105469 230.929688 C 215.632812 230.796875 215.878906 230.730469 215.898438 230.378906 C 215.984375 228.929688 215.488281 227.480469 215.792969 225.992188 C 215.8125 225.898438 215.394531 225.710938 215.328125 225.414062 C 215.261719 225.160156 215.042969 224.789062 215.28125 224.6875 C 216.257812 224.277344 215.71875 223.671875 215.613281 223.074219 C 215.539062 222.675781 215.5 222.25 215.6875 221.84375 C 215.878906 221.457031 215.898438 221.066406 215.859375 220.667969 C 216.410156 220.640625 216.96875 220.621094 217.519531 220.621094 C 218.550781 220.628906 219.648438 220.59375 220.710938 220.488281 C 221.449219 220.414062 222.265625 220.300781 223.015625 220.402344 C 224.035156 220.546875 225.058594 220.515625 226.046875 220.394531 C 227.609375 220.183594 229.164062 220.449219 230.707031 220.242188 C 231.75 220.109375 232.953125 220.667969 233.757812 220.347656 C 234.753906 219.949219 235.664062 219.996094 236.59375 220.035156 C 238.203125 220.089844 239.699219 220.6875 241.433594 219.957031 C 242.769531 219.398438 244.476562 219.691406 246.011719 219.589844 C 248.332031 219.4375 250.683594 219.597656 253.023438 219.476562 C 253.628906 219.445312 254.152344 219.125 254.796875 219.21875 C 256.992188 219.550781 259.203125 219.257812 261.410156 219.199219 C 262.507812 219.171875 263.644531 218.734375 264.800781 219.285156 C 264.28125 219.511719 263.875 219.738281 263.457031 220.183594 C 264.328125 220.316406 265.34375 220.59375 265.589844 219.796875 C 265.835938 218.992188 266.25 219.058594 266.773438 218.992188 C 269.152344 218.6875 271.53125 218.980469 273.925781 218.839844 C 278.199219 218.585938 282.492188 218.640625 286.777344 218.546875 C 289.238281 218.488281 291.703125 218.339844 294.167969 218.300781 C 299.765625 218.222656 305.367188 218.1875 310.96875 218.128906 C 311.28125 218.128906 311.59375 218.101562 311.6875 218.5 C 311.90625 219.410156 312.550781 219.371094 313.316406 219.425781 C 314.058594 219.476562 314.710938 218.640625 315.15625 218.980469 C 316.1875 219.789062 317.230469 219.21875 318.28125 219.4375 C 318.160156 218.46875 317.535156 218.679688 316.992188 218.679688 C 316.5 218.679688 315.914062 219.210938 315.488281 218.289062 C 318.332031 218.253906 321.097656 218.195312 323.84375 218.535156 C 323.84375 218.640625 323.835938 218.746094 323.835938 218.851562 C 323.183594 218.964844 322.527344 219.085938 321.636719 219.246094 C 322.773438 219.777344 323.710938 219.644531 324.632812 219.589844 C 324.832031 219.578125 325.046875 219.484375 325.066406 219.296875 C 325.179688 218.320312 325.921875 218.507812 326.527344 218.507812 C 327.9375 218.5 329.371094 218.300781 330.761719 218.71875 C 331.40625 218.90625 331.929688 218.980469 332.636719 218.746094 C 333.453125 218.472656 334.496094 219.132812 335.292969 218.289062 C 335.328125 218.253906 335.527344 218.308594 335.59375 218.375 C 336.335938 219.191406 337.328125 218.792969 338.183594 218.800781 C 338.664062 218.8125 339.082031 218.640625 339.660156 218.765625 C 340.769531 218.992188 341.953125 218.8125 343.117188 218.917969 C 345.496094 219.132812 347.855469 218.40625 350.246094 218.679688 C 350.414062 218.699219 350.625 218.652344 350.785156 218.574219 C 351.582031 218.148438 352.519531 218.273438 353.351562 218.121094 C 354.574219 217.902344 355.191406 217.648438 355.152344 216.339844 C 355.132812 215.476562 355.332031 214.8125 356.375 214.625 C 357.277344 214.464844 357.492188 213.695312 356.953125 212.976562 C 356.433594 212.292969 356.308594 211.695312 357.390625 211.480469 C 356.714844 210.21875 355.703125 210.757812 354.785156 210.855469 C 354.507812 210.882812 354.214844 210.917969 354.1875 210.53125 C 354.167969 210.179688 354.46875 210.09375 354.726562 210.078125 C 355.019531 210.066406 355.324219 210.171875 355.625 210.191406 C 356.222656 210.21875 356.714844 210.105469 356.546875 209.320312 C 356.480469 208.996094 356.488281 208.597656 356.859375 208.617188 C 357.21875 208.636719 357.179688 209.054688 357.085938 209.347656 C 357.027344 209.527344 356.933594 209.699219 357.113281 209.933594 C 357.492188 209.867188 357.910156 209.601562 358.316406 209.992188 C 358.753906 210.410156 359.265625 210.425781 359.757812 210.078125 C 359.929688 209.964844 359.984375 209.8125 360.175781 210.085938 C 360.421875 210.4375 360.894531 210.378906 361.039062 210.113281 C 361.265625 209.699219 360.855469 209.488281 360.507812 209.289062 C 359.757812 208.875 359.511719 208.257812 359.804688 207.414062 C 360.109375 206.535156 360.535156 207.765625 360.640625 207.394531 C 360.886719 206.535156 361.824219 206.363281 362.335938 205.605469 C 361.152344 205.460938 360.042969 205.765625 358.980469 205.265625 C 359.125 205.160156 359.179688 205.074219 359.226562 205.082031 C 360.28125 205.167969 360.050781 204.203125 360.195312 203.730469 C 360.394531 203.066406 359.617188 203.40625 359.304688 203.238281 C 358.886719 203.007812 358.222656 203.199219 358.089844 202.375 C 358.761719 202.460938 359.550781 202.515625 359.84375 201.984375 C 360.59375 201.769531 360.972656 201.390625 360.941406 200.367188 C 360.921875 199.503906 361.121094 198.839844 362.164062 198.652344 C 363.066406 198.488281 363.28125 197.722656 362.742188 197.003906 C 362.222656 196.320312 362.097656 195.722656 363.179688 195.503906 C 362.507812 194.246094 361.492188 194.785156 360.574219 194.878906 C 360.296875 194.910156 360.003906 194.945312 359.976562 194.558594 C 359.957031 194.207031 360.261719 194.121094 360.515625 194.101562 C 360.808594 194.09375 361.113281 194.199219 361.417969 194.21875 C 362.011719 194.246094 362.507812 194.132812 362.335938 193.34375 C 362.269531 193.023438 362.277344 192.625 362.648438 192.644531 C 363.007812 192.664062 362.96875 193.078125 362.875 193.375 C 362.820312 193.554688 362.722656 193.722656 362.902344 193.960938 C 363.28125 193.894531 363.699219 193.628906 364.109375 194.019531 C 364.542969 194.433594 365.054688 194.453125 365.546875 194.101562 C 365.71875 193.988281 365.773438 193.839844 365.964844 194.113281 C 366.210938 194.464844 366.683594 194.40625 366.828125 194.140625 C 367.054688 193.722656 366.648438 193.515625 366.296875 193.316406 C 365.546875 192.898438 365.300781 192.285156 365.59375 191.441406 C 366.03125 190.558594 366.457031 191.792969 366.550781 191.421875 Z M 20.734375 203.671875 C 20.734375 203.566406 20.746094 203.472656 20.746094 203.371094 C 20.761719 203.320312 20.792969 203.273438 20.839844 203.246094 C 21.152344 203.304688 21.265625 203.464844 21.324219 203.671875 C 21.125 203.71875 20.914062 203.757812 20.714844 203.785156 C 20.714844 203.75 20.726562 203.710938 20.734375 203.671875 Z M 215.300781 220.945312 C 215.300781 220.859375 215.300781 220.773438 215.300781 220.699219 C 215.394531 220.699219 215.5 220.6875 215.59375 220.6875 C 215.546875 220.792969 215.460938 220.886719 215.300781 220.945312 Z M 215.300781 220.945312 " fill-opacity="1" fill-rule="nonzero"/></g><path fill="#000000" d="M 207.605469 102.402344 C 207.652344 102.675781 207.71875 103.121094 207.386719 103.1875 C 206.792969 103.300781 206.828125 103.433594 207.292969 103.679688 C 207.632812 103.863281 207.996094 104.203125 207.597656 104.402344 C 206.78125 104.808594 206.972656 105.160156 207.417969 105.671875 C 207.578125 105.851562 207.53125 106.03125 207.265625 106.210938 C 206.648438 106.609375 207.046875 107.347656 207.273438 107.460938 C 207.84375 107.753906 207.863281 107.871094 207.378906 108.238281 C 207.132812 108.429688 206.980469 108.75 206.800781 108.988281 C 207.007812 109.367188 207.371094 108.902344 207.53125 109.214844 C 207.617188 109.386719 207.519531 109.535156 207.378906 109.585938 C 206.28125 109.953125 206.960938 110.671875 207.066406 111.25 C 207.09375 111.382812 207.378906 111.363281 207.21875 111.714844 C 206.933594 112.351562 207.445312 112.910156 208.136719 112.796875 C 208.316406 112.765625 208.476562 112.425781 208.667969 112.75 C 208.761719 112.917969 208.667969 113.261719 209.027344 113.097656 C 209.265625 112.996094 209.3125 112.765625 209.226562 112.519531 C 209.101562 112.171875 209.085938 111.761719 209.066406 111.441406 C 209.019531 110.605469 208.542969 109.714844 209.121094 108.902344 C 209.757812 108.011719 209.804688 107.167969 209.054688 106.304688 C 208.90625 106.125 208.753906 105.699219 208.847656 105.585938 C 209.585938 104.6875 208.855469 103.691406 209.105469 102.726562 C 209.519531 102.800781 209.09375 103.585938 209.519531 103.265625 C 209.863281 103.007812 210.289062 102.128906 209.765625 101.785156 C 208.847656 101.191406 208.742188 100.355469 208.820312 99.503906 C 208.914062 98.460938 209.09375 97.449219 208.886719 96.386719 C 208.65625 95.203125 208.78125 94.019531 208.886719 92.816406 C 208.980469 91.753906 209.300781 90.644531 208.753906 89.546875 C 208.429688 88.902344 207.996094 88.125 207.386719 88.34375 C 206.933594 88.503906 207.132812 89.507812 207.371094 90.09375 C 207.484375 90.371094 207.796875 90.589844 207.425781 90.835938 C 206.714844 91.316406 206.925781 92.058594 206.753906 92.71875 C 206.496094 93.695312 207.007812 94.519531 207.171875 95.324219 C 207.644531 97.695312 207.246094 100.0625 207.605469 102.402344 Z M 207.605469 102.402344 " fill-opacity="1" fill-rule="nonzero"/><path fill="#000000" d="M 207.21875 77.910156 C 207.5 78.601562 206.609375 79.410156 207.445312 80.023438 C 206.800781 81.636719 207.359375 83.085938 208.050781 84.621094 C 208.648438 84.230469 208.722656 83.832031 208.601562 83.273438 C 208.382812 82.261719 207.890625 81.085938 208.203125 80.234375 C 208.542969 79.296875 208.582031 78.46875 208.335938 77.664062 C 208.136719 77.019531 208.042969 76.359375 208.222656 75.835938 C 208.5625 74.851562 207.863281 74.199219 207.699219 73.390625 C 207.671875 73.230469 207.519531 73.144531 207.351562 73.210938 C 207.1875 73.277344 207.132812 73.421875 207.160156 73.582031 C 207.4375 75.023438 206.640625 76.480469 207.21875 77.910156 Z M 207.21875 77.910156 " fill-opacity="1" fill-rule="nonzero"/><path fill="#000000" d="M 332.734375 170.84375 C 332.835938 170.890625 333.234375 170.542969 333.359375 170.304688 C 333.5 170.03125 333.1875 169.832031 333.007812 169.660156 C 332.554688 169.242188 332.714844 169.832031 332.582031 169.945312 C 332.308594 170.171875 332.210938 169.90625 332.042969 169.773438 C 331.433594 169.28125 330.648438 169.195312 330.050781 169.5 C 329.605469 169.726562 329.558594 169.90625 329.492188 169.320312 C 329.472656 169.175781 329.265625 168.996094 329.179688 169.121094 C 328.574219 169.933594 327.625 169.792969 326.8125 170.039062 C 326.566406 170.113281 326.320312 170.3125 326.402344 170.636719 C 326.488281 170.910156 326.746094 170.855469 326.972656 170.835938 C 327.324219 170.796875 327.777344 170.835938 328.015625 170.769531 C 328.925781 170.511719 329.851562 171.402344 330.675781 170.523438 C 330.722656 171.195312 330.308594 171.546875 330.164062 172.007812 C 330.164062 172.007812 330.25 172.085938 330.25 172.085938 C 330.960938 171.433594 331.351562 170.179688 332.734375 170.84375 Z M 332.734375 170.84375 " fill-opacity="1" fill-rule="nonzero"/></svg>