<svg xmlns="http://www.w3.org/2000/svg" xmlns:xlink="http://www.w3.org/1999/xlink" width="500" zoomAndPan="magnify" viewBox="0 0 375 374.999991" height="500" preserveAspectRatio="xMidYMid meet" version="1.0"><defs><clipPath id="57f5fdafc3"><path d="M 6.777344 18.75 L 368.277344 18.75 L 368.277344 356.25 L 6.777344 356.25 Z M 6.777344 18.75 " clip-rule="nonzero"/></clipPath></defs><g clip-path="url(#57f5fdafc3)"><path fill="#ffffff" d="M 366.496094 191.421875 C 366.742188 190.558594 367.679688 190.390625 368.191406 189.632812 C 367.003906 189.488281 365.898438 189.792969 364.835938 189.289062 C 364.976562 189.1875 365.035156 189.101562 365.082031 189.109375 C 366.132812 189.195312 365.90625 188.230469 366.050781 187.753906 C 366.246094 187.09375 365.472656 187.433594 365.160156 187.261719 C 364.742188 187.035156 364.078125 187.226562 363.945312 186.402344 C 364.742188 186.503906 365.726562 186.570312 365.820312 185.652344 C 365.90625 184.789062 364.929688 185.414062 364.503906 185.148438 C 365.289062 184.03125 365.28125 184.070312 363.964844 183.898438 C 362.488281 183.710938 361.027344 183.492188 359.53125 183.625 C 359.160156 183.664062 358.859375 183.472656 358.640625 183.226562 C 358.507812 183.085938 358.660156 182.875 358.773438 182.714844 C 359.152344 182.214844 359.207031 182.859375 359.4375 182.894531 C 359.539062 182.914062 359.652344 182.859375 359.757812 182.847656 C 360.5625 182.734375 361.433594 182.753906 362.125 183.066406 C 362.914062 183.417969 363.035156 183.238281 362.949219 182.382812 C 363.394531 182.820312 363.527344 183.40625 364.164062 183.320312 C 364.371094 183.292969 364.609375 183.472656 364.714844 183.152344 C 364.847656 182.761719 363.59375 181.257812 363.167969 181.292969 C 362.230469 181.390625 362.175781 181.351562 361.945312 180.367188 C 362.191406 180.253906 362.410156 180.554688 362.582031 180.488281 C 363.007812 180.320312 363.699219 180.914062 363.890625 180.042969 C 364.03125 179.371094 363.726562 179.085938 363.101562 178.859375 C 362.324219 178.574219 361.746094 178.660156 360.542969 178.421875 C 359.882812 178.289062 359.152344 178.574219 358.527344 178.140625 C 358.316406 177.996094 357.710938 178.292969 357.855469 177.742188 C 357.929688 177.449219 358.28125 176.9375 358.800781 177.152344 C 359.320312 177.371094 359.898438 177.210938 360.429688 177.496094 C 360.773438 177.675781 361.292969 177.703125 361.492188 177.058594 C 361.632812 176.613281 362.070312 176.1875 361.546875 175.769531 C 360.960938 175.308594 360.554688 174.386719 359.53125 174.832031 C 359.386719 174.890625 359.253906 175.058594 359.058594 174.871094 C 358.480469 174.351562 357.636719 173.941406 357.210938 174.101562 C 356.488281 174.378906 355.976562 174.152344 355.523438 173.621094 C 355.21875 173.269531 354.925781 173.117188 354.441406 173.382812 C 353.628906 173.847656 352.785156 174.359375 351.894531 173.441406 C 351.6875 173.222656 351.402344 173.335938 351.242188 173.628906 C 350.890625 174.292969 350.53125 174.054688 350.253906 173.59375 C 350.09375 173.308594 349.800781 173.164062 349.609375 173.222656 C 348.570312 173.574219 347.621094 172.851562 346.625 173.082031 C 346.484375 172.671875 347.109375 172.671875 346.921875 172.199219 C 346.542969 172.53125 345.632812 171.753906 345.660156 172.929688 C 345.660156 172.964844 345.386719 173.25 344.96875 173.210938 C 344.164062 173.128906 343.40625 172.4375 342.515625 172.957031 C 342.304688 173.082031 342.144531 172.765625 342.105469 172.53125 C 342.078125 172.359375 342.210938 172.179688 341.976562 172.039062 C 341.425781 171.695312 339.417969 172.113281 339.007812 172.691406 C 338.726562 171.175781 337.445312 171.972656 336.632812 171.695312 C 336.402344 171.621094 335.890625 171.535156 336.007812 172.160156 C 336.0625 172.4375 335.789062 172.445312 335.628906 172.378906 C 335.445312 172.3125 335.03125 172.304688 335.144531 172.085938 C 335.570312 171.261719 334.785156 171.59375 334.613281 171.574219 C 333.796875 171.480469 332.964844 171.449219 332.140625 171.421875 C 331.921875 171.414062 331.515625 171.480469 331.515625 171.527344 C 331.457031 172.671875 330.613281 171.867188 330.199219 172.066406 L 330.113281 171.992188 C 329.722656 172.539062 329.34375 171.992188 328.957031 171.972656 C 329.015625 170.976562 328.246094 171.316406 327.78125 171.289062 C 325.421875 171.167969 323.0625 170.988281 320.714844 171.242188 C 320.210938 171.300781 319.304688 170.597656 319.320312 171.886719 C 319.320312 171.972656 318.875 172.046875 318.808594 171.734375 C 318.574219 170.597656 317.882812 171.015625 317.425781 171.433594 C 317.027344 171.792969 316.632812 171.960938 316.15625 172 C 315.105469 172.085938 314.054688 172.027344 313.011719 171.867188 C 313.070312 171.480469 313.769531 171.800781 313.675781 171.289062 C 313.582031 170.789062 313.164062 170.578125 312.71875 170.417969 C 312.625 170.351562 312.527344 170.277344 312.433594 170.210938 C 312.394531 170.277344 312.367188 170.332031 312.339844 170.398438 C 312.207031 170.410156 312.074219 170.410156 311.941406 170.417969 C 311.820312 170.578125 311.6875 170.597656 311.523438 170.476562 C 311.449219 170.464844 311.375 170.457031 311.296875 170.445312 C 310.746094 170.351562 310.273438 170.503906 309.78125 170.757812 C 309.15625 171.089844 308.519531 171.441406 307.753906 171.355469 C 306.824219 171.25 305.886719 171.15625 304.960938 171.136719 C 304.464844 171.128906 303.886719 171.089844 303.660156 171.78125 C 303.566406 172.074219 303.207031 172.132812 302.921875 172.207031 C 302.589844 171.972656 303.167969 171.628906 302.800781 171.394531 C 302.515625 171.214844 300.390625 171.488281 300.363281 171.800781 C 300.25 172.957031 299.699219 172.132812 299.304688 172.171875 C 299.320312 171.734375 299.964844 172.027344 299.832031 171.515625 C 299.046875 171.367188 298.429688 171.6875 297.976562 172.246094 C 297.492188 172.105469 298.203125 171.628906 297.710938 171.554688 C 297.3125 171.648438 297.503906 172.132812 297.171875 172.246094 C 296.992188 172.066406 297.125 171.679688 296.765625 171.628906 C 296.488281 172.511719 295.164062 172.84375 294.566406 172.105469 C 294.082031 171.507812 293.894531 171.554688 293.390625 172.113281 C 293.078125 172.464844 292.378906 173.023438 291.960938 171.953125 C 291.761719 171.449219 291.042969 171.574219 290.746094 171.695312 C 290.09375 171.980469 291.203125 172.125 290.890625 172.53125 C 290.53125 172.351562 290.1875 172.113281 289.828125 171.941406 C 289.230469 171.660156 288.039062 171.535156 288.019531 172.007812 C 287.941406 173.667969 286.191406 172.191406 285.980469 173.277344 C 285.640625 172.425781 284.316406 173.402344 284.078125 172.238281 C 284.011719 171.933594 283.519531 171.960938 283.320312 172.246094 C 282.988281 172.71875 283.566406 172.617188 283.738281 172.785156 C 282.835938 173.183594 281.832031 172.578125 280.980469 173.070312 C 280.410156 173.402344 280.089844 173.34375 279.996094 172.652344 C 279.964844 172.464844 279.9375 172.257812 279.710938 172.21875 C 279.40625 172.179688 279.40625 172.398438 279.3125 172.625 C 279.046875 173.328125 278.527344 173.328125 278.164062 172.765625 C 277.589844 171.867188 277.132812 172.324219 276.679688 172.816406 C 276.335938 173.183594 275.902344 173.402344 275.484375 173.25 C 274.273438 172.84375 273.117188 173.070312 271.941406 173.375 C 271.734375 173.429688 271.496094 173.648438 271.324219 173.394531 C 271.058594 173.003906 271.789062 173.0625 271.628906 172.585938 C 271.335938 172.796875 270.691406 172.179688 270.746094 173.117188 C 270.777344 173.535156 270.492188 173.460938 270.21875 173.476562 C 269.65625 173.507812 269.097656 173.628906 268.53125 173.648438 C 267.308594 173.695312 266.066406 174.167969 264.96875 173.015625 C 264.589844 172.605469 263.207031 172.585938 263.128906 173.15625 C 262.96875 174.320312 262.742188 173.742188 262.316406 173.402344 C 261.824219 173.003906 259.644531 172.890625 259.578125 173.261719 C 259.425781 174.152344 258.753906 173.773438 258.316406 173.953125 C 257.796875 174.167969 257.085938 173.527344 257.019531 173.667969 C 256.59375 174.597656 255.742188 174 255.152344 174.292969 C 254.90625 174.417969 254.527344 174.300781 254.566406 173.847656 C 254.585938 173.675781 254.734375 173.460938 254.421875 173.421875 C 254.1875 173.394531 253.921875 173.46875 253.84375 173.695312 C 253.457031 174.925781 252.101562 174.558594 251.582031 174.511719 C 250.140625 174.40625 248.75 174.652344 247.335938 174.632812 C 245.585938 174.605469 243.832031 174.738281 242.089844 174.878906 C 241.1875 174.957031 240.242188 174.757812 239.433594 174.890625 C 238.308594 175.078125 237.359375 175.421875 236.554688 174.332031 C 236.515625 174.285156 236.035156 174.300781 236.214844 174.472656 C 236.925781 175.15625 235.988281 175.078125 235.890625 175.089844 C 234.109375 175.242188 232.339844 175.5625 230.546875 175.355469 C 230.035156 175.296875 229.582031 175.210938 229.375 175.875 C 229.269531 176.214844 228.898438 176.40625 228.683594 176.074219 C 228.085938 175.203125 227.402344 175.410156 226.671875 175.78125 C 226.472656 175.882812 226.285156 176.082031 226.132812 175.75 C 225.8125 175.097656 225.347656 175.390625 224.875 175.523438 C 223.6875 175.882812 222.476562 175.648438 221.28125 175.695312 C 219.84375 175.75 218.363281 175.402344 216.90625 176 C 216.566406 176.140625 215.777344 176.480469 215.304688 176.054688 C 214.660156 175.46875 214.09375 175.800781 213.484375 176.007812 C 213.371094 176.046875 213.210938 176.328125 213.152344 176.160156 C 212.878906 175.289062 212.121094 175.636719 211.5625 175.449219 C 210.964844 175.242188 210.453125 174.871094 210.8125 174.085938 C 210.898438 173.90625 210.945312 173.761719 210.890625 173.554688 C 210.386719 171.847656 210.871094 170.058594 210.472656 168.332031 C 210.453125 168.265625 210.578125 168.183594 210.632812 168.105469 C 210.851562 168.21875 210.644531 168.628906 211.324219 168.550781 C 210.632812 167.859375 212.167969 166.503906 210.253906 166.277344 C 210.152344 166.269531 209.980469 165.964844 210 165.8125 C 210.140625 164.621094 210.464844 163.425781 210.046875 162.214844 C 210.007812 162.101562 210.21875 161.890625 210.332031 161.75 C 210.738281 161.21875 210.84375 160.753906 210.152344 160.355469 C 209.960938 160.253906 209.707031 159.789062 210.113281 159.84375 C 211.191406 159.996094 210.597656 159.304688 210.511719 159.078125 C 210.285156 158.480469 209.953125 158.027344 210.398438 157.277344 C 210.746094 156.679688 210.234375 156.3125 209.316406 156.691406 C 210 155.78125 209.734375 154.957031 209.828125 154.1875 C 209.855469 153.933594 209.714844 153.476562 209.488281 153.582031 C 208.863281 153.855469 208.976562 153.410156 209.144531 153.230469 C 209.753906 152.570312 209.675781 152 209.144531 151.335938 C 209.003906 151.15625 208.9375 150.769531 209.03125 150.578125 C 209.554688 149.519531 208.898438 148.523438 208.910156 147.5 C 208.910156 147.140625 208.484375 146.808594 208.9375 146.136719 C 209.0625 147.300781 209.277344 148.183594 210.054688 148.902344 C 210.167969 148.332031 210.367188 147.984375 209.761719 147.441406 C 209.0625 146.816406 209.289062 145.632812 209.316406 144.800781 C 209.34375 144.097656 209.542969 143.226562 209.839844 142.449219 C 210.019531 141.976562 210.199219 141.125 209.820312 140.441406 C 209.144531 140.925781 209.847656 141.710938 209.210938 142.175781 C 208.785156 141.132812 208.976562 140.128906 209.136719 139.105469 C 209.601562 139.171875 209.175781 139.757812 209.789062 139.769531 C 209.921875 138.953125 210.046875 138.140625 209.734375 137.316406 C 209.640625 137.417969 209.621094 137.523438 209.621094 137.628906 C 209.621094 137.941406 209.582031 138.367188 209.230469 138.308594 C 208.738281 138.222656 208.917969 137.796875 209.078125 137.496094 C 209.261719 137.164062 209.136719 136.839844 209.109375 136.5 C 209.023438 135.515625 209.0625 134.53125 209.601562 133.667969 C 209.753906 133.421875 209.761719 133.261719 209.601562 133.082031 C 208.890625 132.246094 208.757812 131.300781 209.03125 130.226562 C 210.007812 130.683594 208.976562 131.828125 209.734375 132.371094 C 210.21875 130.9375 210.160156 129.402344 210.019531 128.105469 C 209.808594 126.257812 210.273438 124.441406 209.875 122.628906 C 209.839844 122.449219 209.90625 122.230469 209.640625 122.214844 C 209.222656 122.183594 209.515625 122.660156 209.277344 122.773438 C 208.964844 122.488281 209.230469 121.871094 208.664062 121.769531 C 209.175781 121.085938 209.210938 120.136719 209.328125 119.4375 C 209.554688 118.035156 209.144531 116.519531 208.929688 115.058594 C 208.824219 114.359375 208.453125 115.058594 208.152344 114.992188 C 208.351562 114.558594 208.386719 114.101562 208.207031 113.667969 C 208.160156 113.542969 208.019531 113.449219 207.894531 113.394531 C 207.859375 113.375 207.667969 113.523438 207.679688 113.574219 C 207.839844 114.691406 207.613281 115.789062 207.527344 116.898438 C 207.46875 117.714844 207.875 118.972656 207.59375 119.285156 C 206.644531 120.300781 207.101562 121.457031 206.796875 122.496094 C 206.671875 122.933594 206.75 123.238281 207.175781 123.425781 C 206.523438 124.164062 206.523438 124.175781 207.394531 124.476562 C 207.707031 124.582031 207.640625 124.835938 207.648438 125.035156 C 207.714844 126.03125 207.402344 127.054688 207.527344 127.992188 C 207.640625 128.875 206.324219 129.488281 207.242188 130.371094 C 207.203125 130.378906 207.136719 130.390625 207.136719 130.410156 C 206.929688 131.269531 206.703125 132.132812 206.863281 133.03125 C 207.035156 133.980469 207.316406 135.109375 207.183594 135.855469 C 206.882812 137.597656 206.902344 139.210938 207.234375 140.914062 C 207.382812 141.683594 207.8125 142.402344 207.628906 143.273438 C 207.554688 143.632812 206.902344 143.738281 207.195312 143.8125 C 208.074219 144.03125 206.75 145.09375 207.78125 145.101562 C 207.554688 146.503906 208.074219 147.925781 207.5625 149.328125 C 206.957031 150.988281 207.195312 152.703125 207.414062 154.398438 C 207.414062 154.425781 207.535156 154.433594 207.515625 154.425781 C 208.039062 154.351562 207.554688 153.847656 207.980469 153.6875 C 208.472656 154.785156 208.464844 155.800781 207.695312 156.785156 C 207.300781 157.296875 207.496094 157.609375 208.21875 157.636719 C 208.445312 157.648438 208.445312 157.769531 208.472656 157.902344 C 208.578125 158.421875 208.683594 158.945312 208.796875 159.53125 C 208.398438 159.371094 208.265625 159.179688 208.273438 158.867188 C 208.285156 158.652344 208.152344 158.5 207.914062 158.554688 C 207.746094 158.59375 207.726562 158.753906 207.726562 158.917969 C 207.714844 159.777344 207.6875 160.640625 207.714844 161.503906 C 207.726562 161.65625 207.496094 162.429688 208.171875 161.84375 C 208.351562 161.691406 208.386719 161.882812 208.4375 162.035156 C 208.605469 162.648438 208.851562 163.320312 208.644531 163.910156 C 208.492188 164.335938 208.3125 164.742188 208.71875 164.953125 C 209.402344 165.292969 208.84375 164.25 209.34375 164.269531 C 209.554688 165.199219 209.363281 165.9375 208.417969 166.304688 C 208.226562 166.382812 208.152344 166.429688 208.359375 166.582031 C 208.957031 167.007812 208.683594 167.539062 208.636719 168.105469 C 208.550781 169.035156 208.304688 169.945312 208.492188 170.921875 C 208.777344 172.417969 208.882812 173.941406 208.757812 175.46875 C 208.738281 175.65625 208.824219 175.902344 208.550781 175.867188 C 207.941406 175.789062 207.28125 175.769531 206.957031 175.078125 C 206.882812 174.910156 206.570312 174.699219 207.109375 174.765625 C 207.335938 174.796875 207.242188 174.464844 207.167969 174.3125 C 207.0625 174.113281 206.882812 173.960938 206.769531 173.761719 C 206.671875 173.601562 206.417969 173.363281 206.789062 173.230469 C 207.535156 172.976562 207.496094 173.761719 207.828125 174.046875 C 207.914062 174.121094 208 174.1875 208.152344 174.054688 C 208.046875 173.429688 208.046875 172.519531 207.414062 172.351562 C 206.445312 172.09375 206.550781 171.480469 206.484375 170.816406 C 206.410156 170.066406 206.292969 169.328125 206.21875 168.578125 C 205.953125 166.03125 205.632812 163.484375 205.460938 160.925781 C 205.367188 159.550781 205.441406 158.160156 205.59375 156.773438 C 205.679688 155.980469 205.535156 155.117188 205.414062 154.292969 C 205.367188 154.445312 205.328125 154.585938 205.28125 154.738281 C 205.355469 153.15625 205.207031 151.582031 205.1875 150.03125 C 205.167969 148.164062 204.683594 146.304688 204.777344 144.382812 C 204.882812 142.269531 204.417969 140.167969 204.65625 138.035156 C 204.863281 136.148438 204.191406 134.285156 204.324219 132.417969 C 204.542969 129.308594 204.5625 126.210938 204.457031 123.113281 C 204.324219 119.3125 204.589844 115.503906 204.265625 111.707031 C 204.019531 108.75 204.230469 105.785156 204.285156 102.820312 C 204.34375 99.957031 204.5625 97.097656 204.304688 94.226562 C 204.265625 93.800781 204.105469 93.382812 204.21875 92.898438 C 204.777344 90.503906 203.671875 88.097656 204.191406 85.679688 C 204.199219 85.625 204.152344 85.539062 204.105469 85.472656 C 203.652344 84.753906 203.8125 84.097656 204.371094 83.53125 C 204.511719 83.378906 204.609375 83.320312 204.464844 83.09375 C 203.851562 82.097656 204.066406 80.980469 203.972656 79.890625 C 203.804688 77.910156 204.503906 75.867188 203.605469 73.933594 C 204.285156 73.144531 203.945312 72.21875 203.953125 71.347656 C 203.984375 69.535156 204.066406 67.707031 203.871094 65.90625 C 203.726562 64.675781 203.671875 63.484375 203.71875 62.242188 C 203.765625 61.171875 204.351562 60.042969 203.917969 59.097656 C 203.507812 58.195312 204.265625 56.898438 202.960938 56.359375 C 202.914062 56.339844 202.902344 56.128906 202.941406 56.035156 C 203.425781 54.832031 202.894531 53.640625 202.894531 52.4375 C 202.894531 51.742188 203.253906 51.015625 203.140625 50.464844 C 202.75 48.664062 203.375 46.875 202.996094 45.101562 C 202.78125 44.058594 203.347656 42.941406 202.4375 41.9375 C 202.011719 41.464844 202.65625 40.582031 202.457031 39.863281 C 202.410156 39.703125 202.617188 39.703125 202.78125 39.691406 C 203.414062 39.664062 203.605469 39.332031 203.273438 38.746094 C 203.121094 38.480469 202.78125 38.195312 202.96875 37.960938 C 203.5 37.304688 203.054688 36.746094 202.929688 36.121094 C 202.882812 36.691406 202.523438 37.039062 202.210938 37.429688 C 201.964844 36.453125 201.878906 35.4375 201.671875 34.453125 C 201.445312 33.363281 200.742188 32.265625 201.253906 31.050781 C 201.332031 30.863281 201.28125 30.570312 201.035156 30.457031 C 200.800781 30.339844 200.769531 30.539062 200.667969 30.722656 C 200.449219 31.082031 200.296875 30.777344 200.25 30.589844 C 200.128906 30.066406 200.136719 29.527344 200.324219 29.023438 C 200.761719 27.851562 199.832031 26.847656 199.910156 25.707031 C 199.929688 25.492188 199.671875 25.625 199.550781 25.585938 C 198.582031 25.320312 198.421875 24.695312 198.742188 23.84375 C 198.859375 23.53125 199.074219 23.054688 198.648438 22.960938 C 198.15625 22.847656 198.261719 23.378906 198.242188 23.691406 C 198.128906 25.425781 198.675781 27.09375 198.761719 28.808594 C 198.78125 29.101562 199.007812 29.441406 198.59375 29.546875 C 198.25 29.632812 198.128906 29.347656 197.996094 29.023438 C 197.816406 28.589844 197.75 28.171875 197.769531 27.726562 C 197.777344 27.507812 197.9375 27.273438 197.597656 27.207031 C 196.574219 26.988281 196.640625 26.058594 196.640625 25.40625 C 196.640625 24.714844 196.546875 23.585938 196.761719 23.378906 C 197.523438 22.648438 197.132812 22.230469 196.726562 21.664062 C 196.601562 21.484375 196.421875 21.152344 196.5 21.046875 C 197.265625 19.996094 196.335938 19.445312 195.882812 18.71875 C 195.730469 18.925781 195.597656 19.105469 195.457031 19.277344 C 195.046875 19.769531 194.261719 20.082031 194.554688 20.90625 C 194.8125 21.617188 194.519531 22.316406 194.6875 23.039062 C 194.820312 23.597656 195.542969 23.140625 195.511719 23.652344 C 195.464844 24.5625 195.929688 25.453125 195.617188 26.449219 C 195.078125 25.726562 195.75 24.753906 195 24.125 C 194.367188 27.074219 195.351562 29.980469 195.058594 33.011719 C 194.832031 32.84375 194.785156 32.824219 194.773438 32.804688 C 194.667969 31.761719 195.410156 30.550781 194.101562 29.753906 C 193.960938 29.667969 193.921875 29.222656 194.28125 29.109375 C 194.621094 29.007812 194.726562 28.777344 194.539062 28.523438 C 194.328125 28.238281 194.0625 28.476562 193.828125 28.570312 C 193.304688 28.769531 193.398438 29.367188 192.945312 29.925781 C 193.304688 27.109375 192.945312 24.65625 191.808594 22.242188 C 190.957031 23.777344 190.957031 23.777344 190.378906 23.140625 C 190.121094 24.648438 189.542969 26.183594 189.695312 27.640625 C 189.886719 29.554688 189.65625 31.429688 189.761719 33.316406 C 189.839844 34.726562 189.742188 34.824219 188.570312 35.582031 C 188.605469 34.085938 188.253906 32.632812 188.3125 31.128906 C 188.386719 29.136719 188.359375 27.128906 188.085938 25.140625 C 188.039062 24.808594 187.925781 24.78125 187.660156 24.816406 C 187.402344 24.847656 187.117188 24.761719 187.25 25.234375 C 187.441406 25.890625 187.328125 26.5625 187.28125 27.242188 C 187.222656 28.050781 187.195312 28.976562 187.546875 29.660156 C 188 30.539062 187.394531 31.109375 187.460938 31.828125 C 187.070312 31.527344 187.347656 31.109375 187.183594 30.851562 C 186.902344 30.417969 186.902344 29.527344 186.21875 29.660156 C 185.488281 29.800781 185.460938 30.589844 185.519531 31.261719 C 185.527344 31.363281 185.566406 31.488281 185.632812 31.574219 C 186.199219 32.453125 185.015625 33.441406 185.800781 34.3125 C 184.996094 35.269531 185.082031 36.414062 185.082031 37.550781 C 185.082031 37.882812 185.167969 38.367188 184.675781 38.289062 C 184.332031 38.242188 184.4375 37.761719 184.523438 37.503906 C 184.816406 36.640625 184.75 35.929688 184.085938 35.222656 C 183.671875 34.777344 183.453125 34.199219 183.851562 33.46875 C 184.570312 32.152344 183.519531 31.023438 183.167969 29.839844 C 183.09375 29.574219 182.996094 29.269531 182.921875 28.976562 C 182.855469 28.730469 182.46875 28.4375 182.402344 28.777344 C 182.296875 29.335938 181.625 29.667969 181.859375 30.304688 C 182.070312 30.871094 182.503906 30.472656 182.828125 30.53125 C 182.960938 30.550781 183.09375 30.65625 183.175781 30.757812 C 183.214844 30.804688 183.128906 31.023438 183.101562 31.035156 C 182.535156 31.0625 181.9375 31.167969 181.40625 31.035156 C 181.121094 30.957031 181.332031 30.417969 181.292969 30.09375 C 181.246094 29.621094 181.605469 29.175781 181.566406 28.796875 C 181.425781 27.328125 181.132812 25.878906 180.886719 24.421875 C 180.835938 24.125 181.035156 23.730469 180.515625 23.53125 C 180.125 24.609375 180.136719 25.726562 179.9375 26.835938 C 178.921875 26.515625 179.605469 25.066406 178.46875 24.835938 C 178.289062 27.09375 178.734375 29.347656 178.222656 31.601562 C 177.917969 29.90625 178.117188 28.144531 177.40625 26.371094 C 177.140625 27.082031 177.160156 27.660156 177.238281 28.304688 C 177.40625 29.8125 177.578125 31.429688 176.707031 32.710938 C 176.070312 33.628906 176.148438 34.480469 176.121094 35.429688 C 176.054688 37.710938 176.308594 40.035156 175.855469 42.28125 C 175.757812 42.773438 175.683594 43.253906 175.625 43.738281 C 175.476562 42.621094 175.277344 41.511719 175.085938 40.402344 C 175.039062 40.109375 175.238281 39.710938 174.71875 39.511719 C 174.328125 40.59375 174.339844 41.710938 174.140625 42.820312 C 173.125 42.496094 173.808594 41.046875 172.671875 40.820312 C 172.492188 43.074219 172.9375 45.332031 172.425781 47.585938 C 172.121094 45.890625 172.320312 44.125 171.609375 42.355469 C 171.34375 43.066406 171.363281 43.644531 171.4375 44.289062 C 171.609375 45.792969 171.78125 47.414062 170.910156 48.695312 C 170.273438 49.613281 170.347656 50.464844 170.320312 51.414062 C 170.253906 53.695312 170.511719 56.015625 170.054688 58.261719 C 169.828125 59.378906 169.707031 60.480469 169.667969 61.605469 C 169.628906 62.628906 169.488281 63.632812 169.296875 64.628906 C 169.230469 64.96875 169.375 65.472656 168.652344 65.339844 C 168.292969 65.273438 168.464844 65.757812 168.40625 65.984375 C 168.332031 66.257812 168.445312 66.257812 168.738281 66.316406 C 169.363281 66.4375 169.601562 66.996094 169.6875 67.660156 C 169.402344 67.546875 169.476562 67.195312 169.175781 67.175781 C 168.949219 67.339844 168.984375 67.59375 169.023438 67.792969 C 169.335938 69.585938 168.996094 71.269531 168.644531 73.042969 C 168.21875 75.203125 168.332031 77.457031 168.21875 79.675781 C 168.199219 80.035156 168.605469 80.328125 168.351562 80.746094 C 167.714844 81.769531 167.941406 82.953125 168.1875 83.945312 C 168.765625 86.304688 167.980469 88.449219 167.601562 90.789062 C 167.136719 90.277344 167.648438 89.765625 167.289062 89.402344 C 166.511719 90.132812 166.578125 90.835938 167.441406 91.421875 C 167.574219 91.515625 167.726562 91.847656 167.679688 91.894531 C 166.96875 92.664062 167.582031 93.460938 167.648438 94.207031 C 167.753906 95.316406 167.394531 96.386719 167.480469 97.484375 C 166.921875 97.21875 167.648438 96.492188 166.804688 96.140625 C 166.332031 99.523438 166.199219 102.839844 166.246094 106.164062 C 166.691406 105.84375 166.710938 105.414062 166.691406 105.019531 C 166.671875 104.488281 166.550781 103.957031 167.003906 103.53125 C 167.101562 103.644531 167.28125 103.757812 167.28125 103.871094 C 167.242188 105.300781 167.375 106.761719 166.84375 108.152344 C 166.664062 108.003906 166.671875 107.671875 166.390625 107.679688 C 166.066406 107.6875 166.078125 107.992188 166.09375 108.191406 C 166.199219 109.347656 165.925781 110.476562 165.847656 111.621094 C 165.839844 111.800781 165.898438 111.980469 165.914062 112.140625 C 166.910156 111.859375 166.4375 110.835938 167.0625 109.980469 C 166.9375 111.460938 166.816406 112.585938 166.957031 113.675781 C 166.410156 113.847656 166.644531 113.082031 166.210938 113.269531 C 165.945312 113.382812 165.839844 113.648438 165.820312 113.921875 C 165.78125 114.351562 166.019531 114.367188 166.390625 114.378906 C 166.691406 114.386719 166.671875 114.578125 166.304688 114.832031 C 165.933594 115.097656 165.574219 117.363281 165.847656 117.636719 C 166.191406 117.976562 166.324219 117.285156 166.578125 117.476562 C 166.976562 117.769531 166.605469 120.035156 166.144531 120.234375 C 165.601562 120.46875 165.519531 121.011719 166.011719 121.105469 C 166.816406 121.265625 166.445312 121.722656 166.457031 122.082031 C 166.484375 122.828125 166.511719 123.585938 166.457031 124.335938 C 166.359375 125.679688 166.703125 127.054688 166.332031 128.4375 C 165.953125 128.144531 166.484375 127.472656 165.832031 127.507812 C 165.402344 127.539062 165.546875 128.03125 165.453125 128.332031 C 165.242188 129.007812 165.414062 129.667969 165.355469 130.332031 C 164.949219 134.671875 165.394531 139.019531 165.128906 143.359375 C 165.109375 143.617188 165.007812 143.964844 165.421875 143.945312 C 165.746094 143.929688 165.90625 143.699219 165.859375 143.304688 C 165.800781 142.714844 165.839844 142.109375 165.839844 141.425781 C 166.597656 142.449219 166.398438 143.929688 165.46875 144.601562 C 165.167969 144.820312 165.140625 145.121094 165.242188 145.40625 C 165.574219 146.257812 165.234375 147.3125 166.066406 148.03125 C 166.4375 148.351562 166.304688 148.863281 166.304688 149.320312 C 166.304688 150.675781 166.246094 152.027344 166.210938 153.375 C 166.160156 154.957031 166.558594 156.566406 166.046875 158.140625 C 165.453125 158.347656 165.289062 158.804688 165.1875 159.398438 C 165.035156 160.269531 165.621094 160.992188 165.527344 161.816406 C 165.203125 164.589844 165.460938 167.339844 165.746094 170.097656 C 165.800781 170.609375 165.519531 171.195312 166 171.679688 C 166.722656 171.136719 166.34375 170.257812 166.769531 169.679688 C 166.929688 171.800781 167.101562 173.914062 167.261719 176.035156 C 167.148438 176.046875 167.023438 176.066406 166.910156 176.09375 C 166.863281 175.753906 166.816406 175.402344 166.769531 175.058594 C 166.738281 174.84375 166.757812 174.519531 166.484375 174.519531 C 166.144531 174.519531 166.191406 174.832031 166.152344 175.109375 C 166.085938 175.554688 166.078125 175.988281 166.085938 176.433594 C 165.992188 176.492188 165.898438 176.546875 165.8125 176.625 C 165.46875 176.292969 165.148438 175.46875 164.464844 176.054688 C 163.984375 176.472656 163.707031 176.3125 163.300781 176.054688 C 162.351562 175.457031 161.320312 175.703125 160.296875 175.789062 C 159.976562 175.820312 160.078125 176.414062 159.339844 176.101562 C 158.429688 175.714844 157.046875 175.269531 156.0625 176.425781 C 155.703125 176.851562 155.503906 176.234375 155.191406 176.234375 C 155.058594 176.234375 155.097656 175.789062 154.785156 175.78125 C 153.582031 175.714844 152.425781 176.148438 151.171875 176.035156 C 150.007812 175.933594 148.816406 176.679688 147.582031 176.082031 C 147.195312 175.894531 147.136719 176.3125 146.957031 176.546875 C 146.578125 177.058594 146.179688 177.335938 145.90625 176.414062 C 145.800781 176.066406 145.554688 175.363281 145.121094 175.789062 C 144.078125 176.792969 142.988281 176.347656 142.03125 175.941406 C 140.980469 175.488281 140.714844 175.902344 140.601562 176.792969 C 140.25 176.660156 140.515625 176.09375 139.929688 176.148438 C 138.90625 176.246094 138.042969 176.878906 136.828125 176.613281 C 136.082031 176.453125 135.011719 176.832031 134.15625 176.519531 C 132.90625 176.074219 131.636719 177.382812 130.445312 176.367188 C 130.433594 176.359375 130.339844 176.460938 130.273438 176.5 C 129.847656 176.757812 129.375 176.613281 128.957031 176.671875 C 128.492188 176.726562 127.5625 175.742188 127.46875 176.957031 C 126.589844 176.804688 125.933594 175.894531 124.910156 176.148438 C 124.417969 176.273438 123.972656 176.613281 123.488281 176.8125 C 123.367188 176.859375 123.167969 177.230469 123.109375 176.957031 C 122.894531 175.894531 122.523438 176.8125 122.210938 176.832031 C 121.765625 176.859375 121.347656 177.011719 120.914062 177.070312 C 120.042969 177.171875 118.980469 176.578125 118.355469 177.648438 C 117.996094 177.34375 118.261719 176.925781 118.082031 176.726562 C 116.941406 176.699219 116.042969 178.621094 114.800781 176.925781 C 114.640625 176.699219 114.195312 176.71875 113.855469 176.957031 C 114.042969 177.03125 114.207031 177.097656 114.453125 177.203125 C 113.664062 177.296875 112.964844 177.410156 112.386719 177.894531 C 112.226562 178.027344 112.046875 178.042969 111.789062 177.910156 C 110.984375 177.515625 110.09375 177.382812 109.277344 177.828125 C 108.863281 178.054688 108.664062 177.835938 108.320312 177.75 C 107.507812 177.550781 106.683594 176.824219 105.792969 177.515625 C 104.769531 178.308594 104.703125 178.300781 104.257812 177.125 C 103.851562 177.390625 102.929688 177.484375 104.125 178.339844 C 103.632812 178.1875 103.40625 178.042969 103.207031 178.082031 C 102.398438 178.234375 101.546875 179.324219 100.867188 177.902344 C 100.855469 177.894531 100.789062 177.902344 100.761719 177.914062 C 99.578125 178.527344 98.355469 178.632812 97.027344 178.5 C 96.402344 178.433594 95.777344 179.171875 95.019531 178.6875 C 94.898438 178.613281 94.726562 178.867188 94.660156 179.058594 C 94.621094 179.152344 94.632812 179.445312 94.433594 179.183594 C 93.769531 178.292969 93.066406 179.117188 92.394531 179.117188 C 91.75 179.117188 91.050781 179.199219 90.480469 178.972656 C 90.1875 178.859375 90.253906 178.6875 89.808594 178.898438 C 88.929688 179.304688 87.875 179.464844 86.882812 179.496094 C 86.078125 179.511719 85.347656 179.464844 84.710938 180.070312 C 84.4375 180.328125 84.132812 180.488281 83.785156 180.0625 C 83.167969 179.324219 82.808594 179.570312 82.75 180.527344 C 82.398438 180.195312 82.191406 179.988281 81.691406 179.988281 C 80.875 179.976562 80.222656 180.453125 79.511719 180.5 C 78.542969 180.566406 77.472656 179.683594 76.660156 180.90625 C 76.640625 180.933594 76.460938 180.886719 76.355469 180.839844 C 75.625 180.546875 74.898438 180.195312 74.222656 180.953125 C 74.175781 181 73.996094 181.011719 73.941406 180.960938 C 72.992188 180.214844 71.929688 180.867188 71.058594 181 C 70.140625 181.132812 68.878906 180.820312 68.199219 181.910156 C 68.179688 181.949219 68.054688 181.957031 68 181.9375 C 66.96875 181.464844 65.847656 181.597656 64.835938 181.796875 C 64.113281 181.9375 62.894531 181.339844 62.742188 182.941406 C 62.398438 182.527344 62.285156 181.757812 62.105469 181.984375 C 61.613281 182.621094 61.261719 182.050781 60.894531 182.101562 C 60.15625 182.183594 59.425781 182.527344 58.667969 182.714844 C 57.917969 182.90625 56.972656 182.023438 56.421875 183.121094 C 56.402344 183.09375 56.375 183.039062 56.355469 183.039062 C 54.707031 182.894531 53.03125 182.839844 51.484375 183.484375 C 50.253906 183.996094 48.832031 183.320312 47.714844 184.222656 C 47.34375 183.3125 47.050781 184.144531 46.730469 184.261719 C 46.519531 184.335938 46.285156 184.523438 46.105469 184.476562 C 45.546875 184.335938 44.871094 183.671875 44.710938 184.886719 C 44.710938 184.902344 44.398438 184.941406 44.3125 184.867188 C 43.074219 183.890625 42.097656 184.46875 41.160156 185.367188 C 40.980469 185.546875 40.769531 185.625 40.628906 185.3125 C 40.371094 184.722656 40.15625 184.523438 39.945312 185.339844 C 39.851562 185.71875 39.605469 185.992188 39.234375 185.566406 C 38.628906 184.867188 38.175781 185.027344 37.796875 185.777344 C 37.652344 186.050781 37.40625 186.15625 37.132812 186.078125 C 36.828125 185.992188 37.207031 185.652344 36.941406 185.511719 C 36.460938 185.652344 36.128906 186.882812 35.417969 185.765625 C 35.378906 185.710938 35.09375 185.738281 35 185.8125 C 34.082031 186.523438 33.066406 186.570312 31.941406 186.542969 C 31.597656 186.535156 31.105469 186.335938 30.679688 186.542969 C 29.808594 186.96875 28.671875 186.828125 27.953125 187.320312 C 27.089844 187.90625 26.238281 187.804688 25.382812 187.992188 C 25.347656 188.003906 25.328125 188.117188 25.300781 188.199219 C 25.566406 188.484375 25.914062 188.390625 26.246094 188.4375 C 26.371094 188.457031 26.492188 188.597656 26.570312 188.722656 C 26.671875 188.882812 26.550781 189.0625 26.417969 189.082031 C 24.988281 189.242188 24.511719 190.484375 23.753906 191.402344 C 23.546875 191.660156 23.394531 191.914062 23.554688 192.21875 C 23.945312 192.9375 24.152344 193.289062 23.195312 194.027344 C 22.332031 194.699219 21.925781 194.851562 21.035156 194.398438 C 20.371094 194.054688 19.558594 193.707031 19.359375 194.976562 C 19.332031 195.164062 17.359375 195.324219 17.386719 195.242188 C 17.566406 194.558594 17.105469 194.710938 16.78125 194.746094 C 15.292969 194.957031 14.1875 195.941406 12.925781 196.625 C 12.585938 196.804688 12.605469 197.097656 12.652344 197.410156 C 12.707031 197.761719 12.984375 197.769531 13.246094 197.808594 C 13.941406 197.902344 14.601562 197.722656 15.265625 197.582031 C 15.757812 197.476562 16.261719 197.597656 16.109375 198.121094 C 15.824219 199.097656 16.828125 199.683594 16.6875 200.574219 C 16.648438 200.792969 16.847656 200.90625 17.054688 200.90625 C 17.246094 200.90625 17.511719 200.898438 17.464844 200.660156 C 17.238281 199.542969 18.675781 200.574219 18.640625 199.730469 C 18.855469 200.054688 19.367188 199.949219 19.519531 200.46875 C 19.644531 200.886719 20.050781 201.226562 20.335938 201.605469 C 20.550781 201.371094 20.269531 200.933594 20.722656 200.847656 C 21.253906 201.550781 21.253906 202.109375 20.335938 202.507812 C 19.917969 202.6875 19.472656 203.066406 19.546875 203.503906 C 19.585938 203.730469 19.757812 203.84375 19.976562 203.898438 C 19.84375 203.917969 19.71875 203.9375 19.585938 203.964844 C 19.546875 203.976562 19.53125 204.089844 19.5 204.175781 C 19.765625 204.457031 20.117188 204.363281 20.449219 204.410156 C 20.523438 204.421875 20.589844 204.476562 20.65625 204.554688 C 18.507812 204.648438 16.582031 205.878906 14.421875 205.644531 C 14.402344 206.390625 15 207.574219 15.125 207.441406 C 15.65625 206.816406 16.515625 207.441406 17.039062 206.808594 C 17.464844 206.289062 17.996094 206.144531 18.476562 206.667969 C 18.308594 206.914062 18.136719 207.148438 17.957031 207.378906 C 17.75 207.632812 17.597656 207.886719 17.757812 208.191406 C 17.785156 208.25 17.816406 208.296875 17.84375 208.34375 C 17.738281 208.316406 17.625 208.238281 17.511719 208.039062 C 17.253906 208.304688 16.894531 208.523438 16.761719 208.835938 C 16.554688 209.339844 16.554688 209.90625 16.820312 210.410156 C 16.296875 210.710938 15.902344 210.722656 15.238281 210.378906 C 14.574219 210.039062 13.757812 209.6875 13.5625 210.957031 C 13.53125 211.148438 11.5625 211.308594 11.589844 211.222656 C 11.769531 210.542969 11.304688 210.691406 10.984375 210.730469 C 9.496094 210.9375 8.386719 211.925781 7.128906 212.605469 C 6.785156 212.785156 6.804688 213.082031 6.851562 213.394531 C 6.910156 213.742188 7.183594 213.753906 7.449219 213.789062 C 8.140625 213.886719 8.804688 213.707031 9.46875 213.5625 C 9.960938 213.460938 10.460938 213.582031 10.3125 214.105469 C 10.027344 215.078125 11.03125 215.667969 10.890625 216.558594 C 10.851562 216.773438 11.050781 216.890625 11.257812 216.890625 C 11.449219 216.890625 11.714844 216.878906 11.664062 216.644531 C 11.4375 215.523438 12.878906 216.558594 12.839844 215.714844 C 13.058594 216.035156 13.570312 215.933594 13.722656 216.453125 C 13.84375 216.871094 14.253906 217.210938 14.535156 217.589844 C 14.753906 217.351562 14.46875 216.917969 14.925781 216.832031 C 15.457031 217.535156 15.457031 218.09375 14.535156 218.488281 C 14.121094 218.671875 13.675781 219.050781 13.75 219.484375 C 13.816406 219.921875 14.375 219.949219 14.800781 219.941406 C 14.820312 219.855469 14.839844 219.777344 14.859375 219.695312 C 14.859375 219.589844 14.867188 219.496094 14.867188 219.390625 C 14.886719 219.34375 14.914062 219.296875 14.960938 219.265625 C 15.691406 219.410156 15.339844 220.121094 15.703125 220.546875 C 13.191406 220.269531 11.058594 221.882812 8.625 221.617188 C 8.605469 222.363281 9.203125 223.550781 9.324219 223.417969 C 9.855469 222.792969 10.71875 223.417969 11.238281 222.78125 C 11.714844 222.203125 12.308594 222.089844 12.832031 222.820312 C 12.933594 222.960938 13.125 223.039062 13.246094 223.171875 C 13.417969 223.351562 13.675781 222.59375 13.710938 223.1875 C 13.730469 223.492188 13.636719 224.175781 13.171875 223.964844 C 12.613281 223.71875 12.1875 224.847656 11.703125 224.011719 C 11.449219 224.277344 11.085938 224.496094 10.957031 224.808594 C 10.738281 225.339844 10.738281 225.9375 11.039062 226.449219 C 11.238281 226.789062 11.789062 226.601562 11.847656 226.515625 C 12.242188 225.917969 12.992188 226.355469 13.132812 226.410156 C 14.515625 226.960938 14.488281 226.980469 15.738281 226.75 C 16.429688 226.628906 16.90625 226.304688 17.179688 225.652344 C 17.484375 226.136719 19.140625 226.628906 19.292969 226.257812 C 19.585938 225.539062 19.878906 225.71875 20.371094 225.984375 C 20.589844 226.109375 20.929688 226.003906 21.433594 226.003906 C 20.636719 226.390625 20.46875 226.847656 20.902344 227.433594 C 20.929688 227.472656 21.027344 227.460938 21.09375 227.480469 C 21.386719 227.347656 21.007812 226.742188 21.59375 226.78125 C 21.574219 226.914062 21.566406 227.027344 21.539062 227.128906 C 21.339844 228.019531 22.03125 229.167969 22.910156 229.375 C 23.140625 229.433594 23.441406 229.613281 23.546875 229.1875 C 23.6875 228.636719 24.097656 228.457031 24.675781 228.609375 C 25.746094 228.882812 26.929688 229.785156 27.667969 228.070312 C 27.761719 227.859375 28.160156 227.851562 28.40625 227.953125 C 28.730469 228.097656 29.050781 228.105469 29.382812 228.144531 C 30.605469 228.296875 31.78125 227.71875 32.867188 227.757812 C 34.015625 227.804688 35.179688 227.613281 36.289062 227.59375 C 39.851562 227.527344 43.40625 226.894531 46.976562 226.609375 C 48.738281 226.46875 50.445312 226.050781 52.1875 225.851562 C 54.269531 225.613281 56.375 225.566406 58.46875 225.351562 C 60.335938 225.160156 62.183594 224.628906 64.039062 224.640625 C 67.496094 224.65625 70.878906 224.003906 74.300781 223.75 C 75.789062 223.636719 77.359375 223.863281 78.714844 222.972656 C 78.789062 222.925781 78.953125 222.953125 79.035156 223 C 80.289062 223.683594 81.625 223.171875 82.894531 223.171875 C 85.695312 223.160156 88.5 222.925781 91.285156 222.621094 C 93.710938 222.355469 96.167969 222.117188 98.5625 222.023438 C 100.535156 221.949219 102.542969 221.605469 104.542969 221.890625 C 104.808594 221.929688 105.042969 221.890625 105.308594 221.816406 C 106.683594 221.410156 108.152344 221.304688 109.535156 221.371094 C 110.925781 221.4375 112.328125 221.503906 113.617188 221.152344 C 114.375 220.945312 114.621094 221.597656 115.285156 221.484375 C 117.472656 221.113281 119.691406 220.640625 121.890625 221.503906 C 122.085938 221.578125 122.335938 221.550781 122.5625 221.550781 C 124.789062 221.550781 127.015625 221.503906 129.164062 220.867188 C 129.675781 220.71875 130.09375 221.03125 130.585938 220.878906 C 131.875 220.46875 133.230469 220.59375 134.535156 220.585938 C 135.503906 220.585938 136.496094 220.46875 137.472656 220.652344 C 137.9375 220.734375 138.46875 220.980469 138.90625 220.734375 C 139.890625 220.195312 141.027344 220.421875 142.011719 220.386719 C 142.730469 220.355469 143.6875 220.320312 144.589844 220.660156 C 145.667969 221.066406 147.042969 220.660156 148.292969 220.652344 C 150.519531 220.621094 152.753906 220.652344 154.980469 220.59375 C 155.65625 220.574219 156.300781 220.753906 156.945312 220.71875 C 158.070312 220.652344 159.167969 219.910156 160.316406 220.6875 C 160.410156 220.753906 160.65625 220.734375 160.753906 220.660156 C 162.011719 219.730469 163.539062 220.261719 164.769531 220.367188 C 166.464844 220.5 168.140625 220.5 169.828125 220.421875 C 170.132812 220.414062 170.132812 220.507812 170.140625 220.714844 C 170.160156 221.617188 170.414062 222.480469 170.398438 223.398438 C 170.367188 224.640625 170.53125 225.878906 170.671875 227.113281 C 170.699219 227.367188 170.632812 227.917969 171.117188 227.871094 C 171.457031 227.832031 171.648438 227.492188 171.609375 227.082031 C 171.601562 226.96875 171.515625 226.78125 171.816406 226.789062 C 171.828125 227.878906 172.09375 228.96875 171.78125 230.058594 C 171.550781 229.605469 171.542969 229.121094 171.570312 228.628906 C 171.582031 228.476562 171.535156 228.296875 171.355469 228.296875 C 171.222656 228.296875 171.058594 228.382812 170.976562 228.476562 C 170.746094 228.722656 170.832031 229.035156 170.84375 229.339844 C 170.871094 230.988281 171.191406 232.617188 171.089844 234.273438 C 171.070312 234.578125 170.890625 235.0625 171.402344 235.070312 C 171.816406 235.078125 171.835938 234.625 171.847656 234.285156 C 171.855469 234.019531 171.816406 233.753906 171.835938 233.496094 C 171.921875 232.417969 171.429688 231.347656 171.761719 230.257812 C 172.414062 231.59375 172.035156 233.042969 172.207031 234.433594 C 172.253906 234.796875 172.460938 235.34375 172.046875 235.476562 C 171.105469 235.78125 171.316406 236.519531 171.269531 237.15625 C 171.15625 238.9375 171.316406 240.707031 171.503906 242.480469 C 171.523438 242.6875 171.449219 243 171.742188 243.027344 C 172.082031 243.066406 172.179688 242.753906 172.1875 242.488281 C 172.214844 241.84375 172.195312 241.210938 172.195312 240.566406 C 172.359375 241.863281 172.984375 243.125 172.652344 244.515625 C 172.234375 244.203125 171.589844 243.578125 171.582031 244.554688 C 171.550781 246.914062 171.734375 249.273438 171.875 251.632812 C 171.894531 251.867188 171.75 252.445312 172.308594 252.339844 C 172.792969 252.257812 172.671875 251.828125 172.6875 251.433594 C 172.726562 250.808594 172.359375 250.105469 172.984375 249.527344 C 173.210938 251.773438 173.238281 254.007812 173.191406 256.234375 C 173.183594 256.679688 173.683594 257.636719 172.460938 257.410156 C 172.40625 257.402344 172.226562 257.667969 172.242188 257.769531 C 172.480469 258.679688 172.121094 259.5625 172.140625 260.46875 C 172.214844 263.964844 172.71875 267.433594 172.625 270.9375 C 172.613281 271.148438 172.566406 271.414062 172.898438 271.449219 C 173.390625 271.253906 173.21875 270.644531 173.636719 270.265625 C 173.636719 271.222656 173.636719 272.078125 173.636719 273.117188 C 173.496094 272.871094 173.429688 272.785156 173.390625 272.691406 C 173.296875 272.4375 173.542969 271.972656 173.097656 271.953125 C 172.660156 271.945312 172.640625 272.371094 172.640625 272.71875 C 172.640625 272.949219 172.585938 273.195312 172.671875 273.402344 C 173.105469 274.539062 172.832031 275.742188 172.917969 276.898438 C 173.097656 279.21875 173.019531 279.183594 174.042969 280.820312 C 174.367188 281.34375 174.535156 282.421875 173.75 282.875 C 172.699219 283.492188 172.851562 284.402344 173.164062 285.152344 C 173.644531 286.316406 173.464844 287.386719 173.332031 288.5625 C 173.171875 289.972656 172.839844 291.460938 173.578125 292.851562 C 174.089844 292.617188 173.902344 292.066406 174.355469 291.601562 C 174.355469 293.773438 174.328125 295.714844 174.367188 297.648438 C 174.386719 298.375 174.507812 299.050781 173.769531 299.5625 C 173.390625 299.828125 173.265625 300.367188 173.351562 300.8125 C 173.570312 301.96875 173.578125 303.132812 173.523438 304.296875 C 173.515625 304.515625 173.410156 304.921875 173.855469 304.855469 C 174.148438 304.808594 174.207031 304.535156 174.214844 304.230469 C 174.234375 303.636719 174.308594 303.027344 174.355469 302.433594 C 174.414062 302.441406 174.460938 302.441406 174.519531 302.449219 C 174.519531 303.539062 174.519531 304.628906 174.519531 305.871094 C 174.167969 305.246094 173.855469 305.09375 173.617188 305.730469 C 173.503906 306.03125 173.515625 306.402344 173.523438 306.734375 C 173.597656 310.164062 173.703125 313.582031 173.769531 317.011719 C 173.816406 319.316406 173.796875 321.617188 173.816406 323.917969 C 173.816406 324.554688 173.894531 325.101562 174.898438 324.59375 C 173.941406 325.113281 173.75 325.945312 173.816406 326.695312 C 173.976562 328.390625 173.863281 330.078125 173.835938 331.765625 C 173.816406 333.515625 173.722656 335.289062 173.070312 336.964844 C 172.984375 337.191406 172.605469 337.4375 172.917969 337.648438 C 173.238281 337.863281 173.542969 337.601562 173.777344 337.324219 C 174.089844 336.964844 173.921875 336.347656 174.375 336.035156 C 174.792969 336.367188 174.261719 336.910156 174.726562 337.183594 C 175.304688 337.523438 174.640625 337.960938 174.800781 338.347656 C 174.980469 338.785156 174.015625 339.019531 174.402344 339.164062 C 175.359375 339.523438 174.460938 339.863281 174.460938 340.15625 C 175.058594 340.601562 175.703125 339.902344 176.242188 340.335938 C 176.8125 340.8125 176.421875 341.550781 176.707031 342.109375 C 177.484375 341.949219 177.550781 341.246094 177.882812 340.507812 C 177.910156 340.859375 177.984375 341.085938 177.929688 341.132812 C 177.53125 341.417969 178.675781 342.433594 177.332031 342.335938 C 177.066406 342.316406 177.644531 342.820312 177.636719 343.246094 C 177.617188 344.582031 178.0625 345.890625 177.851562 347.386719 C 178.515625 346.800781 178.933594 346.734375 179.1875 347.492188 C 179.246094 347.660156 179.207031 347.972656 179.417969 347.964844 C 180.277344 347.917969 180.03125 348.449219 179.871094 348.847656 C 179.765625 349.109375 179.597656 349.289062 179.917969 349.5 C 180.230469 349.707031 180.609375 350.105469 180.921875 349.851562 C 181.992188 348.96875 182.070312 349.917969 182.296875 350.542969 C 182.589844 351.328125 183.375 351.574219 183.964844 351.960938 C 184.34375 352.21875 184.3125 351.253906 184.824219 351.054688 C 185.195312 352.292969 185.765625 351.800781 186.445312 351.320312 C 187.035156 350.902344 187.101562 350.417969 187.070312 349.785156 C 187.015625 348.65625 187.839844 347.792969 188.566406 348.296875 C 189.488281 348.921875 191.289062 348.5625 191.03125 350.445312 C 191.535156 350.324219 191.15625 349.753906 191.703125 349.753906 C 191.769531 351.015625 191.835938 352.273438 191.902344 353.574219 C 192.308594 353.480469 192.339844 352.703125 192.839844 353.167969 C 193.085938 353.402344 193.464844 353.554688 193.125 354.105469 C 192.886719 354.492188 193.152344 355.070312 193.390625 355.574219 C 193.75 355.183594 193.324219 354.378906 194.1875 354.472656 C 194.679688 354.53125 194.925781 354.824219 195.011719 355.269531 C 195.066406 355.582031 194.820312 356.085938 195.265625 356.132812 C 195.738281 356.179688 195.636719 355.5625 195.816406 355.261719 C 195.949219 355.03125 195.890625 354.699219 195.921875 354.371094 C 196.15625 354.664062 196.203125 355.164062 196.574219 355.136719 C 197.445312 355.0625 197.929688 354.304688 198.574219 353.714844 C 198.667969 353.960938 198.753906 354.09375 198.773438 354.226562 C 198.855469 354.910156 199.433594 355.0625 199.917969 355.144531 C 200.570312 355.25 200.421875 354.566406 200.488281 354.246094 C 200.695312 353.164062 201.839844 352.464844 201.632812 351.214844 C 201.558594 350.777344 202.316406 350.503906 202.371094 350.511719 C 203.261719 350.578125 202.96875 349.851562 202.894531 349.59375 C 202.582031 348.542969 203.035156 347.625 203.121094 346.515625 C 204.34375 348.21875 203.042969 350 203.671875 351.648438 C 203.898438 350.265625 203.386719 348.636719 205.15625 347.785156 C 205.023438 348.515625 205.253906 349.0625 205.773438 349.613281 C 206.09375 349.953125 206.285156 350.542969 206.011719 351.195312 C 205.765625 351.773438 205.960938 352.464844 206.835938 351.953125 C 207.449219 351.59375 207.894531 351.847656 208.304688 352.152344 C 208.75 352.484375 209.042969 352.285156 208.984375 351.933594 C 208.863281 351.082031 209.457031 350.378906 209.363281 349.554688 C 209.203125 348.136719 209.589844 346.722656 209.363281 345.300781 C 209.328125 345.09375 209.390625 344.820312 209.5625 344.839844 C 209.988281 344.886719 210.519531 344.78125 210 344.402344 C 209.375 343.957031 210.386719 343.511719 209.914062 343.453125 C 208.890625 343.3125 209.628906 343.199219 209.828125 342.894531 C 210.207031 342.316406 210.652344 341.664062 210.113281 340.945312 C 209.828125 340.566406 209.808594 340.601562 210.066406 340.148438 C 210.152344 339.996094 210.160156 339.710938 209.914062 339.683594 C 208.957031 339.589844 209.222656 338.898438 209.183594 338.320312 C 209.070312 336.226562 209.023438 334.121094 208.796875 332.046875 C 208.777344 331.828125 208.777344 331.621094 208.785156 331.414062 C 208.84375 331.136719 208.890625 330.855469 208.917969 330.550781 C 210.140625 332.257812 208.84375 334.039062 209.46875 335.6875 C 209.695312 334.304688 209.183594 332.671875 210.957031 331.820312 C 210.84375 332.445312 211.003906 332.929688 211.371094 333.402344 C 211.421875 333.628906 211.46875 333.859375 211.488281 334.085938 C 211.535156 334.597656 211.617188 335.109375 211.722656 335.609375 C 211.714844 335.761719 211.734375 335.894531 211.800781 335.988281 C 212.027344 337.144531 212.234375 338.300781 211.96875 339.496094 C 211.933594 339.65625 212.121094 339.957031 211.855469 339.96875 C 210.585938 340.007812 210.945312 341.066406 210.917969 341.664062 C 210.878906 342.402344 210.9375 343.3125 211.476562 343.871094 C 212.195312 344.601562 212.273438 344.933594 211.410156 345.320312 C 210.777344 345.605469 211.296875 346.175781 211.355469 346.191406 C 211.769531 346.304688 212.246094 346.429688 212.632812 346.324219 C 213.070312 346.210938 213.210938 345.765625 213.097656 345.292969 C 213.058594 345.113281 212.964844 344.855469 213.164062 344.773438 C 214.28125 344.328125 213.011719 342.875 214.148438 342.449219 C 213.597656 341.257812 214.601562 340.101562 214.214844 338.871094 C 214.121094 338.566406 213.683594 338.460938 213.84375 337.949219 C 214.027344 337.363281 214.121094 336.785156 214.128906 336.207031 C 214.546875 336.5 214.832031 336.3125 214.773438 335.96875 C 214.652344 335.117188 215.246094 334.417969 215.152344 333.59375 C 214.992188 332.171875 215.378906 330.757812 215.152344 329.339844 C 215.113281 329.128906 215.179688 328.855469 215.351562 328.875 C 215.777344 328.921875 216.308594 328.816406 215.789062 328.4375 C 215.164062 327.992188 216.175781 327.546875 215.703125 327.492188 C 214.679688 327.347656 215.417969 327.234375 215.617188 326.933594 C 215.996094 326.355469 216.441406 325.699219 215.902344 324.980469 C 215.617188 324.601562 215.597656 324.640625 215.855469 324.183594 C 215.9375 324.03125 215.949219 323.75 215.703125 323.71875 C 214.746094 323.625 215.011719 322.933594 214.972656 322.355469 C 214.859375 320.261719 214.8125 318.160156 214.585938 316.082031 C 214.460938 314.945312 214.867188 313.90625 214.753906 312.785156 C 215.265625 312.84375 215.484375 313.28125 215.929688 313.183594 C 215.929688 311.101562 215.929688 309.015625 215.929688 307.007812 C 215.492188 306.875 215.550781 307.300781 215.304688 307.3125 C 215.304688 306.921875 214.886719 306.488281 215.304688 306.144531 C 216.167969 305.445312 215.84375 304.667969 215.597656 303.851562 C 215.144531 303.984375 215.378906 304.523438 215.296875 304.507812 C 213.929688 304.25 215.019531 305.246094 214.753906 305.546875 C 214.613281 305.710938 214.566406 305.957031 214.488281 306.144531 C 213.882812 305.027344 214.90625 303.863281 214.195312 302.78125 C 214.089844 302.628906 214.308594 302.527344 214.433594 302.382812 C 215.125 301.617188 214.839844 300.734375 214.800781 299.757812 C 214.242188 300.121094 214.667969 300.574219 214.214844 300.878906 C 214.15625 299.941406 214.082031 299.058594 214.042969 298.175781 C 213.960938 296.066406 214.59375 293.988281 214.328125 291.878906 C 214.175781 290.730469 214.40625 289.527344 213.863281 288.429688 C 213.882812 288.351562 213.902344 288.285156 213.929688 288.210938 C 213.921875 287.945312 213.894531 287.691406 213.894531 287.425781 C 213.902344 286.980469 213.003906 286.183594 214.375 286.222656 C 214.574219 286.230469 214.460938 285.871094 214.289062 285.605469 C 213.855469 284.921875 213.503906 284.382812 214.082031 283.332031 C 214.621094 282.355469 215.492188 281.171875 214.917969 279.722656 C 214.652344 279.066406 214.851562 278.234375 214.785156 277.484375 C 214.753906 277.203125 214.980469 276.792969 214.527344 276.625 C 214.320312 276.746094 214.355469 276.957031 214.300781 277.125 C 214.214844 277.402344 214.519531 277.902344 213.929688 277.894531 C 213.484375 277.882812 213.457031 277.476562 213.410156 277.136719 C 213.390625 276.984375 213.34375 276.839844 213.332031 276.691406 C 213.136719 274.074219 213.25 271.433594 212.90625 268.828125 C 212.839844 268.34375 212.898438 267.832031 212.898438 267.148438 C 213.152344 267.507812 213.277344 267.832031 213.382812 267.820312 C 213.730469 267.792969 213.664062 267.453125 213.695312 267.195312 C 213.75 266.667969 213.449219 266.222656 213.390625 265.691406 C 213.257812 264.421875 213.636719 263.179688 213.371094 261.871094 C 213.171875 260.894531 212.480469 260.136719 212.472656 259.144531 C 212.433594 255.78125 212.195312 252.425781 211.769531 249.082031 C 211.742188 248.855469 211.714844 248.644531 211.789062 248.417969 C 212.195312 247.234375 211.867188 246.039062 211.761719 244.875 C 211.617188 243.246094 211.390625 241.605469 211.421875 239.976562 C 211.46875 236.519531 211.078125 233.070312 211.15625 229.621094 C 211.183594 228.191406 210.519531 226.667969 211.550781 225.300781 C 211.703125 225.113281 211.457031 224.78125 211.230469 224.875 C 210.632812 225.101562 210.8125 224.675781 210.785156 224.421875 C 210.644531 223.140625 210.613281 221.863281 210.566406 220.582031 C 211.105469 220.566406 211.65625 220.566406 212.1875 220.640625 C 212.699219 220.714844 213.210938 220.746094 213.722656 220.746094 C 213.695312 220.792969 213.675781 220.839844 213.636719 220.878906 C 213.136719 221.351562 213.164062 221.75 213.636719 222.136719 C 214.414062 222.78125 213.777344 223.9375 213.664062 224.0625 C 212.917969 224.808594 213.515625 225.652344 213.675781 226.105469 C 213.902344 226.78125 213.882812 227.28125 213.683594 227.871094 C 213.464844 228.523438 213.191406 229.140625 214.121094 229.546875 C 214.734375 229.820312 214.660156 230.796875 214.441406 230.910156 C 213.210938 231.527344 214.128906 232.664062 213.710938 233.441406 C 213.542969 233.753906 213.910156 233.972656 214.0625 234.21875 C 214.140625 234.332031 214.207031 234.453125 214.28125 234.566406 C 213.105469 235.15625 214.222656 236.007812 214.027344 236.707031 C 213.855469 237.296875 214.507812 237.808594 214.40625 238.242188 C 214.027344 239.691406 214.121094 241.132812 214.1875 242.59375 C 214.207031 243.054688 214.667969 243.121094 214.71875 243.492188 C 214.878906 244.707031 214.820312 245.9375 215.019531 247.160156 C 215.152344 247.972656 215.230469 249.0625 214.8125 249.652344 C 214.253906 250.425781 214.945312 250.804688 215.113281 250.804688 C 216.214844 250.835938 215.464844 251.695312 215.425781 251.707031 C 213.882812 252.238281 214.601562 253.460938 214.667969 254.378906 C 214.753906 255.648438 214.867188 256.925781 215.097656 258.167969 C 215.238281 258.925781 214.652344 259.429688 214.839844 260.121094 C 215.191406 261.390625 215.152344 262.734375 215.617188 263.984375 C 215.683594 264.15625 215.796875 264.429688 215.722656 264.515625 C 214.746094 265.726562 215.617188 266.96875 215.457031 268.363281 C 215.84375 267.972656 215.589844 267.59375 215.902344 267.375 C 216.1875 269.042969 214.339844 270.863281 216.269531 272.332031 C 215.578125 272.929688 215.910156 273.855469 215.578125 274.578125 C 215.503906 274.738281 215.902344 275.109375 216.082031 275.382812 C 216.828125 274.757812 216.535156 275.449219 216.480469 275.722656 C 216.367188 276.292969 216.460938 276.839844 215.988281 277.390625 C 215.484375 277.960938 216.328125 278.699219 216.25 279.34375 C 215.976562 281.550781 216.101562 283.75 216.128906 285.957031 C 216.136719 286.5625 216.15625 287.09375 217.125 286.941406 C 216.660156 287.339844 215.976562 287.519531 216.300781 288.152344 C 216.527344 288.589844 216.148438 289.386719 217.039062 289.433594 C 216.792969 289.964844 216.488281 290.457031 216.8125 291.101562 C 216.953125 291.375 216.945312 291.753906 216.707031 292.066406 C 216.0625 292.9375 216.328125 293.90625 216.347656 294.824219 C 216.800781 294.976562 216.90625 293.839844 217.332031 294.617188 C 217.652344 295.191406 218.195312 295.855469 217.53125 296.566406 C 217.039062 297.097656 216.90625 296.40625 216.449219 296.160156 C 216.746094 297.003906 216.023438 297.847656 216.945312 298.441406 C 216.980469 298.472656 216.972656 298.585938 216.980469 298.652344 C 216.773438 298.613281 216.460938 298.386719 216.488281 298.851562 C 216.507812 299.183594 216.773438 299.351562 217.039062 299.511719 C 217.292969 299.664062 217.199219 299.941406 217.125 300.121094 C 216.648438 301.199219 216.878906 302.347656 216.792969 303.464844 C 216.707031 304.628906 217.199219 305.785156 216.761719 306.949219 C 216.527344 307.59375 217.265625 308.257812 216.839844 308.941406 C 217.949219 309.261719 216.972656 310.046875 217.191406 310.570312 C 217.226562 310.675781 217.238281 310.796875 217.226562 310.902344 C 217.171875 311.679688 217.113281 312.445312 217.027344 313.222656 C 217.011719 313.421875 216.734375 313.628906 217.011719 313.808594 C 217.378906 314.046875 217.492188 313.628906 217.710938 313.429688 C 217.558594 313.90625 218.089844 314.550781 217.539062 314.765625 C 217.019531 314.976562 217.152344 315.097656 217.398438 315.34375 C 217.53125 315.46875 217.777344 315.515625 217.550781 315.742188 C 216.792969 316.460938 217.226562 317.285156 217.292969 318.101562 C 217.453125 319.910156 218.183594 321.664062 217.777344 323.519531 C 217.738281 323.683594 217.929688 323.984375 217.664062 323.996094 C 216.394531 324.03125 216.753906 325.09375 216.726562 325.691406 C 216.6875 326.429688 216.746094 327.339844 217.285156 327.898438 C 218.003906 328.628906 218.082031 328.960938 217.21875 329.347656 C 216.582031 329.632812 217.105469 330.199219 217.160156 330.21875 C 217.578125 330.332031 218.050781 330.457031 218.441406 330.351562 C 218.875 330.238281 219.019531 329.792969 218.90625 329.320312 C 218.867188 329.140625 218.773438 328.882812 218.972656 328.796875 C 220.089844 328.351562 218.820312 326.902344 219.957031 326.476562 C 219.40625 325.28125 220.410156 324.128906 220.023438 322.894531 C 219.929688 322.59375 219.492188 322.488281 219.652344 321.976562 C 220.144531 320.421875 219.996094 318.878906 219.300781 317.363281 C 219.21875 317.171875 218.648438 316.273438 219.679688 316.035156 C 220.222656 315.914062 220.203125 315.554688 219.644531 315.355469 C 218.90625 315.089844 219.046875 314.433594 219.5 314.3125 C 220.175781 314.132812 220.0625 313.734375 220.050781 313.34375 C 220.003906 311.375 220.011719 309.386719 219.804688 307.433594 C 219.730469 306.714844 220.023438 305.851562 219.597656 305.292969 C 219.066406 304.609375 219.105469 303.851562 219.160156 303.199219 C 219.292969 301.722656 220.203125 300.328125 218.980469 298.785156 C 218.460938 298.128906 218.402344 296.90625 219.1875 296.054688 C 219.453125 295.769531 219.3125 295.410156 219.40625 295.089844 C 219.550781 294.632812 219.027344 294.292969 218.820312 294.101562 C 218.488281 293.800781 218.707031 294.652344 218.148438 294.691406 C 218.507812 293.820312 218.488281 292.949219 218.402344 292.113281 C 218.335938 291.441406 218.0625 290.835938 218.59375 290.191406 C 219.300781 289.328125 219.320312 288.457031 218.773438 287.375 C 218.5625 286.960938 218.886719 286.097656 218.402344 285.5 C 218.363281 285.453125 218.507812 285.140625 218.5625 285.140625 C 219.472656 285.132812 219.105469 284.488281 218.914062 284.230469 C 218.609375 283.824219 218.675781 283.492188 218.753906 283.074219 C 218.839844 282.5625 219.046875 281.65625 218.875 281.578125 C 217.871094 281.085938 218.820312 280.773438 218.867188 280.386719 C 218.914062 280.015625 219.105469 279.179688 218.640625 279.3125 C 217.691406 279.578125 217.964844 278.746094 217.652344 278.488281 C 217.597656 278.441406 217.683594 278.082031 217.804688 277.988281 C 218.0625 277.789062 218.042969 278.148438 218.164062 278.226562 C 218.726562 278.546875 218.554688 278.074219 218.59375 277.828125 C 218.667969 277.351562 218.097656 276.925781 218.421875 276.453125 C 219.039062 275.542969 217.882812 274.84375 218.164062 273.980469 C 218.164062 273.972656 218.050781 273.90625 217.984375 273.894531 C 217.351562 273.753906 217.292969 273.714844 217.597656 273.242188 C 217.9375 272.691406 217.976562 272.046875 218.363281 271.496094 C 218.675781 271.050781 218.640625 270.351562 218.296875 269.753906 C 217.71875 270.132812 218.335938 270.589844 217.964844 270.871094 C 217.464844 270.078125 217.511719 269.414062 218.214844 269.035156 C 218.46875 268.902344 218.46875 268.75 218.410156 268.636719 C 218.164062 268.117188 218.429688 267.527344 218.230469 266.988281 C 217.671875 267.207031 217.902344 267.765625 217.652344 268.210938 C 217.472656 267.472656 217.207031 266.882812 217.238281 266.304688 C 217.257812 265.757812 217.785156 265.273438 217.785156 264.609375 C 217.890625 264.753906 217.984375 264.886719 218.089844 265.027344 C 218.148438 264.894531 218.242188 264.769531 218.242188 264.636719 C 218.230469 264.222656 218.25 263.785156 218.128906 263.40625 C 217.949219 262.875 217.730469 262.421875 217.902344 261.796875 C 218.148438 260.90625 217.769531 260.613281 217.078125 261.105469 C 217.078125 257.976562 217.078125 254.84375 217.078125 251.707031 C 217.285156 251.960938 217.273438 252.226562 217.292969 252.484375 C 217.324219 252.84375 217.425781 253.210938 217.851562 253.203125 C 218.382812 253.203125 218.230469 252.738281 218.242188 252.4375 C 218.25 252.039062 218.289062 251.613281 217.917969 251.269531 C 217.785156 251.726562 218.183594 252.238281 217.71875 252.671875 C 217.4375 252.007812 217.625 251.402344 217.605469 250.816406 C 217.570312 249.632812 217.472656 249.554688 216.433594 249.992188 C 216.289062 249.660156 216.242188 249.335938 216.460938 249.023438 C 217.085938 248.125 216.054688 246.828125 217.171875 246.039062 C 217.21875 246.003906 217.113281 245.757812 217.09375 245.613281 C 216.914062 244.0625 217.207031 242.421875 216.355469 240.972656 C 216.328125 240.925781 216.347656 240.792969 216.382812 240.773438 C 217.511719 240.253906 216.867188 239.597656 216.640625 238.859375 C 216.515625 238.441406 216.308594 238.0625 216.214844 237.664062 C 216.082031 237.105469 215.492188 236.328125 216.546875 235.980469 C 216.828125 235.882812 216.753906 235.722656 216.695312 235.535156 C 216.628906 235.316406 216.480469 234.984375 216.269531 235.15625 C 215.636719 235.667969 215.777344 235.042969 215.789062 234.824219 C 215.863281 233.800781 215.957031 232.785156 215.796875 231.761719 C 215.769531 231.613281 215.824219 231.414062 215.996094 231.402344 C 216.8125 231.355469 216.394531 231.023438 216.070312 230.929688 C 215.597656 230.796875 215.84375 230.730469 215.863281 230.378906 C 215.949219 228.929688 215.457031 227.480469 215.757812 225.992188 C 215.777344 225.898438 215.363281 225.710938 215.296875 225.414062 C 215.230469 225.160156 215.011719 224.789062 215.246094 224.6875 C 216.222656 224.277344 215.683594 223.671875 215.578125 223.074219 C 215.503906 222.675781 215.464844 222.25 215.65625 221.84375 C 215.84375 221.457031 215.863281 221.066406 215.824219 220.667969 C 216.375 220.640625 216.933594 220.621094 217.484375 220.621094 C 218.515625 220.628906 219.617188 220.59375 220.675781 220.488281 C 221.414062 220.414062 222.230469 220.300781 222.980469 220.402344 C 224 220.546875 225.023438 220.515625 226.011719 220.394531 C 227.574219 220.183594 229.128906 220.449219 230.671875 220.242188 C 231.714844 220.109375 232.917969 220.667969 233.722656 220.347656 C 234.71875 219.949219 235.625 219.996094 236.554688 220.035156 C 238.164062 220.089844 239.664062 220.6875 241.394531 219.957031 C 242.730469 219.398438 244.4375 219.691406 245.972656 219.589844 C 248.292969 219.4375 250.644531 219.597656 252.984375 219.476562 C 253.589844 219.445312 254.109375 219.125 254.753906 219.21875 C 256.953125 219.550781 259.160156 219.257812 261.367188 219.199219 C 262.46875 219.171875 263.605469 218.734375 264.761719 219.285156 C 264.238281 219.511719 263.832031 219.738281 263.414062 220.183594 C 264.285156 220.316406 265.300781 220.59375 265.546875 219.796875 C 265.792969 218.992188 266.210938 219.058594 266.730469 218.992188 C 269.109375 218.6875 271.488281 218.980469 273.882812 218.839844 C 278.15625 218.585938 282.449219 218.640625 286.730469 218.546875 C 289.195312 218.488281 291.65625 218.339844 294.121094 218.300781 C 299.71875 218.222656 305.320312 218.1875 310.917969 218.128906 C 311.230469 218.128906 311.542969 218.101562 311.636719 218.5 C 311.855469 219.410156 312.5 219.371094 313.269531 219.425781 C 314.007812 219.476562 314.660156 218.640625 315.105469 218.980469 C 316.136719 219.789062 317.179688 219.21875 318.230469 219.4375 C 318.109375 218.46875 317.484375 218.679688 316.945312 218.679688 C 316.449219 218.679688 315.863281 219.210938 315.4375 218.289062 C 318.28125 218.253906 321.046875 218.195312 323.792969 218.535156 C 323.792969 218.640625 323.785156 218.746094 323.785156 218.851562 C 323.128906 218.964844 322.476562 219.085938 321.585938 219.246094 C 322.722656 219.777344 323.660156 219.644531 324.578125 219.589844 C 324.777344 219.578125 324.996094 219.484375 325.015625 219.296875 C 325.128906 218.320312 325.867188 218.507812 326.476562 218.507812 C 327.886719 218.5 329.316406 218.300781 330.710938 218.71875 C 331.355469 218.90625 331.875 218.980469 332.585938 218.746094 C 333.402344 218.472656 334.441406 219.132812 335.238281 218.289062 C 335.277344 218.253906 335.476562 218.308594 335.542969 218.375 C 336.28125 219.191406 337.277344 218.792969 338.128906 218.800781 C 338.609375 218.8125 339.027344 218.640625 339.605469 218.765625 C 340.714844 218.992188 341.898438 218.8125 343.0625 218.917969 C 345.441406 219.132812 347.800781 218.40625 350.1875 218.679688 C 350.359375 218.699219 350.566406 218.652344 350.730469 218.574219 C 351.523438 218.148438 352.460938 218.273438 353.296875 218.121094 C 354.519531 217.902344 355.132812 217.648438 355.097656 216.339844 C 355.078125 215.476562 355.277344 214.8125 356.320312 214.625 C 357.21875 214.464844 357.4375 213.695312 356.898438 212.976562 C 356.375 212.292969 356.253906 211.695312 357.332031 211.480469 C 356.660156 210.21875 355.644531 210.757812 354.726562 210.855469 C 354.453125 210.882812 354.160156 210.917969 354.128906 210.53125 C 354.109375 210.179688 354.414062 210.09375 354.671875 210.078125 C 354.964844 210.066406 355.265625 210.171875 355.570312 210.191406 C 356.167969 210.21875 356.660156 210.105469 356.488281 209.320312 C 356.421875 208.996094 356.433594 208.597656 356.800781 208.617188 C 357.160156 208.636719 357.125 209.054688 357.027344 209.347656 C 356.972656 209.527344 356.878906 209.699219 357.058594 209.933594 C 357.4375 209.867188 357.851562 209.601562 358.261719 209.992188 C 358.695312 210.410156 359.207031 210.425781 359.699219 210.078125 C 359.871094 209.964844 359.929688 209.8125 360.117188 210.085938 C 360.363281 210.4375 360.839844 210.378906 360.980469 210.113281 C 361.207031 209.699219 360.800781 209.488281 360.449219 209.289062 C 359.699219 208.875 359.453125 208.257812 359.75 207.414062 C 360.050781 206.535156 360.476562 207.765625 360.582031 207.394531 C 360.828125 206.535156 361.765625 206.363281 362.277344 205.605469 C 361.09375 205.460938 359.984375 205.765625 358.925781 205.265625 C 359.066406 205.160156 359.125 205.074219 359.171875 205.082031 C 360.222656 205.167969 359.996094 204.203125 360.136719 203.730469 C 360.335938 203.066406 359.558594 203.40625 359.246094 203.238281 C 358.828125 203.007812 358.167969 203.199219 358.035156 202.375 C 358.707031 202.460938 359.492188 202.515625 359.785156 201.984375 C 360.535156 201.769531 360.914062 201.390625 360.886719 200.367188 C 360.867188 199.503906 361.066406 198.839844 362.105469 198.652344 C 363.007812 198.488281 363.226562 197.722656 362.683594 197.003906 C 362.164062 196.320312 362.042969 195.722656 363.121094 195.503906 C 362.449219 194.246094 361.433594 194.785156 360.515625 194.878906 C 360.242188 194.910156 359.945312 194.945312 359.917969 194.558594 C 359.898438 194.207031 360.203125 194.121094 360.457031 194.101562 C 360.753906 194.09375 361.054688 194.199219 361.359375 194.21875 C 361.957031 194.246094 362.449219 194.132812 362.277344 193.34375 C 362.210938 193.023438 362.222656 192.625 362.589844 192.644531 C 362.949219 192.664062 362.914062 193.078125 362.816406 193.375 C 362.761719 193.554688 362.667969 193.722656 362.847656 193.960938 C 363.226562 193.894531 363.640625 193.628906 364.050781 194.019531 C 364.484375 194.433594 364.996094 194.453125 365.488281 194.101562 C 365.660156 193.988281 365.71875 193.839844 365.90625 194.113281 C 366.152344 194.464844 366.625 194.40625 366.769531 194.140625 C 366.996094 193.722656 366.589844 193.515625 366.238281 193.316406 C 365.488281 192.898438 365.242188 192.285156 365.535156 191.441406 C 365.972656 190.558594 366.398438 191.792969 366.496094 191.421875 Z M 20.734375 203.671875 C 20.734375 203.566406 20.742188 203.472656 20.742188 203.371094 C 20.761719 203.320312 20.789062 203.273438 20.835938 203.246094 C 21.148438 203.304688 21.261719 203.464844 21.320312 203.671875 C 21.121094 203.71875 20.914062 203.757812 20.714844 203.785156 C 20.714844 203.75 20.722656 203.710938 20.734375 203.671875 Z M 215.265625 220.945312 C 215.265625 220.859375 215.265625 220.773438 215.265625 220.699219 C 215.363281 220.699219 215.464844 220.6875 215.558594 220.6875 C 215.511719 220.792969 215.429688 220.886719 215.265625 220.945312 Z M 215.265625 220.945312 " fill-opacity="1" fill-rule="nonzero"/></g><path fill="#ffffff" d="M 207.574219 102.402344 C 207.621094 102.675781 207.6875 103.121094 207.355469 103.1875 C 206.757812 103.300781 206.796875 103.433594 207.261719 103.679688 C 207.601562 103.863281 207.960938 104.203125 207.5625 104.402344 C 206.75 104.808594 206.9375 105.160156 207.382812 105.671875 C 207.546875 105.851562 207.496094 106.03125 207.234375 106.210938 C 206.617188 106.609375 207.015625 107.347656 207.242188 107.460938 C 207.8125 107.753906 207.828125 107.871094 207.347656 108.238281 C 207.101562 108.429688 206.949219 108.75 206.769531 108.988281 C 206.976562 109.367188 207.335938 108.902344 207.496094 109.214844 C 207.582031 109.386719 207.488281 109.535156 207.347656 109.585938 C 206.246094 109.953125 206.929688 110.671875 207.035156 111.25 C 207.0625 111.382812 207.347656 111.363281 207.183594 111.714844 C 206.902344 112.351562 207.414062 112.910156 208.105469 112.796875 C 208.285156 112.765625 208.445312 112.425781 208.636719 112.75 C 208.730469 112.917969 208.636719 113.261719 208.996094 113.097656 C 209.230469 112.996094 209.277344 112.765625 209.195312 112.519531 C 209.070312 112.171875 209.050781 111.761719 209.03125 111.441406 C 208.984375 110.605469 208.511719 109.714844 209.089844 108.902344 C 209.722656 108.011719 209.773438 107.167969 209.023438 106.304688 C 208.871094 106.125 208.71875 105.699219 208.816406 105.585938 C 209.554688 104.6875 208.824219 103.691406 209.070312 102.726562 C 209.488281 102.800781 209.0625 103.585938 209.488281 103.265625 C 209.828125 103.007812 210.253906 102.128906 209.734375 101.785156 C 208.816406 101.191406 208.710938 100.355469 208.785156 99.503906 C 208.882812 98.460938 209.0625 97.449219 208.851562 96.386719 C 208.625 95.203125 208.75 94.019531 208.851562 92.816406 C 208.949219 91.753906 209.269531 90.644531 208.71875 89.546875 C 208.398438 88.902344 207.960938 88.125 207.355469 88.34375 C 206.902344 88.503906 207.101562 89.507812 207.335938 90.09375 C 207.449219 90.371094 207.761719 90.589844 207.394531 90.835938 C 206.683594 91.316406 206.890625 92.058594 206.722656 92.71875 C 206.464844 93.695312 206.976562 94.519531 207.136719 95.324219 C 207.613281 97.695312 207.214844 100.0625 207.574219 102.402344 Z M 207.574219 102.402344 " fill-opacity="1" fill-rule="nonzero"/><path fill="#ffffff" d="M 207.183594 77.910156 C 207.46875 78.601562 206.578125 79.410156 207.414062 80.023438 C 206.769531 81.636719 207.328125 83.085938 208.019531 84.621094 C 208.617188 84.230469 208.691406 83.832031 208.570312 83.273438 C 208.351562 82.261719 207.859375 81.085938 208.171875 80.234375 C 208.511719 79.296875 208.550781 78.46875 208.304688 77.664062 C 208.105469 77.019531 208.007812 76.359375 208.191406 75.835938 C 208.53125 74.851562 207.828125 74.199219 207.667969 73.390625 C 207.640625 73.230469 207.488281 73.144531 207.316406 73.210938 C 207.15625 73.277344 207.101562 73.421875 207.128906 73.582031 C 207.402344 75.023438 206.605469 76.480469 207.183594 77.910156 Z M 207.183594 77.910156 " fill-opacity="1" fill-rule="nonzero"/><path fill="#ffffff" d="M 332.679688 170.84375 C 332.785156 170.890625 333.183594 170.542969 333.304688 170.304688 C 333.449219 170.03125 333.136719 169.832031 332.957031 169.660156 C 332.5 169.242188 332.660156 169.832031 332.527344 169.945312 C 332.253906 170.171875 332.160156 169.90625 331.988281 169.773438 C 331.382812 169.28125 330.597656 169.195312 330 169.5 C 329.554688 169.726562 329.507812 169.90625 329.441406 169.320312 C 329.421875 169.175781 329.214844 168.996094 329.128906 169.121094 C 328.519531 169.933594 327.574219 169.792969 326.757812 170.039062 C 326.511719 170.113281 326.265625 170.3125 326.351562 170.636719 C 326.4375 170.910156 326.691406 170.855469 326.921875 170.835938 C 327.269531 170.796875 327.726562 170.835938 327.960938 170.769531 C 328.871094 170.511719 329.800781 171.402344 330.625 170.523438 C 330.671875 171.195312 330.253906 171.546875 330.113281 172.007812 C 330.113281 172.007812 330.199219 172.085938 330.199219 172.085938 C 330.910156 171.433594 331.296875 170.179688 332.679688 170.84375 Z M 332.679688 170.84375 " fill-opacity="1" fill-rule="nonzero"/></svg>