<svg xmlns="http://www.w3.org/2000/svg" xmlns:xlink="http://www.w3.org/1999/xlink" width="500" zoomAndPan="magnify" viewBox="0 0 375 374.999991" height="500" preserveAspectRatio="xMidYMid meet" version="1.0"><defs><clipPath id="01715493fc"><path d="M 102 88 L 283 88 L 283 363.796875 L 102 363.796875 Z M 102 88 " clip-rule="nonzero"/></clipPath><clipPath id="b0b8cc25e6"><path d="M 209 11.296875 L 223 11.296875 L 223 47 L 209 47 Z M 209 11.296875 " clip-rule="nonzero"/></clipPath><clipPath id="d02352a577"><path d="M 26.671875 207 L 70 207 L 70 222 L 26.671875 222 Z M 26.671875 207 " clip-rule="nonzero"/></clipPath><clipPath id="24bac74b8b"><path d="M 309 159 L 348.421875 159 L 348.421875 172 L 309 172 Z M 309 159 " clip-rule="nonzero"/></clipPath></defs><g clip-path="url(#01715493fc)"><path fill="#76db9b" d="M 210.785156 91.261719 C 179.359375 83.402344 144.285156 94.628906 123.242188 119.039062 C 102.199219 143.726562 96.867188 179.921875 109.496094 209.664062 C 111.457031 214.433594 114.265625 219.203125 116.507812 223.691406 C 118.191406 226.5 119.875 229.585938 121.277344 232.671875 C 126.609375 243.613281 127.730469 255.960938 127.730469 265.21875 C 128.011719 275.039062 131.941406 284.296875 138.675781 290.75 C 135.867188 293.558594 133.90625 297.765625 134.464844 301.972656 C 134.746094 306.746094 137.550781 311.515625 142.042969 315.160156 C 140.078125 317.40625 138.957031 320.492188 139.515625 323.578125 C 139.796875 326.945312 142.042969 330.3125 145.128906 332.839844 C 143.445312 334.800781 142.882812 337.328125 143.164062 340.132812 C 143.726562 343.21875 145.6875 346.304688 148.777344 348.550781 C 151.019531 350.234375 153.546875 351.074219 155.789062 351.636719 C 156.070312 355.285156 158.316406 358.933594 161.402344 361.175781 C 163.644531 362.859375 166.453125 363.703125 169.257812 363.703125 C 171.222656 363.703125 173.1875 363.140625 174.871094 362.296875 C 178.515625 360.617188 181.042969 357.25 182.164062 353.320312 C 183.566406 353.039062 185.25 352.757812 186.652344 352.476562 C 189.738281 351.917969 193.105469 350.796875 195.632812 347.988281 C 197.035156 346.304688 197.875 343.78125 197.316406 340.976562 C 197.316406 340.414062 197.035156 339.851562 197.035156 339.292969 C 198.15625 339.011719 199.28125 338.449219 200.402344 337.886719 C 203.488281 336.203125 205.734375 333.117188 206.292969 330.03125 C 206.574219 328.347656 206.574219 326.105469 205.734375 324.421875 C 207.976562 323.859375 210.222656 323.296875 212.1875 322.175781 C 215.273438 320.492188 217.796875 317.96875 218.640625 315.160156 C 219.761719 312.074219 219.199219 308.425781 217.515625 305.0625 C 216.957031 303.65625 215.832031 302.535156 214.992188 301.132812 C 225.652344 296.082031 227.898438 287.664062 229.300781 282.894531 C 229.300781 282.332031 229.582031 282.054688 229.582031 281.492188 C 233.511719 269.148438 237.4375 262.972656 246.136719 249.507812 C 248.941406 245.296875 252.589844 240.808594 256.519531 236.039062 C 268.019531 222.007812 282.613281 204.613281 282.613281 178.800781 C 282.613281 157.476562 275.035156 136.714844 262.410156 123.246094 C 247.539062 107.8125 228.179688 95.46875 210.785156 91.261719 Z M 172.0625 357.527344 C 169.539062 358.652344 166.453125 358.371094 164.207031 356.96875 C 163.085938 356.125 161.960938 354.722656 161.402344 353.320312 C 165.050781 353.882812 168.976562 354.441406 172.90625 354.441406 C 173.746094 354.441406 174.589844 354.441406 175.429688 354.441406 C 174.871094 355.84375 173.746094 356.96875 172.0625 357.527344 Z M 191.144531 344.902344 C 189.738281 346.304688 187.496094 347.148438 185.25 347.429688 C 176.832031 349.113281 168.136719 349.113281 160 347.148438 C 159.71875 346.867188 159.15625 346.585938 158.597656 346.585938 C 158.316406 346.585938 158.035156 346.585938 157.753906 346.585938 C 155.789062 346.023438 153.546875 345.464844 151.863281 344.0625 C 150.179688 342.9375 149.054688 341.253906 148.777344 339.570312 C 148.496094 338.167969 149.335938 336.765625 150.179688 336.203125 C 151.582031 336.765625 152.984375 337.328125 154.105469 337.886719 C 162.242188 340.695312 170.941406 342.097656 179.359375 342.097656 C 183.285156 342.097656 187.214844 341.816406 191.421875 341.253906 C 191.421875 341.535156 191.703125 341.816406 191.703125 342.378906 C 191.703125 343.5 191.421875 344.621094 191.144531 344.902344 Z M 200.402344 329.75 C 200.121094 331.15625 199 332.558594 197.316406 333.679688 C 195.351562 334.800781 193.105469 335.082031 190.863281 335.644531 C 179.078125 337.609375 167.011719 336.484375 155.789062 332.839844 C 153.546875 331.996094 150.738281 330.875 148.496094 329.191406 C 146.53125 327.507812 145.128906 325.542969 144.847656 323.578125 C 144.566406 321.613281 145.410156 319.929688 146.8125 319.089844 C 149.335938 320.492188 152.144531 321.335938 154.386719 322.175781 C 164.488281 325.542969 175.429688 327.226562 186.09375 327.226562 C 190.582031 327.226562 195.070312 326.945312 199.558594 326.382812 C 200.402344 326.664062 200.683594 328.347656 200.402344 329.75 Z M 212.46875 308.148438 C 213.589844 310.109375 213.871094 312.355469 213.308594 313.757812 C 212.746094 315.160156 211.34375 316.84375 209.660156 317.6875 C 207.695312 318.527344 205.734375 319.089844 203.207031 319.652344 C 187.777344 322.457031 171.78125 321.054688 156.914062 316.285156 C 153.265625 315.160156 149.335938 313.476562 145.96875 310.953125 C 142.882812 308.425781 140.917969 305.0625 140.640625 301.695312 C 140.359375 298.886719 141.761719 296.082031 143.726562 294.679688 C 147.371094 297.484375 151.863281 299.449219 156.351562 300.851562 C 164.207031 302.816406 180.761719 304.78125 187.214844 305.339844 C 189.738281 305.621094 192.265625 305.621094 194.511719 305.621094 C 200.683594 305.621094 205.453125 304.78125 209.660156 303.65625 C 210.503906 305.339844 211.625 306.746094 212.46875 308.148438 Z M 166.453125 221.449219 C 176.832031 224.535156 188.058594 225.65625 199 224.535156 C 190.019531 248.382812 185.25 274.195312 185.25 299.730469 C 181.324219 299.449219 175.429688 298.609375 170.101562 297.765625 C 172.0625 272.234375 170.941406 246.699219 166.453125 221.449219 Z M 252.027344 233.234375 C 248.101562 238.003906 244.171875 242.773438 241.367188 247.261719 C 232.386719 261.289062 228.179688 267.742188 224.25 280.652344 C 223.96875 281.210938 223.96875 281.492188 223.691406 282.054688 C 222.566406 286.261719 220.324219 293.835938 210.222656 297.484375 C 209.378906 297.484375 208.539062 297.484375 207.976562 298.046875 C 203.488281 299.167969 197.875 300.011719 190.582031 299.730469 C 190.582031 273.636719 195.632812 247.542969 205.171875 223.414062 C 208.257812 222.851562 211.0625 222.289062 214.152344 221.449219 C 219.199219 220.046875 224.8125 217.800781 227.617188 212.1875 C 229.300781 209.101562 229.300781 205.457031 227.898438 202.648438 C 226.777344 200.125 224.53125 198.160156 221.726562 197.597656 C 218.359375 196.757812 214.710938 197.597656 211.625 199.84375 C 208.257812 202.367188 206.292969 206.015625 204.609375 209.664062 C 203.207031 212.46875 202.085938 215.554688 200.683594 218.363281 C 189.460938 219.765625 177.675781 218.921875 166.734375 215.554688 C 166.171875 215.277344 165.328125 214.996094 164.488281 214.996094 C 163.644531 211.066406 162.523438 207.140625 160.558594 203.773438 C 158.875 201.246094 156.914062 199.28125 154.386719 197.878906 C 152.144531 196.757812 149.617188 197.039062 147.933594 198.441406 C 145.96875 199.84375 145.128906 202.089844 145.6875 204.613281 C 146.53125 207.980469 148.496094 211.347656 151.300781 214.152344 C 153.824219 216.398438 156.632812 218.082031 159.71875 219.203125 C 164.769531 244.738281 165.890625 270.832031 163.925781 296.644531 C 161.121094 296.082031 158.597656 295.800781 156.632812 295.242188 C 152.421875 294.117188 148.496094 292.152344 145.128906 289.347656 C 144.847656 289.066406 144.566406 288.789062 144.285156 288.789062 C 137.550781 283.175781 133.0625 274.476562 133.0625 264.9375 C 132.78125 254.835938 131.941406 241.929688 126.050781 229.867188 C 124.644531 226.78125 122.683594 223.691406 121.277344 220.605469 C 118.753906 216.117188 116.507812 211.628906 114.265625 206.859375 C 102.480469 179.082031 107.53125 145.132812 127.171875 122.125 C 142.601562 104.167969 166.171875 93.785156 189.738281 93.785156 C 196.195312 93.785156 202.648438 94.628906 208.820312 96.03125 C 225.09375 100.238281 243.609375 111.742188 257.640625 127.175781 C 269.425781 139.800781 276.15625 159.160156 276.15625 179.082031 C 277 203.210938 263.8125 219.203125 252.027344 233.234375 Z M 207.976562 217.519531 C 208.820312 215.835938 209.378906 214.152344 210.222656 212.46875 C 211.625 209.382812 213.027344 206.578125 215.554688 204.613281 C 216.675781 203.773438 218.359375 203.210938 219.761719 203.210938 C 220.042969 203.210938 220.605469 203.210938 220.882812 203.210938 C 222.007812 203.492188 222.847656 204.050781 223.128906 205.175781 C 223.691406 206.578125 223.691406 208.261719 222.847656 209.945312 C 220.882812 213.59375 216.675781 215.277344 212.746094 216.398438 C 211.34375 216.679688 209.660156 217.238281 207.976562 217.519531 Z M 158.875 212.1875 C 157.753906 211.628906 156.914062 210.785156 156.070312 209.945312 C 154.105469 207.980469 152.703125 205.734375 152.144531 203.210938 C 152.144531 203.210938 152.144531 202.929688 152.144531 202.929688 C 152.144531 202.929688 152.421875 202.929688 152.421875 202.929688 C 152.421875 202.929688 152.703125 202.929688 152.703125 202.929688 C 154.386719 203.773438 155.789062 205.175781 156.632812 206.859375 C 157.472656 208.542969 158.316406 210.226562 158.875 212.1875 Z M 158.875 212.1875 " fill-opacity="1" fill-rule="nonzero"/></g><path fill="#76db9b" d="M 158.316406 117.632812 C 152.144531 115.949219 145.6875 118.195312 140.640625 123.527344 C 135.027344 129.417969 134.1875 138.957031 138.957031 145.410156 C 142.324219 149.902344 147.933594 152.425781 153.546875 152.425781 C 155.789062 152.425781 158.035156 151.863281 160.28125 151.023438 C 167.011719 147.9375 173.1875 140.082031 171.222656 131.664062 C 169.539062 124.367188 164.769531 119.316406 158.316406 117.632812 Z M 158.035156 145.691406 C 152.984375 147.9375 146.8125 146.253906 143.445312 141.765625 C 140.359375 137.554688 140.917969 131.101562 144.847656 127.175781 C 148.496094 123.246094 152.984375 121.84375 156.914062 122.964844 C 161.121094 124.085938 164.488281 127.734375 165.609375 132.785156 C 166.734375 138.117188 162.523438 143.726562 158.035156 145.691406 Z M 158.035156 145.691406 " fill-opacity="1" fill-rule="nonzero"/><g clip-path="url(#b0b8cc25e6)"><path fill="#76db9b" d="M 212.1875 46.648438 C 212.46875 46.648438 212.46875 46.648438 212.746094 46.648438 C 214.152344 46.648438 215.273438 45.804688 215.554688 44.402344 L 222.007812 14.941406 C 222.289062 13.539062 221.445312 11.855469 219.761719 11.574219 C 218.359375 11.296875 216.675781 12.136719 216.394531 13.820312 L 209.941406 43.28125 C 209.660156 44.964844 210.503906 46.367188 212.1875 46.648438 Z M 212.1875 46.648438 " fill-opacity="1" fill-rule="nonzero"/></g><path fill="#76db9b" d="M 136.429688 55.625 C 136.992188 56.46875 137.832031 57.03125 138.675781 57.03125 C 139.234375 57.03125 139.796875 57.03125 140.078125 56.46875 C 141.480469 55.625 141.761719 53.941406 140.917969 52.539062 L 122.121094 22.238281 C 121.277344 20.835938 119.59375 20.554688 118.191406 21.394531 C 116.789062 22.238281 116.507812 23.921875 117.351562 25.324219 Z M 136.429688 55.625 " fill-opacity="1" fill-rule="nonzero"/><path fill="#76db9b" d="M 39.351562 122.40625 L 76.386719 133.628906 C 76.667969 133.628906 76.949219 133.628906 77.226562 133.628906 C 78.351562 133.628906 79.472656 132.785156 80.035156 131.664062 C 80.59375 130.261719 79.753906 128.578125 78.070312 128.296875 L 41.035156 117.074219 C 39.628906 116.511719 37.949219 117.355469 37.667969 119.039062 C 36.824219 120.441406 37.667969 122.125 39.351562 122.40625 Z M 39.351562 122.40625 " fill-opacity="1" fill-rule="nonzero"/><g clip-path="url(#d02352a577)"><path fill="#76db9b" d="M 69.933594 210.226562 C 69.652344 208.824219 68.25 207.699219 66.566406 207.980469 L 29.25 215.835938 C 27.847656 216.117188 26.722656 217.519531 27.003906 219.203125 C 27.285156 220.605469 28.40625 221.449219 29.808594 221.449219 C 30.089844 221.449219 30.089844 221.449219 30.371094 221.449219 L 67.6875 213.59375 C 69.089844 213.3125 70.214844 211.910156 69.933594 210.226562 Z M 69.933594 210.226562 " fill-opacity="1" fill-rule="nonzero"/></g><path fill="#76db9b" d="M 87.609375 265.78125 L 56.746094 282.054688 C 55.34375 282.894531 54.78125 284.578125 55.625 285.980469 C 56.183594 286.824219 57.027344 287.382812 58.148438 287.382812 C 58.710938 287.382812 58.992188 287.382812 59.550781 287.105469 L 90.414062 270.832031 C 91.816406 269.988281 92.378906 268.304688 91.539062 266.902344 C 90.695312 265.78125 89.011719 265.21875 87.609375 265.78125 Z M 87.609375 265.78125 " fill-opacity="1" fill-rule="nonzero"/><path fill="#76db9b" d="M 256.519531 298.609375 C 255.675781 297.484375 253.710938 297.203125 252.589844 298.046875 C 251.46875 298.886719 251.1875 300.851562 252.027344 301.972656 L 273.914062 329.191406 C 274.476562 329.75 275.316406 330.3125 276.160156 330.3125 C 276.71875 330.3125 277.28125 330.03125 277.839844 329.75 C 278.964844 328.910156 279.246094 326.945312 278.402344 325.824219 Z M 256.519531 298.609375 " fill-opacity="1" fill-rule="nonzero"/><path fill="#76db9b" d="M 331.433594 260.167969 L 296.078125 244.175781 C 294.675781 243.613281 292.992188 244.175781 292.433594 245.578125 C 291.871094 246.980469 292.433594 248.664062 293.835938 249.226562 L 329.1875 265.21875 C 329.46875 265.5 330.027344 265.5 330.308594 265.5 C 331.433594 265.5 332.273438 264.9375 332.835938 263.816406 C 333.394531 262.414062 332.835938 260.730469 331.433594 260.167969 Z M 331.433594 260.167969 " fill-opacity="1" fill-rule="nonzero"/><g clip-path="url(#24bac74b8b)"><path fill="#76db9b" d="M 344.621094 159.160156 L 311.792969 165.613281 C 310.390625 165.894531 309.265625 167.296875 309.546875 168.980469 C 309.828125 170.382812 310.949219 171.226562 312.351562 171.226562 C 312.632812 171.226562 312.632812 171.226562 312.914062 171.226562 L 345.742188 164.773438 C 347.144531 164.492188 348.265625 163.089844 347.984375 161.40625 C 347.707031 159.722656 346.304688 158.878906 344.621094 159.160156 Z M 344.621094 159.160156 " fill-opacity="1" fill-rule="nonzero"/></g><path fill="#76db9b" d="M 321.613281 81.441406 C 323.015625 80.597656 323.296875 78.914062 322.734375 77.511719 C 321.890625 76.109375 320.210938 75.828125 318.804688 76.390625 L 290.1875 92.945312 C 288.785156 93.785156 288.503906 95.46875 289.066406 96.871094 C 289.625 97.714844 290.46875 98.273438 291.589844 98.273438 C 292.152344 98.273438 292.433594 98.273438 292.992188 97.992188 Z M 321.613281 81.441406 " fill-opacity="1" fill-rule="nonzero"/></svg>