<svg xmlns="http://www.w3.org/2000/svg" xmlns:xlink="http://www.w3.org/1999/xlink" width="500" zoomAndPan="magnify" viewBox="0 0 375 374.999991" height="500" preserveAspectRatio="xMidYMid meet" version="1.0"><defs><clipPath id="088b9c99fe"><path d="M 0 111.265625 L 246 111.265625 L 246 356 L 0 356 Z M 0 111.265625 " clip-rule="nonzero"/></clipPath><clipPath id="c3177aa5ff"><path d="M 242 119 L 256.988281 119 L 256.988281 366.617188 L 242 366.617188 Z M 242 119 " clip-rule="nonzero"/></clipPath><clipPath id="45d36841f2"><path d="M 86 7.898438 L 374.851562 7.898438 L 374.851562 334 L 86 334 Z M 86 7.898438 " clip-rule="nonzero"/></clipPath></defs><g clip-path="url(#088b9c99fe)"><path fill="#ffffff" d="M 32.039062 352.007812 C 31.574219 351.757812 31.128906 351.335938 30.648438 351.289062 C 28.851562 351.128906 27.039062 351.0625 25.230469 351.03125 C 24.554688 351.019531 23.871094 351.195312 23.183594 351.289062 C 23.195312 351.367188 23.230469 351.585938 23.269531 351.804688 C 23.164062 351.816406 23.101562 351.824219 23.097656 351.820312 C 22.808594 350.367188 21.519531 351.015625 20.816406 350.945312 C 18.570312 350.726562 16.292969 350.863281 14.03125 350.8125 C 13.046875 350.789062 12.0625 350.664062 11.085938 350.539062 C 10.242188 350.4375 9.816406 350.664062 10.035156 351.664062 L 9.234375 351.664062 C 9.378906 351.355469 9.53125 351.035156 9.789062 350.476562 C 7.757812 350.375 5.824219 350.425781 3.949219 350.125 C 2.644531 349.910156 1.410156 349.222656 0.160156 348.710938 C 0.0664062 348.671875 0.0195312 348.335938 0.0664062 348.164062 C 0.292969 347.363281 2.152344 346.019531 2.9375 346 C 4.375 345.964844 5.8125 345.863281 7.246094 345.832031 C 8.574219 345.800781 9.898438 345.847656 11.226562 345.800781 C 12.109375 345.769531 12.996094 345.640625 13.910156 345.253906 C 13.597656 345.167969 13.25 345.140625 12.984375 344.972656 C 12.75 344.824219 11.921875 344.765625 12.746094 344.15625 C 12.933594 344.015625 12.71875 343.292969 12.644531 342.847656 C 12.5625 342.332031 12.421875 341.820312 12.285156 341.222656 C 12.132812 341.296875 11.921875 341.394531 11.703125 341.496094 C 10.261719 340.121094 10.554688 338.226562 10.246094 336.527344 C 10.160156 336.046875 10.320312 335.527344 10.378906 334.957031 C 8.933594 334.808594 9.675781 333.304688 9.484375 332.433594 C 8.992188 330.207031 8.800781 327.914062 8.574219 325.640625 C 8.53125 325.238281 8.886719 324.800781 9.109375 324.265625 C 8.328125 324.042969 8.339844 323.261719 8.371094 322.378906 C 8.394531 321.675781 8.152344 320.96875 8.09375 320.261719 C 8.0625 319.847656 8.15625 319.421875 8.015625 318.996094 C 8.214844 318.671875 8.410156 318.351562 8.609375 318.027344 L 7.765625 318.027344 C 7.742188 317.746094 7.703125 317.359375 7.671875 316.96875 C 8.09375 316.773438 8.472656 316.597656 8.855469 316.421875 L 8.800781 316.246094 C 8.472656 316.296875 8.144531 316.34375 7.777344 316.398438 C 7.585938 315.394531 7.398438 314.40625 7.203125 313.417969 L 7.5625 313.300781 L 8.167969 315.347656 C 8.277344 315.3125 8.386719 315.277344 8.496094 315.242188 C 8.550781 314.3125 8.605469 313.386719 8.660156 312.425781 L 7.148438 312.425781 C 7.699219 312.132812 7.949219 312 8.046875 311.949219 C 7.734375 310.804688 7.445312 309.730469 7.152344 308.664062 C 7.109375 308.507812 6.976562 308.273438 7.03125 308.21875 C 8.175781 307.035156 7.308594 305.984375 6.964844 304.804688 C 6.613281 303.574219 6.613281 302.230469 6.535156 300.929688 C 6.460938 299.742188 6.480469 298.550781 6.472656 297.359375 C 6.472656 297.160156 6.425781 296.878906 6.535156 296.761719 C 7.164062 296.113281 7.121094 295.523438 6.480469 294.917969 C 6.398438 294.839844 6.472656 294.597656 6.472656 294.300781 C 6.773438 294.433594 6.996094 294.53125 7.390625 294.699219 C 7.390625 294.171875 7.390625 293.699219 7.390625 293.226562 C 7.140625 293.375 6.890625 293.523438 6.574219 293.714844 L 6.574219 291.515625 C 6.855469 291.929688 7.023438 292.179688 7.1875 292.429688 C 7.335938 292.429688 7.476562 292.429688 7.621094 292.425781 C 6.699219 290.84375 7.824219 289.570312 7.898438 288.167969 C 7.984375 286.417969 7.726562 284.644531 7.6875 282.878906 C 7.648438 280.820312 7.6875 278.757812 7.683594 276.699219 C 7.683594 276.59375 7.632812 276.492188 7.355469 276.367188 C 7.289062 276.835938 7.21875 277.296875 7.152344 277.765625 L 6.9375 277.859375 C 6.753906 277.417969 6.289062 276.820312 6.429688 276.554688 C 6.96875 275.566406 6.191406 274.691406 6.347656 273.828125 C 6.550781 272.703125 5.980469 271.488281 6.847656 270.425781 C 7.039062 270.191406 6.761719 269.589844 6.726562 269.15625 C 6.699219 268.855469 6.175781 268.171875 7.152344 268.554688 C 7.214844 268.574219 7.351562 268.460938 7.421875 268.382812 C 7.949219 267.789062 7.667969 265.019531 7.039062 264.558594 C 7.808594 264.125 7.871094 262.414062 7.261719 261.8125 C 6.945312 261.5 6.855469 260.921875 6.730469 260.449219 C 6.636719 260.09375 6.644531 259.71875 6.597656 259.273438 L 7.1875 259.273438 C 6.886719 258.785156 6.632812 258.371094 6.289062 257.820312 L 7.648438 257.820312 C 7.667969 256.6875 8.578125 255.339844 6.539062 254.589844 C 7.074219 254.332031 7.398438 254.175781 7.8125 253.972656 C 7.730469 253.332031 7.648438 252.671875 7.539062 251.855469 C 7.546875 251.84375 7.757812 251.621094 7.957031 251.398438 C 7.886719 251.320312 7.820312 251.246094 7.746094 251.167969 C 7.421875 251.355469 7.09375 251.542969 6.636719 251.804688 C 6.914062 250.175781 6.082031 248.46875 7.640625 246.949219 C 8.019531 246.582031 7.359375 245.132812 6.886719 244.238281 C 7.042969 243.925781 7.195312 243.613281 7.355469 243.292969 C 7.570312 243.371094 7.78125 243.441406 8.019531 243.53125 C 8.035156 243.410156 8.078125 243.324219 8.050781 243.292969 C 7.695312 242.824219 7.320312 242.367188 7.015625 241.988281 C 7.015625 240.050781 6.996094 238.058594 7.027344 236.066406 C 7.046875 234.625 7.152344 233.191406 7.203125 231.75 C 7.257812 230.308594 7.25 228.867188 7.335938 227.433594 C 7.402344 226.210938 7.527344 224.992188 7.6875 223.78125 C 7.765625 223.199219 8.59375 222.878906 8.050781 221.980469 C 7.835938 221.617188 8.53125 220.652344 7.65625 220.152344 C 7.789062 219.976562 7.90625 219.789062 8.058594 219.628906 C 8.488281 219.164062 8.855469 218.761719 7.949219 218.371094 C 7.746094 218.28125 7.648438 217.820312 7.605469 217.511719 C 7.570312 217.226562 7.671875 216.925781 7.71875 216.597656 C 7.796875 216.589844 7.972656 216.574219 7.796875 216.589844 C 8.011719 215.84375 8.203125 215.242188 8.34375 214.636719 C 8.40625 214.371094 8.402344 214.066406 8.355469 213.796875 C 8.277344 213.339844 7.511719 212.933594 8.285156 212.410156 C 8.34375 212.371094 8.199219 211.808594 8.019531 211.699219 C 7.164062 211.175781 7.523438 210.816406 8.25 210.4375 C 7.972656 210.121094 7.75 209.859375 7.539062 209.605469 C 7.578125 209.507812 7.609375 209.375 7.640625 209.371094 C 8.332031 209.359375 8.558594 209.28125 8.21875 208.441406 C 7.875 207.597656 7.980469 206.570312 7.859375 205.394531 C 7.890625 205.472656 7.808594 205.277344 7.726562 205.074219 C 8.988281 204.730469 7.9375 203.835938 8.109375 203.21875 C 8.300781 202.507812 7.972656 201.671875 7.949219 200.886719 C 7.921875 200.21875 8.019531 199.554688 8.03125 198.890625 C 8.066406 197.109375 8.066406 195.332031 8.128906 193.558594 C 8.140625 193.277344 8.363281 193.003906 8.3125 192.765625 C 8.3125 192.234375 8.324219 191.699219 8.3125 191.167969 C 8.300781 190.792969 8.261719 190.421875 8.246094 190.046875 C 8.207031 189.199219 8.15625 188.351562 8.15625 187.507812 C 8.15625 186.707031 7.949219 185.753906 8.300781 185.140625 C 9.035156 183.871094 8.214844 182.742188 8.328125 181.566406 C 8.390625 180.917969 8.503906 180.265625 8.609375 179.554688 C 8.675781 179.335938 8.9375 178.949219 8.839844 178.769531 C 8.152344 177.523438 8.5 176.28125 8.675781 175.015625 C 8.769531 174.347656 8.796875 173.664062 8.84375 172.988281 C 8.992188 170.703125 9.148438 168.414062 9.273438 166.128906 C 9.300781 165.636719 9.144531 165.140625 9.175781 164.648438 C 9.285156 162.886719 9.40625 161.121094 9.585938 159.363281 C 9.769531 157.566406 10.035156 155.773438 10.246094 153.976562 C 10.332031 153.269531 10.273438 152.527344 10.429688 151.84375 C 11.132812 148.746094 10.925781 145.601562 11.132812 142.472656 C 11.292969 140.054688 11.84375 137.664062 12.152344 135.25 C 12.3125 133.980469 12.261719 132.6875 12.417969 131.417969 C 12.667969 129.375 12.96875 127.332031 13.335938 125.308594 C 13.539062 124.195312 12.984375 123.429688 11.839844 123.316406 C 10.445312 123.179688 9.0625 122.925781 7.5 122.695312 C 8.324219 121.0625 8.546875 119.394531 10.128906 118.234375 C 10.035156 118.964844 9.976562 119.460938 9.9375 119.765625 C 11.386719 119.765625 12.769531 119.742188 14.15625 119.777344 C 14.753906 119.792969 15.398438 120.152344 15.765625 119.332031 C 15.804688 119.257812 16.1875 119.230469 16.3125 119.324219 C 17.269531 120.011719 18.3125 119.253906 19.292969 119.527344 C 19.699219 119.644531 20.164062 119.628906 20.589844 119.582031 C 21.285156 119.503906 21.972656 119.347656 22.671875 119.230469 C 22.949219 119.183594 23.246094 119.105469 23.523438 119.148438 C 27.464844 119.804688 31.335938 118.871094 35.226562 118.546875 C 36.417969 118.441406 37.597656 118.363281 38.796875 118.316406 C 39.378906 118.296875 40.398438 117.4375 40.457031 117.515625 C 41.371094 118.769531 42.488281 117.691406 43.472656 117.832031 C 43.878906 117.890625 44.714844 118.304688 44.722656 117.253906 C 44.898438 117.277344 45.078125 117.292969 45.257812 117.3125 C 46.144531 117.417969 47.046875 117.648438 47.925781 117.589844 C 49.277344 117.484375 50.613281 117.175781 52.175781 116.917969 C 52.160156 116.890625 52.328125 117.136719 52.511719 117.402344 C 52.652344 117.328125 52.785156 117.300781 52.851562 117.222656 C 52.996094 117.058594 53.097656 116.714844 53.230469 116.703125 C 54.261719 116.652344 55.292969 116.675781 56.320312 116.628906 C 56.550781 116.621094 56.769531 116.417969 56.992188 116.296875 C 56.839844 116.136719 56.714844 115.859375 56.546875 115.828125 C 56.09375 115.746094 55.617188 115.742188 55.15625 115.75 C 53.601562 115.78125 52.046875 115.8125 50.488281 115.875 C 48.972656 115.9375 47.445312 116 45.933594 116.132812 C 42.359375 116.433594 38.796875 116.785156 35.222656 117.089844 C 34.382812 117.160156 33.535156 117.097656 32.695312 117.097656 L 32.679688 116.714844 C 33.304688 116.683594 33.933594 116.652344 34.554688 116.609375 C 34.832031 116.59375 35.113281 116.589844 35.378906 116.515625 C 38.253906 115.734375 41.230469 115.828125 44.160156 115.527344 C 45.789062 115.363281 47.425781 115.316406 49.050781 115.117188 C 50.441406 114.945312 51.8125 114.558594 53.207031 114.421875 C 54.433594 114.300781 55.6875 114.433594 56.925781 114.375 C 58.417969 114.300781 59.898438 114.082031 61.394531 114.023438 C 64.6875 113.90625 67.980469 113.851562 71.277344 113.757812 C 72.429688 113.726562 73.589844 113.691406 74.742188 113.617188 C 76.816406 113.484375 78.886719 113.285156 80.960938 113.183594 C 82.414062 113.109375 83.945312 113.398438 85.3125 113.050781 C 86.460938 112.761719 87.449219 112.769531 88.582031 112.90625 C 89.679688 113.035156 90.824219 112.675781 91.953125 112.578125 C 93.328125 112.453125 94.707031 112.34375 96.085938 112.28125 C 97.847656 112.203125 99.652344 112.375 101.359375 112.042969 C 102.28125 111.867188 103.023438 111.429688 103.878906 112.109375 C 103.929688 112.152344 104.273438 111.703125 104.484375 111.703125 C 106.445312 111.703125 108.40625 111.804688 110.371094 111.777344 C 111.488281 111.761719 112.605469 111.5 113.722656 111.460938 C 114.820312 111.414062 115.917969 111.53125 117.015625 111.523438 C 119.476562 111.507812 121.945312 111.375 124.402344 111.4375 C 127.253906 111.511719 130.101562 111.734375 132.949219 111.890625 C 133.019531 111.890625 133.089844 111.851562 133.160156 111.824219 C 133.160156 111.777344 133.183594 111.710938 133.167969 111.699219 C 133.054688 111.636719 132.929688 111.585938 132.824219 111.539062 C 135.816406 111.640625 138.78125 111.761719 141.753906 111.851562 C 144.089844 111.917969 146.417969 111.960938 148.753906 112 C 151.015625 112.042969 153.28125 112.054688 155.542969 112.101562 C 159.132812 112.179688 162.714844 112.328125 166.304688 112.347656 C 169.003906 112.363281 171.710938 112.179688 174.414062 112.167969 C 176.179688 112.164062 177.949219 112.347656 179.710938 112.371094 C 182.414062 112.402344 185.125 112.355469 187.832031 112.347656 C 188.386719 112.347656 188.9375 112.390625 189.496094 112.390625 C 193.804688 112.371094 198.117188 112.265625 202.421875 112.34375 C 205.269531 112.394531 208.117188 112.621094 210.949219 112.925781 C 214.773438 113.339844 218.585938 113.84375 222.386719 114.441406 C 223.832031 114.667969 225.226562 115.257812 226.636719 115.695312 C 228.78125 116.351562 230.914062 117.03125 233.0625 117.664062 C 233.414062 117.769531 234.007812 117.558594 234.160156 117.75 C 234.507812 118.203125 234.652344 118.804688 234.980469 119.589844 C 233.828125 119.339844 233.074219 119.242188 232.371094 119.007812 C 231.328125 118.664062 231.089844 119.082031 231.28125 120.089844 C 232.25 119.472656 232.746094 119.902344 232.980469 120.871094 C 232.480469 121.246094 231.984375 121.613281 231.496094 121.984375 C 232.640625 122.917969 233.851562 123.851562 234.976562 124.886719 C 235.230469 125.121094 235.355469 125.878906 235.175781 126.113281 C 234.777344 126.628906 234.144531 126.96875 233.566406 127.410156 C 233.632812 127.464844 233.859375 127.667969 234.238281 128.007812 C 233.832031 128.183594 233.507812 128.464844 233.222656 128.433594 C 229.476562 127.980469 225.730469 127.476562 221.988281 127 C 221.714844 126.960938 221.4375 127.03125 221.160156 127.035156 C 219.859375 127.078125 219.707031 126.867188 220.167969 125.753906 C 218.742188 125.328125 217.378906 124.5625 215.792969 124.886719 C 214.3125 125.1875 212.882812 124.402344 211.4375 124.589844 C 210.859375 125.511719 211.683594 125.691406 212.144531 125.953125 C 212.316406 126.046875 212.707031 125.738281 213.308594 125.484375 C 213.402344 125.574219 213.761719 125.917969 214.117188 126.253906 C 214.054688 126.359375 213.992188 126.460938 213.929688 126.566406 C 212.507812 126.066406 210.667969 127.214844 209.550781 125.347656 C 210 125.109375 210.367188 124.917969 210.902344 124.636719 C 209.914062 124.480469 209.082031 124.351562 208.242188 124.21875 C 208.253906 124.183594 208.265625 124.148438 208.273438 124.109375 C 207.75 124.171875 207.046875 124.054688 206.75 124.34375 C 206.335938 124.757812 206.21875 125.480469 205.976562 126.066406 C 205.851562 126.03125 205.730469 126 205.605469 125.964844 C 205.699219 125.464844 205.792969 124.96875 205.929688 124.273438 L 202.210938 124.273438 C 202.195312 124.351562 202.179688 124.429688 202.164062 124.507812 C 202.433594 124.640625 202.703125 124.78125 203.035156 124.949219 C 202.527344 125.214844 202.703125 126.484375 201.621094 125.863281 C 200.460938 125.203125 201.558594 124.804688 202.179688 124.328125 C 201.40625 124.15625 200.945312 124.058594 200.503906 123.960938 C 200.472656 124.40625 200.488281 124.933594 200.378906 125.433594 C 200.332031 125.644531 200.046875 125.964844 199.863281 125.96875 C 198.15625 125.996094 196.445312 125.984375 194.738281 125.9375 C 194.503906 125.933594 194.28125 125.683594 193.996094 125.511719 C 193.304688 126.582031 192.589844 125.640625 191.878906 125.660156 C 191.53125 125.707031 191.15625 125.859375 190.835938 125.78125 C 189.367188 125.417969 187.910156 125.847656 186.453125 125.785156 C 185.859375 125.761719 185.28125 125.5 184.8125 125.375 C 184.316406 125.515625 183.847656 125.71875 183.359375 125.761719 C 182.710938 125.8125 182.050781 125.777344 181.40625 125.714844 C 180.570312 125.628906 179.742188 125.4375 178.90625 125.375 C 178.582031 125.347656 178.207031 125.6875 177.917969 125.621094 C 177.308594 125.480469 176.734375 125.175781 175.902344 124.839844 C 176.75 124.601562 177.402344 124.414062 178.289062 124.15625 C 176.117188 123.363281 175.917969 124.046875 175.707031 125.589844 C 175.117188 125.582031 174.78125 125.195312 174.695312 124.429688 C 173.839844 125.808594 172.214844 126.140625 171.339844 125.21875 C 170.726562 125.402344 170.148438 125.738281 169.609375 125.699219 C 168.625 125.621094 167.664062 125.3125 166.804688 125.128906 C 166.195312 125.183594 165.628906 125.253906 165.058594 125.277344 C 164.320312 125.300781 163.585938 125.292969 162.847656 125.277344 C 161.628906 125.25 160.417969 125.203125 159.199219 125.171875 C 159.011719 125.171875 158.824219 125.253906 158.644531 125.234375 C 158.261719 125.191406 157.890625 125.109375 157.265625 124.996094 C 156.847656 125.441406 154.90625 125.457031 154.277344 124.859375 C 153.675781 125.011719 153.195312 125.246094 152.722656 125.234375 C 150.746094 125.183594 148.765625 125.105469 146.792969 124.921875 C 146.335938 124.882812 145.925781 124.382812 145.410156 124.042969 C 145.285156 124.308594 145.15625 124.585938 145.101562 124.703125 C 144.828125 124.636719 144.546875 124.476562 144.414062 124.554688 C 143.949219 124.835938 143.699219 124.996094 143.316406 124.335938 C 143.15625 124.058594 142.28125 124.199219 141.742188 124.226562 C 141.285156 124.164062 140.828125 124.085938 140.363281 124.039062 C 139.738281 123.976562 139.113281 123.898438 138.492188 123.898438 C 138.089844 123.898438 137.695312 124.042969 137.289062 124.085938 C 137.132812 124.101562 136.960938 124 136.800781 123.96875 C 136.097656 123.832031 135.394531 123.617188 134.6875 123.589844 C 134.40625 123.582031 134.117188 124.007812 133.773438 124.277344 C 133.570312 123.949219 133.378906 123.621094 133.121094 123.210938 C 132.871094 123.570312 132.675781 123.847656 132.476562 124.125 C 132.476562 124.011719 132.476562 123.898438 132.484375 123.789062 C 131.160156 123.699219 129.839844 123.589844 128.511719 123.523438 C 126.609375 123.425781 124.707031 123.292969 122.800781 123.300781 C 121.882812 123.300781 120.992188 122.917969 119.984375 123.445312 C 119.363281 123.769531 118.34375 123.289062 117.5 123.222656 C 115.773438 123.074219 114.019531 122.753906 112.320312 122.917969 C 111.328125 123.019531 110.328125 122.8125 109.367188 123.082031 C 109.152344 123.136719 108.992188 123.402344 108.933594 123.457031 C 108.578125 123.304688 108.300781 123.085938 108.011719 123.074219 C 106.773438 123.039062 105.53125 123.023438 104.289062 123.082031 C 103.972656 123.097656 103.667969 123.527344 103.355469 123.535156 C 102.859375 123.550781 102.351562 123.367188 101.839844 123.269531 C 101.808594 123.371094 101.746094 123.558594 101.625 123.914062 C 101.488281 123.632812 101.402344 123.347656 101.347656 123.351562 C 100.671875 123.425781 100 123.523438 99.335938 123.648438 C 98.878906 123.738281 98.421875 124.007812 97.988281 123.960938 C 97.488281 123.910156 97.015625 123.589844 96.527344 123.402344 C 96.429688 123.367188 96.28125 123.335938 96.195312 123.378906 C 93.722656 124.695312 91.011719 124.171875 88.417969 124.277344 C 82.746094 124.5 77.066406 124.574219 71.390625 124.589844 C 67.957031 124.601562 64.523438 124.371094 61.085938 124.28125 C 59.472656 124.242188 57.851562 124.308594 56.238281 124.246094 C 55.691406 124.226562 55.160156 123.871094 54.613281 123.824219 C 53.855469 123.769531 53.023438 123.691406 52.328125 123.929688 C 51.253906 124.296875 50.355469 123.878906 49.390625 123.652344 C 49.277344 123.628906 49.136719 123.566406 49.054688 123.605469 C 46.589844 124.929688 43.941406 124.0625 41.382812 124.261719 C 39.425781 124.40625 37.460938 124.433594 35.496094 124.445312 C 34.664062 124.449219 33.828125 124.21875 32.996094 124.21875 C 30.722656 124.21875 28.449219 124.328125 26.175781 124.328125 C 23.558594 124.328125 20.9375 124.273438 18.320312 124.242188 C 18.125 124.242188 17.925781 124.273438 17.46875 124.3125 C 17.609375 125.84375 17.742188 127.304688 17.882812 128.765625 C 18.285156 133.03125 18.691406 137.292969 19.082031 141.558594 C 19.128906 142.082031 19.128906 142.613281 19.128906 143.144531 C 19.132812 145.234375 19.132812 147.328125 19.136719 149.417969 C 19.136719 151.046875 18.980469 152.695312 19.164062 154.304688 C 19.871094 160.597656 19.953125 166.914062 20.132812 173.234375 C 20.289062 178.855469 20.691406 184.46875 20.816406 190.09375 C 20.96875 196.761719 20.941406 203.433594 20.980469 210.109375 C 20.988281 212.003906 21 213.902344 20.90625 215.789062 C 20.859375 216.738281 20.429688 217.671875 20.414062 218.613281 C 20.386719 220.003906 20.839844 221.445312 20.605469 222.777344 C 20.230469 224.886719 21.21875 226.988281 20.28125 229.136719 C 19.828125 230.183594 20.292969 231.609375 20.292969 232.867188 C 20.292969 233.535156 20.164062 234.195312 20.125 234.859375 C 19.980469 237.476562 19.789062 240.09375 19.730469 242.714844 C 19.664062 245.808594 19.78125 248.910156 19.695312 252.003906 C 19.617188 254.582031 19.363281 257.152344 19.167969 259.71875 C 19.105469 260.574219 18.917969 261.414062 18.902344 262.269531 C 18.851562 264.738281 18.898438 267.210938 18.835938 269.683594 C 18.792969 271.347656 18.539062 273.011719 18.542969 274.675781 C 18.542969 275.992188 18.949219 277.3125 18.914062 278.628906 C 18.855469 280.59375 18.558594 282.554688 18.367188 284.519531 C 18.304688 285.164062 18.207031 285.8125 18.21875 286.457031 C 18.21875 286.589844 18.644531 286.707031 18.878906 286.835938 C 18.582031 287.734375 17.898438 288.613281 19.082031 289.375 C 19.226562 289.46875 19.144531 289.972656 19.105469 290.28125 C 19.082031 290.511719 18.886719 290.730469 18.902344 290.949219 C 19.007812 292.746094 19.164062 294.546875 19.230469 296.351562 C 19.242188 296.582031 18.835938 296.824219 18.597656 297.089844 C 19.070312 297.652344 19.472656 298.355469 18.925781 299.277344 C 18.816406 299.460938 18.964844 299.804688 18.996094 300.082031 C 19.105469 301.035156 19.269531 301.984375 19.316406 302.941406 C 19.386719 304.363281 19.386719 305.785156 19.398438 307.203125 C 19.398438 307.8125 19.339844 308.421875 19.339844 309.027344 C 19.332031 310.515625 19.339844 312 19.339844 313.558594 C 19.324219 313.558594 19.480469 313.558594 20.039062 313.558594 C 19.460938 313.851562 19.199219 313.988281 18.753906 314.210938 C 19.042969 314.273438 19.285156 314.273438 19.304688 314.335938 C 19.550781 315.117188 19.875 315.902344 19.953125 316.703125 C 20.15625 318.902344 20.28125 321.117188 20.375 323.328125 C 20.40625 324.046875 20.179688 324.78125 20.21875 325.5 C 20.261719 326.160156 20.496094 326.808594 20.671875 327.460938 C 20.792969 327.890625 20.953125 328.308594 21.105469 328.738281 C 20.730469 328.578125 20.335938 328.285156 20.203125 328.375 C 19.898438 328.582031 19.71875 328.984375 19.324219 329.539062 C 20.011719 329.390625 20.335938 329.320312 20.65625 329.25 C 20.558594 329.804688 20.476562 330.363281 20.359375 330.914062 C 20.328125 331.058594 20.203125 331.183594 20.058594 331.429688 C 21.234375 331.683594 21.558594 332.40625 21.363281 333.488281 C 21.121094 334.863281 20.96875 336.25 20.765625 337.703125 C 21.109375 337.929688 21.519531 338.203125 22.082031 338.574219 C 21.546875 338.871094 21.203125 339.058594 20.859375 339.246094 C 20.878906 339.332031 20.902344 339.414062 20.925781 339.496094 C 21.1875 339.472656 21.453125 339.441406 22.035156 339.382812 C 21.519531 339.78125 21.214844 340.015625 20.90625 340.257812 C 21.015625 340.257812 21.125 340.257812 21.230469 340.25 C 21.144531 341.449219 21.1875 342.671875 20.949219 343.832031 C 20.777344 344.640625 20.96875 345.277344 21.832031 345.253906 C 22.761719 345.234375 23.695312 345.078125 24.632812 345.015625 C 26.070312 344.917969 27.511719 344.835938 28.960938 344.765625 C 30.972656 344.671875 32.984375 344.617188 34.992188 344.511719 C 37.894531 344.359375 40.804688 344.195312 43.707031 344.023438 C 47.6875 343.785156 51.664062 343.558594 55.632812 343.257812 C 56.847656 343.164062 58.03125 342.738281 59.238281 342.65625 C 61.152344 342.519531 63.078125 342.5625 65 342.492188 C 65.773438 342.46875 66.542969 342.351562 67.316406 342.265625 C 68.816406 342.097656 70.304688 341.878906 71.800781 341.753906 C 73.644531 341.597656 75.492188 341.546875 77.332031 341.402344 C 79.460938 341.234375 81.582031 341.003906 83.710938 340.816406 C 86.03125 340.617188 88.347656 340.359375 90.675781 340.261719 C 91.945312 340.210938 93.222656 340.492188 94.503906 340.515625 C 95.136719 340.527344 95.867188 340.058594 96.398438 340.246094 C 97.21875 340.53125 97.960938 339.695312 98.859375 340.359375 C 99.261719 340.660156 100.3125 340.027344 101.082031 339.929688 C 102.242188 339.78125 103.378906 339.398438 104.589844 339.976562 C 105.03125 340.1875 105.769531 339.679688 106.378906 339.664062 C 107.800781 339.625 109.226562 339.71875 110.644531 339.710938 C 112.382812 339.699219 114.125 339.640625 115.863281 339.585938 C 117.492188 339.535156 119.117188 339.441406 120.746094 339.402344 C 121.414062 339.386719 122.089844 339.566406 122.75 339.511719 C 124.097656 339.402344 125.433594 339.199219 126.777344 339.039062 C 126.859375 339.027344 126.953125 338.992188 127.019531 339.019531 C 128.195312 339.488281 129.335938 339.042969 130.492188 338.910156 C 130.574219 338.898438 130.660156 338.882812 130.734375 338.910156 C 133.503906 339.710938 136.269531 338.714844 139.039062 338.882812 C 141.238281 339.011719 143.449219 339.023438 145.652344 339.132812 C 145.949219 339.148438 146.230469 339.457031 146.621094 339.6875 C 147.277344 338.820312 148.078125 338.882812 149.019531 339.640625 C 149.296875 339.867188 149.949219 339.867188 150.308594 339.703125 C 152.265625 338.792969 154.144531 339.425781 156.058594 339.8125 C 156.425781 339.890625 156.847656 339.671875 157.242188 339.65625 C 157.640625 339.640625 158.039062 339.710938 158.445312 340.03125 C 158.660156 339.875 158.871094 339.71875 159.21875 339.464844 C 159.257812 339.820312 159.277344 340.023438 159.304688 340.257812 C 160.421875 340.109375 161.566406 339.898438 162.722656 339.839844 C 163.300781 339.8125 164.070312 339.480469 164.449219 340.402344 C 164.503906 340.53125 165.265625 340.371094 165.691406 340.214844 C 167.039062 340.761719 168.386719 341.324219 169.882812 340.339844 C 170.570312 339.886719 170.980469 340.167969 171.175781 341.011719 C 171.273438 340.722656 171.371094 340.445312 171.523438 340.015625 C 171.601562 340.367188 171.652344 340.570312 171.730469 340.910156 C 172.089844 340.589844 172.371094 340.339844 172.777344 339.976562 C 172.933594 340.351562 173.058594 340.652344 173.183594 340.941406 L 176.484375 340.941406 C 176.359375 340.753906 176.261719 340.601562 176.058594 340.289062 C 177.375 340.390625 178.519531 340.480469 179.777344 340.585938 C 179.464844 340.808594 179.238281 340.972656 178.84375 341.261719 L 180.164062 341.261719 C 180.152344 341.011719 180.144531 340.765625 180.128906 340.492188 C 180.296875 340.53125 180.433594 340.542969 180.433594 340.5625 C 180.492188 341.296875 180.726562 341.410156 181.566406 341.394531 C 184.761719 341.324219 187.964844 341.46875 191.164062 341.558594 C 193.492188 341.621094 195.816406 341.753906 198.140625 341.773438 C 198.671875 341.773438 199.472656 342.097656 199.710938 341.160156 C 199.710938 341.152344 200.128906 341.191406 200.296875 341.296875 C 200.476562 341.410156 200.648438 341.796875 200.730469 341.769531 C 201.042969 341.671875 201.316406 341.449219 201.515625 341.324219 C 205.277344 341.976562 209.113281 341.8125 213.007812 341.820312 C 213.152344 341.628906 213.394531 341.3125 213.636719 340.988281 L 213.878906 341.136719 C 213.769531 341.371094 213.660156 341.605469 213.378906 342.1875 C 214.460938 341.921875 215.308594 341.707031 216.152344 341.503906 C 216.429688 341.4375 216.71875 341.375 217 341.3125 C 217.039062 341.535156 217.078125 341.757812 217.171875 342.285156 C 218.179688 340.683594 219.496094 341.214844 220.765625 341.484375 C 220.894531 341.511719 220.941406 341.832031 221.082031 341.910156 C 221.289062 342.023438 221.722656 342.15625 221.761719 342.085938 C 222.304688 341.222656 222.964844 341.566406 223.671875 341.785156 C 223.90625 341.859375 224.234375 341.652344 224.515625 341.566406 C 224.671875 341.519531 224.921875 341.378906 224.960938 341.433594 C 225.785156 342.367188 226.964844 341.28125 227.835938 341.941406 C 227.996094 342.066406 228.324219 342.222656 228.421875 342.148438 C 229.144531 341.636719 229.785156 341.757812 230.507812 342.179688 C 230.804688 342.351562 231.382812 343.144531 231.65625 342.082031 C 233.335938 342.179688 235.027344 342.210938 236.699219 342.421875 C 237.261719 342.488281 237.722656 343.253906 238.300781 342.34375 C 238.417969 342.148438 239.210938 342.191406 239.5625 342.378906 C 240.933594 343.085938 242.367188 343.011719 243.824219 342.949219 C 244.257812 342.929688 244.695312 343.039062 245.183594 343.097656 C 245.277344 343.417969 245.484375 343.773438 245.453125 344.101562 C 245.421875 344.417969 245.214844 344.839844 244.953125 344.984375 C 244.296875 345.347656 243.355469 345.402344 242.925781 345.910156 C 242.132812 346.847656 241.160156 347.417969 239.777344 347.925781 C 240.847656 348.214844 241.609375 348.421875 242.367188 348.632812 C 242.398438 348.78125 242.4375 348.929688 242.46875 349.078125 C 241.851562 349.378906 241.203125 349.628906 240.636719 350.011719 C 240.183594 350.3125 239.839844 350.765625 239.261719 351.335938 C 240.136719 351.445312 240.707031 351.519531 241.316406 351.589844 C 240.226562 353.578125 227.710938 355.933594 226.542969 354.789062 C 225.007812 355.035156 223.730469 355.394531 222.445312 355.398438 C 220.691406 355.40625 218.945312 355.816406 217.171875 355.304688 C 216.4375 355.09375 215.550781 355.429688 214.734375 355.46875 C 214.367188 355.480469 213.996094 355.375 213.597656 355.316406 C 213.355469 355.414062 212.984375 355.695312 212.617188 355.679688 C 211.683594 355.644531 210.75 355.460938 209.816406 355.375 C 209.597656 355.351562 209.355469 355.441406 209.144531 355.523438 C 208.28125 355.863281 207.496094 355.929688 207.125 355.253906 C 205.75 355.410156 204.546875 355.605469 203.332031 355.664062 C 202.339844 355.710938 201.335938 355.585938 200.1875 355.527344 C 200.207031 355.390625 200.1875 355.558594 200.164062 355.675781 C 199.269531 355.746094 198.3125 355.917969 197.382812 355.847656 C 196.957031 355.816406 196.566406 355.289062 196.292969 355.09375 C 195.992188 355.394531 195.675781 355.929688 195.472656 355.894531 C 193.871094 355.582031 191.988281 356.710938 190.558594 354.988281 C 190.484375 355.265625 190.410156 355.554688 190.363281 355.714844 C 189.375 355.617188 188.445312 355.542969 187.515625 355.425781 C 186.832031 355.34375 186.160156 355.117188 185.484375 355.109375 C 184.746094 355.097656 184.007812 355.289062 183.265625 355.328125 C 183.015625 355.335938 182.757812 355.144531 182.5 355.0625 C 182.285156 354.992188 181.878906 354.890625 181.875 354.898438 C 181.300781 356.667969 181.054688 355.128906 180.742188 354.789062 C 180.039062 354.925781 179.398438 355.050781 178.597656 355.203125 C 178.628906 355.273438 178.539062 355.078125 178.488281 354.960938 C 177.925781 355.078125 177.34375 355.125 176.8125 355.320312 C 176.039062 355.605469 175.839844 355.175781 175.628906 354.585938 C 175.589844 354.488281 175.035156 354.433594 174.996094 354.5 C 174.257812 355.976562 173.128906 355.175781 172.089844 355.0625 C 171.464844 354.992188 170.820312 355.144531 170.191406 355.101562 C 166.726562 354.875 163.269531 354.609375 159.804688 354.375 C 159.414062 354.347656 159.011719 354.46875 158.621094 354.441406 C 157.0625 354.355469 155.507812 354.230469 153.945312 354.140625 C 152.375 354.050781 150.789062 353.855469 149.226562 353.972656 C 148.136719 354.058594 148.390625 352.929688 147.640625 352.667969 C 147.558594 352.96875 147.484375 353.226562 147.390625 353.558594 C 147.042969 352.054688 146.277344 353.261719 145.773438 353.308594 C 144.675781 353.410156 143.75 353.308594 142.65625 352.933594 C 141.738281 352.621094 140.40625 351.769531 139.269531 352.917969 C 139.097656 353.089844 138.589844 353.042969 138.277344 352.949219 C 136.925781 352.546875 135.542969 352.804688 134.171875 352.695312 C 132.789062 352.585938 131.394531 352.496094 130.007812 352.523438 C 128.0625 352.554688 126.058594 353.007812 124.1875 352.679688 C 123.089844 352.484375 121.996094 353.308594 120.972656 352.511719 C 120.804688 352.386719 120.371094 352.621094 120.058594 352.664062 C 119.726562 352.703125 119.335938 352.828125 119.066406 352.710938 C 117.964844 352.214844 116.871094 352.511719 115.757812 352.589844 C 114.722656 352.65625 113.671875 352.511719 112.625 352.492188 C 111.234375 352.464844 109.8125 352.304688 108.445312 352.5 C 106.253906 352.820312 104.101562 352.804688 101.921875 352.542969 C 101.613281 352.507812 101.277344 352.917969 100.945312 352.9375 C 100.308594 352.976562 100.195312 352.578125 100.148438 351.964844 C 100.089844 351.175781 99.785156 350.394531 99.527344 349.636719 C 99.472656 349.46875 99.160156 349.390625 98.960938 349.277344 C 98.863281 349.46875 98.75 349.65625 98.671875 349.859375 C 98.484375 350.316406 98.316406 350.785156 98.132812 351.253906 C 98.554688 351.207031 99.019531 351.15625 99.433594 351.109375 C 99.566406 351.503906 99.835938 351.886719 99.757812 352.175781 C 99.648438 352.554688 99.289062 353.125 99.003906 353.148438 C 96.890625 353.308594 94.699219 353.707031 92.675781 353.320312 C 91.105469 353.011719 89.546875 354.222656 88.105469 353.105469 C 86.808594 354.105469 85.28125 353.542969 83.882812 353.644531 C 81.171875 353.84375 78.433594 353.707031 75.707031 353.765625 C 72.394531 353.839844 69.082031 354.019531 65.769531 354.050781 C 63.6875 354.074219 61.601562 353.871094 59.519531 353.828125 C 58.480469 353.808594 57.441406 353.953125 56.398438 353.957031 C 55.457031 353.957031 54.519531 353.832031 53.578125 353.828125 C 52.867188 353.828125 52.160156 353.933594 51.359375 353.996094 C 51.835938 352.765625 53.230469 352.199219 54.785156 352.421875 C 54.464844 351.351562 51.316406 350.796875 49.632812 351.585938 C 50.179688 352.257812 50.714844 352.917969 51.25 353.574219 L 51.074219 354.015625 C 48.769531 354.050781 46.464844 354.160156 44.160156 354.109375 C 41.757812 354.050781 39.34375 353.925781 36.953125 353.65625 C 34.828125 353.417969 32.621094 353.628906 30.554688 352.960938 C 30.578125 352.804688 30.601562 352.648438 30.625 352.484375 C 31.140625 352.558594 31.660156 352.625 32.222656 352.703125 C 32.148438 352.414062 32.085938 352.179688 32.027344 351.949219 C 32.921875 351.949219 33.824219 351.949219 34.914062 351.949219 C 34.601562 351.699219 34.339844 351.324219 34.019531 351.273438 C 33.277344 351.15625 32.460938 351.066406 32.050781 351.976562 Z M 104.640625 350.15625 C 104.679688 350.136719 104.710938 350.105469 104.75 350.097656 C 104.789062 350.09375 104.859375 350.121094 104.859375 350.125 C 104.796875 351.082031 105.347656 351.378906 105.953125 351.496094 C 105.972656 350.742188 106.011719 350.121094 106 349.5 C 106 349.375 105.832031 349.167969 105.714844 349.140625 C 105.550781 349.105469 105.292969 349.152344 105.199219 349.265625 C 104.980469 349.542969 104.835938 349.878906 104.652344 350.183594 C 104.144531 350.105469 103.628906 349.941406 103.132812 349.996094 C 102.988281 350.011719 102.847656 350.617188 102.820312 350.960938 C 102.8125 351.097656 103.253906 351.410156 103.285156 351.382812 C 103.757812 351 104.195312 350.578125 104.640625 350.160156 Z M 102.03125 114.664062 C 102.097656 114.878906 102.160156 115.085938 102.226562 115.300781 C 102.664062 115.117188 103.101562 114.929688 103.535156 114.746094 L 102.910156 113.359375 C 102.800781 113.378906 102.695312 113.398438 102.585938 113.421875 C 102.546875 113.769531 102.546875 114.132812 102.445312 114.464844 C 102.410156 114.582031 102.144531 114.628906 101.984375 114.710938 C 101.46875 113.539062 99.980469 113.269531 99.207031 114.238281 C 99.054688 114.425781 99.085938 114.878906 99.207031 115.117188 C 99.285156 115.273438 99.898438 115.351562 99.902344 115.335938 C 100.324219 114.171875 101.296875 114.800781 102.03125 114.667969 Z M 149.746094 351.292969 C 149.5 350.863281 149.34375 350.296875 148.96875 350.027344 C 148.5 349.683594 147.414062 349.316406 147.367188 349.40625 C 146.679688 350.613281 146.167969 349.734375 145.542969 349.238281 C 145.429688 349.777344 145.332031 350.238281 145.265625 350.554688 C 144.914062 350.300781 144.578125 350.058594 144.238281 349.8125 C 144.140625 349.957031 144.035156 350.105469 143.9375 350.253906 C 144.785156 350.8125 145.636719 351.367188 146.484375 351.929688 C 146.539062 351.835938 146.589844 351.742188 146.636719 351.648438 C 146.585938 351.464844 146.53125 351.289062 146.554688 351.363281 C 147.296875 351.398438 148.1875 351.1875 148.65625 351.527344 C 149.320312 352.019531 149.453125 351.730469 149.710938 351.269531 L 151.226562 351.269531 C 150.835938 350.59375 150.492188 350 150.148438 349.410156 L 149.835938 349.605469 C 149.804688 350.171875 149.773438 350.734375 149.742188 351.292969 Z M 110.222656 351.292969 C 109.78125 349.105469 109.015625 348.730469 107.03125 349.75 C 106.804688 349.863281 106.46875 350.183594 106.503906 350.296875 C 106.609375 350.609375 106.863281 351.082031 107.101562 351.113281 C 108.144531 351.238281 109.203125 351.226562 110.253906 351.269531 C 111.203125 351.347656 112.144531 351.472656 113.089844 351.492188 C 114.742188 351.527344 116.398438 351.503906 118.058594 351.503906 C 118.246094 351.070312 118.546875 350.78125 118.875 350.75 C 119.253906 350.71875 119.648438 350.957031 120.042969 350.992188 C 120.148438 351.003906 120.277344 350.691406 120.398438 350.53125 C 120.652344 350.84375 120.910156 351.15625 121.171875 351.472656 C 121.398438 351.367188 121.664062 351.128906 121.921875 351.132812 C 123.46875 351.148438 125.011719 351.246094 126.558594 351.261719 C 127.546875 351.273438 128.503906 351.175781 129.507812 351.472656 C 130.289062 351.699219 131.207031 351.492188 132.054688 351.398438 C 132.269531 351.378906 132.453125 351.054688 132.484375 351.03125 C 133.011719 351.128906 133.410156 351.222656 133.808594 351.269531 C 134.859375 351.402344 135.925781 350.65625 136.964844 351.335938 C 137.089844 351.417969 137.308594 351.519531 137.394531 351.464844 C 138.46875 350.78125 139.457031 350.5625 140.15625 351.957031 C 140.296875 351.613281 140.414062 351.324219 140.535156 351.035156 C 141.152344 351.339844 141.773438 351.648438 142.695312 352.101562 C 142.324219 350.9375 142.039062 350.027344 141.753906 349.121094 C 141.644531 349.105469 141.527344 349.089844 141.417969 349.074219 C 141.117188 349.722656 140.816406 350.375 140.515625 351.019531 C 140.351562 350.613281 140.21875 350.195312 140.03125 349.800781 C 139.59375 348.886719 139.109375 348.859375 138.453125 349.652344 C 138.304688 349.832031 137.933594 350.015625 137.742188 349.957031 C 137.074219 349.753906 136.457031 349.421875 135.796875 349.191406 C 135.582031 349.121094 135.3125 349.214844 135.066406 349.246094 C 134.433594 349.332031 133.371094 349.6875 133.242188 349.46875 C 132.714844 348.605469 131.703125 349.078125 131.558594 349.171875 C 130.796875 349.671875 130.257812 349.039062 129.625 349.015625 C 129.402344 349.011719 129.175781 348.855469 128.957031 348.867188 C 127.734375 348.90625 126.511719 348.949219 125.296875 349.046875 C 124.125 349.140625 122.972656 348.671875 121.734375 349.359375 C 121.125 349.699219 120.507812 349.734375 120.417969 350.554688 C 120.324219 350.472656 120.199219 350.410156 120.144531 350.3125 C 119.53125 349.230469 118.824219 348.539062 117.53125 349.472656 C 117.324219 349.625 116.820312 349.667969 116.636719 349.519531 C 115.207031 348.390625 113.585938 349.496094 112.085938 349.101562 C 111.792969 349.023438 111.25 349.605469 110.941406 349.972656 C 110.628906 350.351562 110.457031 350.851562 110.222656 351.300781 Z M 115.453125 113.644531 C 115.320312 113.484375 115.117188 113.167969 115.078125 113.1875 C 113.492188 113.9375 111.566406 112.628906 110.0625 114.097656 C 110.5 114.394531 110.960938 114.710938 111.46875 115.058594 C 111.601562 114.820312 111.738281 114.585938 111.714844 114.621094 L 115.347656 114.621094 C 115.40625 114.210938 115.445312 113.90625 115.488281 113.601562 C 115.664062 114.035156 115.839844 114.460938 116.007812 114.871094 C 116.984375 114.738281 117.871094 114.617188 118.753906 114.496094 C 118.730469 114.457031 118.699219 114.414062 118.671875 114.375 C 120.605469 114.542969 122.542969 114.710938 124.503906 114.882812 C 124.996094 114.472656 125.507812 114.046875 125.75 113.84375 C 126.273438 114.09375 126.582031 114.300781 126.925781 114.390625 C 127.28125 114.476562 127.671875 114.394531 128.03125 114.464844 C 128.523438 114.570312 129.003906 114.863281 129.488281 114.867188 C 130.101562 114.871094 130.722656 114.542969 131.332031 114.585938 C 132.5625 114.664062 133.777344 114.925781 135.003906 115.035156 C 135.324219 115.058594 135.671875 114.808594 135.984375 114.695312 C 135.957031 114.332031 135.9375 114.035156 135.914062 113.753906 C 135.261719 113.640625 134.574219 113.445312 133.886719 113.414062 C 131.269531 113.296875 128.660156 113.738281 126.03125 113.425781 C 124.621094 113.261719 123.1875 113.324219 121.761719 113.34375 C 120.929688 113.359375 120.101562 113.5 119.273438 113.578125 C 118.84375 113.617188 118.410156 113.679688 117.980469 113.6875 C 117.136719 113.6875 116.300781 113.65625 115.457031 113.640625 Z M 211.332031 352.875 C 211.6875 353.121094 212.015625 353.457031 212.40625 353.578125 C 212.644531 353.652344 213.230469 353.394531 213.230469 353.289062 C 213.238281 352.699219 213.015625 352.191406 212.304688 352.136719 C 212.109375 352.121094 211.910156 352.144531 211.71875 352.128906 C 211.121094 352.074219 210.621094 351.613281 209.882812 352.074219 C 209.570312 352.269531 208.710938 351.566406 208.085938 351.300781 C 207.992188 351.257812 207.746094 351.386719 207.6875 351.503906 C 207.472656 351.917969 207.308594 352.359375 207.042969 352.992188 C 206.71875 352.804688 206.292969 352.480469 205.808594 352.289062 C 205.261719 352.070312 204.675781 351.933594 204.09375 351.824219 C 203.613281 351.738281 203.113281 351.738281 202.875 351.714844 C 202.433594 351.863281 201.867188 352.074219 201.851562 352.042969 C 201.539062 351.335938 201.074219 351.636719 200.539062 351.691406 C 199.941406 351.746094 199.300781 351.347656 198.691406 351.378906 C 197.640625 351.441406 196.601562 351.683594 195.617188 351.839844 C 195.648438 351.925781 195.785156 352.277344 195.914062 352.632812 C 195.035156 351.816406 194.109375 351.402344 192.933594 351.476562 C 191.816406 351.542969 190.691406 351.527344 189.574219 351.492188 C 187.882812 351.441406 186.199219 351.308594 184.511719 351.277344 C 184.128906 351.273438 183.410156 351.699219 183.394531 351.664062 C 182.875 350.582031 182 351.480469 181.339844 351.277344 C 180.996094 351.175781 180.605469 351.234375 180.253906 351.160156 C 178.429688 350.773438 177.175781 351.582031 177.152344 352.96875 C 177.714844 353.25 178.15625 353.644531 178.617188 353.667969 C 179.664062 353.707031 180.71875 353.558594 181.777344 353.503906 C 182.011719 353.496094 182.25 353.609375 182.484375 353.621094 C 183.738281 353.667969 184.984375 353.71875 186.238281 353.734375 C 187.789062 353.753906 189.34375 353.734375 190.894531 353.738281 C 191.285156 353.738281 191.6875 353.800781 192.066406 353.738281 C 193.046875 353.578125 194.125 353.015625 194.96875 353.261719 C 195.796875 353.503906 196.523438 353.769531 197.40625 353.671875 C 197.992188 353.609375 198.597656 353.796875 199.199219 353.808594 C 199.890625 353.816406 200.582031 353.730469 201.273438 353.730469 C 204.21875 353.730469 207.160156 353.730469 210.105469 353.75 C 210.921875 353.753906 211.425781 353.503906 211.339844 352.875 Z M 224.433594 351.292969 C 223.769531 351.292969 223.242188 352.625 222.804688 351.226562 C 222.460938 351.414062 222.035156 351.761719 221.933594 351.691406 C 220.75 350.769531 219.691406 351.835938 218.578125 351.867188 C 218.359375 351.871094 218.144531 352.089844 217.929688 352.210938 C 217.523438 351.441406 217.109375 351.980469 216.660156 352.167969 C 216.375 352.289062 216.015625 352.359375 215.71875 352.300781 C 215.253906 352.199219 214.820312 351.808594 214.375 351.824219 C 213.269531 351.867188 213.730469 352.734375 213.605469 353.351562 C 216.578125 353.796875 219.402344 353.75 222.175781 353.042969 C 222.167969 352.921875 222.164062 352.804688 222.152344 352.683594 C 222.492188 352.921875 222.828125 353.164062 223.214844 353.4375 C 223.621094 352.726562 224.011719 352.042969 224.433594 351.300781 Z M 184.019531 117.851562 C 184.019531 117.984375 184.019531 118.113281 184.019531 118.242188 L 204.535156 118.242188 L 204.535156 117.835938 C 197.695312 117.535156 190.851562 117.609375 184.019531 117.851562 Z M 199.835938 115.097656 C 199.0625 114.816406 198.316406 114.296875 197.609375 114.335938 C 194.996094 114.488281 192.402344 114.410156 189.800781 114.1875 C 189.496094 114.160156 189.152344 114.585938 188.824219 114.804688 C 188.886719 114.902344 188.945312 114.996094 189.007812 115.097656 L 199.84375 115.097656 Z M 233.242188 351.695312 C 233.582031 352.507812 234.351562 352.730469 235.246094 352.144531 C 235.53125 351.957031 235.917969 351.835938 236.261719 351.824219 C 237.253906 351.785156 238.25 351.808594 239.175781 351.808594 C 239.285156 351.222656 239.367188 350.769531 239.488281 350.113281 C 238.527344 350.34375 237.566406 350.359375 236.886719 350.800781 C 236.152344 351.277344 235.792969 351.378906 235.480469 350.550781 C 234.738281 350.929688 234.039062 351.285156 233.238281 351.695312 Z M 222.023438 116.28125 C 222.875 117.910156 224.128906 117.925781 225.335938 118.085938 C 226.003906 118.175781 226.652344 118.328125 227.3125 118.453125 C 227.15625 117.957031 226.8125 117.515625 226.363281 117.261719 C 226.144531 117.140625 225.734375 117.371094 225.40625 117.4375 C 225.441406 117.378906 225.484375 117.324219 225.519531 117.261719 C 224.457031 116.964844 223.398438 116.667969 222.023438 116.28125 Z M 97.332031 351.691406 C 97.21875 350.921875 97.113281 350.234375 97.035156 349.722656 C 96.167969 349.722656 95.445312 349.707031 94.714844 349.734375 C 94.550781 349.738281 94.25 349.875 94.242188 349.96875 C 94.222656 350.242188 94.257812 350.738281 94.378906 350.773438 C 94.914062 350.929688 95.488281 350.957031 96.152344 351.039062 L 96.152344 351.761719 C 96.5625 351.738281 96.917969 351.710938 97.328125 351.683594 Z M 130.582031 117.578125 C 129.167969 116.828125 122.703125 116.832031 122.085938 117.578125 Z M 18.414062 343.257812 C 17.453125 344.117188 16.519531 344.941406 15.671875 345.699219 C 16.566406 345.640625 17.566406 345.574219 18.679688 345.5 C 18.582031 344.648438 18.488281 343.875 18.414062 343.257812 Z M 96.273438 115.640625 C 96.953125 115.339844 97.5 115.132812 98.015625 114.863281 C 98.269531 114.726562 98.472656 114.488281 98.703125 114.296875 C 98.519531 114.085938 98.28125 113.679688 98.160156 113.710938 C 97.878906 113.785156 97.652344 114.070312 97.441406 114.238281 C 97.03125 114.023438 96.625 113.816406 96.03125 113.507812 C 96.121094 114.285156 96.179688 114.816406 96.273438 115.640625 Z M 105.023438 114.933594 L 105.355469 114.878906 C 105.371094 114.683594 105.390625 114.488281 105.417969 114.15625 C 106.34375 114.433594 107.1875 114.691406 108.113281 114.976562 C 108.070312 114.488281 108.023438 113.992188 107.996094 113.644531 C 107.3125 113.644531 106.6875 113.632812 106.0625 113.644531 C 105.640625 113.65625 105.21875 113.710938 104.792969 113.742188 C 104.871094 114.140625 104.949219 114.535156 105.023438 114.929688 Z M 92.351562 114.527344 C 92.371094 114.652344 92.398438 114.777344 92.417969 114.898438 C 92.707031 115.003906 93 115.144531 93.300781 115.207031 C 93.628906 115.277344 93.984375 115.351562 94.304688 115.304688 C 94.5625 115.269531 94.800781 115.058594 95.035156 114.914062 C 95.242188 114.785156 95.519531 114.667969 95.617188 114.472656 C 95.667969 114.367188 95.417969 113.945312 95.308594 113.945312 C 94.988281 113.945312 94.660156 114.078125 94.34375 114.179688 C 94.03125 114.28125 93.738281 114.460938 93.425781 114.511719 C 93.078125 114.570312 92.714844 114.527344 92.355469 114.527344 Z M 102.164062 350.082031 C 102.222656 350.011719 102.453125 349.730469 102.609375 349.535156 L 100.84375 349.535156 C 100.777344 349.9375 100.683594 350.472656 100.554688 351.234375 C 101.105469 351.207031 101.59375 351.234375 102.050781 351.117188 C 102.148438 351.09375 102.117188 350.5625 102.171875 350.078125 Z M 49.261719 352.859375 C 48.847656 351.285156 47.671875 351.066406 46.300781 352.058594 C 47.296875 352.328125 48.136719 352.554688 49.261719 352.859375 Z M 92.816406 349.46875 C 92.6875 349.46875 92.5625 349.464844 92.433594 349.457031 C 92.234375 349.941406 92.042969 350.429688 91.914062 350.742188 C 92.609375 351.101562 93.109375 351.363281 93.613281 351.617188 C 93.691406 351.574219 93.773438 351.539062 93.851562 351.496094 C 93.511719 350.820312 93.167969 350.140625 92.816406 349.464844 Z M 87.5 350 C 87.4375 350.109375 87.375 350.21875 87.3125 350.320312 C 87.890625 350.71875 88.46875 351.113281 89.046875 351.507812 C 89.191406 351.210938 89.539062 350.828125 89.453125 350.632812 C 89.042969 349.714844 88.132812 350.34375 87.5 350 Z M 175.160156 353.152344 C 175.648438 353.273438 176.15625 353.402344 176.773438 353.550781 C 176.621094 352.6875 176.515625 352.089844 176.367188 351.207031 C 175.886719 351.980469 175.585938 352.46875 175.160156 353.152344 Z M 175.160156 353.152344 " fill-opacity="1" fill-rule="nonzero"/></g><g clip-path="url(#c3177aa5ff)"><path fill="#ffffff" d="M 245.660156 121.449219 C 245.203125 121.621094 244.84375 121.761719 244.484375 121.894531 C 244.539062 122.046875 244.589844 122.195312 244.648438 122.347656 C 244.972656 122.285156 245.308594 122.21875 245.9375 122.09375 C 245.636719 122.53125 245.457031 122.796875 245.253906 123.085938 C 246.15625 123.324219 246.414062 124.03125 246.59375 125.027344 C 246.867188 126.554688 247.558594 128.003906 247.902344 129.527344 C 248.167969 130.726562 248.136719 131.992188 248.304688 133.21875 C 248.433594 134.183594 248.703125 135.128906 248.855469 136.089844 C 249.339844 139.269531 249.84375 142.441406 250.253906 145.632812 C 250.644531 148.664062 250.890625 151.71875 251.261719 154.75 C 251.871094 159.703125 252.625 164.640625 253.136719 169.601562 C 253.46875 172.863281 253.433594 176.160156 253.652344 179.4375 C 253.847656 182.492188 254.191406 185.539062 254.414062 188.589844 C 254.617188 191.335938 254.78125 194.085938 254.910156 196.84375 C 255.113281 201.042969 255.269531 205.242188 255.460938 209.4375 C 255.566406 211.757812 255.769531 214.078125 255.816406 216.398438 C 255.886719 220.226562 255.882812 224.054688 255.882812 227.890625 C 255.882812 229.097656 255.449219 230.421875 255.824219 231.480469 C 256.554688 233.519531 255.269531 235.589844 255.878906 237.273438 C 256.460938 238.890625 256.054688 240.289062 256.117188 241.753906 C 256.261719 244.988281 256.097656 248.238281 256.089844 251.484375 C 256.089844 253.476562 256.175781 255.464844 256.160156 257.457031 C 256.144531 259.144531 256.039062 260.828125 255.980469 262.519531 C 255.914062 264.390625 255.832031 266.269531 255.792969 268.140625 C 255.746094 270.660156 255.730469 273.175781 255.714844 275.695312 C 255.707031 277.425781 255.738281 279.15625 255.710938 280.886719 C 255.675781 283.253906 255.574219 285.621094 255.558594 287.988281 C 255.558594 288.675781 255.949219 289.40625 255.816406 290.042969 C 255.542969 291.332031 255.835938 292.558594 255.902344 293.820312 C 255.929688 294.277344 255.726562 294.738281 255.722656 295.203125 C 255.660156 298.839844 255.542969 302.480469 255.589844 306.117188 C 255.648438 310.417969 255.886719 314.714844 255.964844 319.015625 C 256.011719 321.488281 255.878906 323.964844 255.855469 326.441406 C 255.855469 327.089844 256.027344 327.742188 256.054688 328.394531 C 256.132812 330.316406 256.210938 332.234375 256.230469 334.15625 C 256.257812 336.941406 256.175781 339.734375 256.253906 342.519531 C 256.304688 344.496094 256.605469 346.460938 256.667969 348.4375 C 256.714844 349.78125 256.515625 351.132812 256.492188 352.484375 C 256.484375 352.820312 256.714844 353.15625 256.851562 353.484375 C 257.015625 353.890625 257.199219 354.292969 257.382812 354.695312 C 257.140625 354.789062 257.105469 354.804688 257.070312 354.816406 L 256.90625 354.375 C 256.835938 354.378906 256.765625 354.390625 256.695312 354.394531 C 256.757812 354.820312 256.710938 355.3125 256.914062 355.652344 C 257.324219 356.363281 257.703125 359.398438 257.121094 359.789062 C 255.851562 360.636719 256.222656 361.546875 256.621094 362.613281 C 256.703125 362.84375 256.339844 363.207031 256.289062 363.53125 C 256.210938 364.011719 256.277344 364.523438 256.195312 365.007812 C 256.082031 365.636719 255.957031 366.746094 255.699219 366.785156 C 254.742188 366.9375 254.921875 365.996094 254.78125 365.386719 C 254.5625 364.433594 254.328125 363.488281 254.066406 362.421875 C 253.761719 362.511719 253.402344 362.621094 253.054688 362.71875 C 253.0625 362.550781 253.078125 362.378906 253.109375 361.890625 C 252.773438 362.433594 252.601562 362.707031 252.4375 362.960938 C 252.3125 362.761719 252.195312 362.449219 252.117188 362.457031 C 251.523438 362.53125 251.078125 363.460938 250.335938 362.753906 C 250.273438 362.902344 250.210938 363.046875 250.0625 363.40625 C 249.644531 361.894531 248.09375 361.109375 248.433594 359.359375 C 248.546875 358.78125 247.757812 357.910156 247.769531 357.515625 C 247.792969 356.273438 246.300781 355.664062 246.871094 354.09375 C 247.351562 352.765625 246.773438 351.046875 246.613281 349.503906 C 246.453125 347.976562 246.253906 346.453125 246.019531 344.933594 C 245.890625 344.078125 245.660156 343.238281 245.484375 342.425781 C 245.3125 342.390625 245.484375 342.425781 245.71875 342.476562 C 245.71875 341.753906 245.730469 341.011719 245.714844 340.265625 C 245.714844 340.085938 245.609375 339.746094 245.5625 339.75 C 244.078125 339.824219 244.742188 338.894531 244.855469 338.242188 C 244.941406 337.722656 245.222656 337.277344 244.414062 336.921875 C 244.109375 336.792969 244.152344 335.804688 244.101562 335.207031 C 244.070312 334.832031 244.148438 334.449219 244.179688 334.070312 C 244.0625 334.050781 243.949219 334.03125 243.835938 334.003906 C 244.042969 333.765625 244.25 333.523438 244.464844 333.285156 C 243.792969 332.863281 243.648438 331.960938 244.0625 331.320312 C 244.203125 331.101562 244.308594 330.601562 244.203125 330.519531 C 243.207031 329.722656 243.777344 329.046875 244.390625 328.292969 C 243.355469 327.6875 243.257812 327.085938 244.507812 326.550781 C 243.320312 325.398438 243.539062 323.957031 243.511719 322.542969 C 243.480469 320.722656 243.320312 318.90625 243.257812 317.09375 C 243.222656 315.953125 243.257812 314.8125 243.257812 313.675781 C 243.257812 313.230469 243.210938 312.785156 243.230469 312.34375 C 243.242188 312.128906 243.347656 311.921875 243.425781 311.714844 C 243.503906 311.5 243.703125 311.125 243.679688 311.109375 C 242.335938 310.28125 243.488281 309.558594 243.828125 308.710938 C 243.480469 308.601562 243.164062 308.503906 242.988281 308.445312 C 242.988281 307.25 242.976562 306.152344 242.996094 305.054688 C 242.996094 304.835938 243.101562 304.609375 243.210938 304.40625 C 243.417969 304.019531 243.660156 303.65625 243.886719 303.285156 C 243.792969 303.21875 243.703125 303.152344 243.613281 303.082031 C 243.464844 303.183594 243.324219 303.277344 243.023438 303.480469 C 243.023438 302.371094 243.050781 301.320312 243.019531 300.273438 C 242.980469 299.058594 242.742188 297.820312 242.871094 296.621094 C 243.082031 294.703125 242.25 292.675781 243.449219 290.84375 C 243.535156 290.71875 243.195312 290.316406 243.027344 290.003906 C 243.9375 289.765625 243.734375 288.996094 243.652344 288.121094 C 243.558594 287.171875 243.765625 286.191406 243.789062 285.226562 C 243.796875 284.867188 243.585938 284.507812 243.585938 284.148438 C 243.605469 282.421875 243.683594 280.695312 243.703125 278.96875 C 243.71875 277.558594 243.664062 276.152344 243.675781 274.742188 C 243.675781 273.949219 243.761719 273.152344 243.792969 272.355469 C 243.875 269.96875 243.996094 267.582031 244.007812 265.191406 C 244.007812 263.734375 243.796875 262.285156 243.742188 260.828125 C 243.695312 259.558594 243.703125 258.289062 243.730469 257.019531 C 243.777344 254.398438 243.886719 251.773438 243.886719 249.148438 C 243.886719 247.910156 244.046875 246.6875 243.585938 245.414062 C 243.308594 244.65625 243.839844 243.605469 244.011719 242.6875 C 244.03125 242.570312 244.09375 242.449219 244.089844 242.332031 C 244.074219 240.472656 244.070312 238.609375 244.027344 236.753906 C 243.996094 235.234375 243.8125 233.710938 243.890625 232.195312 C 243.992188 230.292969 244.351562 228.40625 244.476562 226.5 C 244.578125 224.945312 244.492188 223.375 244.515625 221.8125 C 244.539062 220.605469 244.785156 219.363281 244.578125 218.199219 C 244.445312 217.429688 244.460938 216.695312 244.421875 215.945312 C 244.382812 215.140625 244.355469 214.339844 244.328125 213.53125 C 244.246094 210.9375 243.890625 208.308594 244.164062 205.746094 C 244.460938 202.96875 243.890625 200.265625 243.984375 197.53125 C 244.054688 195.507812 244.246094 193.484375 244.261719 191.460938 C 244.273438 190.140625 243.835938 188.78125 244.011719 187.496094 C 244.375 184.875 244.023438 182.277344 244.039062 179.671875 C 244.058594 176.03125 243.898438 172.390625 243.839844 168.742188 C 243.796875 165.867188 243.808594 162.992188 243.765625 160.113281 C 243.703125 155.84375 243.621094 151.578125 243.550781 147.304688 C 243.464844 142.636719 243.417969 137.957031 243.289062 133.289062 C 243.238281 131.363281 242.988281 129.441406 242.851562 127.519531 C 242.742188 125.972656 242.582031 124.421875 242.613281 122.878906 C 242.621094 122.289062 243.007812 121.613281 243.425781 121.167969 C 243.886719 120.671875 244.578125 120.390625 245.328125 119.921875 C 245.503906 120.742188 245.613281 121.234375 245.660156 121.449219 Z M 245.605469 123.488281 C 244.875 124.84375 245.394531 127.226562 246.535156 127.773438 C 246.222656 126.335938 245.925781 124.964844 245.605469 123.488281 Z M 245.605469 123.488281 " fill-opacity="1" fill-rule="nonzero"/></g><path fill="#ffffff" d="M 32.289062 117.199219 C 29.339844 117.8125 26.304688 117.671875 23.320312 117.972656 C 23.308594 117.851562 23.292969 117.734375 23.285156 117.613281 C 26.257812 117.355469 29.230469 117.097656 32.207031 116.839844 C 32.230469 116.957031 32.261719 117.078125 32.289062 117.199219 Z M 32.289062 117.199219 " fill-opacity="1" fill-rule="nonzero"/><path fill="#ffffff" d="M 17.105469 351.691406 C 17.773438 351.691406 18.207031 351.664062 18.632812 351.707031 C 18.789062 351.722656 18.980469 351.855469 19.058594 351.992188 C 19.117188 352.097656 19.027344 352.417969 18.988281 352.421875 C 18.457031 352.460938 17.914062 352.511719 17.394531 352.433594 C 17.265625 352.414062 17.203125 351.957031 17.109375 351.695312 Z M 17.105469 351.691406 " fill-opacity="1" fill-rule="nonzero"/><path fill="#ffffff" d="M 19.695312 351.386719 C 20.449219 351.792969 20.984375 352.082031 21.757812 352.496094 C 20.972656 352.589844 20.429688 352.65625 19.757812 352.734375 C 19.742188 352.351562 19.71875 351.980469 19.695312 351.386719 Z M 19.695312 351.386719 " fill-opacity="1" fill-rule="nonzero"/><g clip-path="url(#45d36841f2)"><path fill="#76db9b" d="M 172.664062 311.449219 C 173.074219 311.574219 173.480469 311.699219 173.886719 311.820312 C 174.445312 310.15625 175.003906 308.484375 175.558594 306.820312 C 175.09375 306.683594 174.625 306.550781 174.160156 306.417969 C 173.660156 308.09375 173.164062 309.773438 172.664062 311.449219 Z M 282.136719 81.050781 C 282.675781 81.53125 283.222656 82.015625 283.765625 82.496094 C 284.585938 81.371094 285.398438 80.246094 286.214844 79.125 C 286.011719 78.992188 285.8125 78.863281 285.609375 78.734375 C 284.453125 79.503906 283.292969 80.277344 282.136719 81.050781 Z M 341.765625 40.105469 C 342.140625 40.4375 342.511719 40.773438 342.886719 41.101562 C 343.894531 40.003906 344.90625 38.90625 345.910156 37.804688 C 345.679688 37.578125 345.453125 37.351562 345.222656 37.125 C 344.070312 38.121094 342.914062 39.113281 341.765625 40.105469 Z M 167.921875 326.292969 C 170.769531 323.785156 172.34375 320.90625 171.925781 317.445312 C 171.421875 317.296875 170.921875 317.148438 170.417969 316.996094 C 169.582031 320.097656 168.75 323.199219 167.921875 326.292969 Z M 333.453125 40.046875 C 338.566406 35.929688 343.027344 32.929688 345.332031 26.320312 C 339.886719 30.15625 335.273438 33.023438 333.453125 40.046875 Z M 301.296875 60.050781 C 292.148438 66.640625 290.816406 68.472656 290.265625 74.109375 C 294.214844 69.078125 297.753906 64.566406 301.296875 60.050781 Z M 134.40625 209.726562 C 134.878906 216.578125 138.695312 222.4375 145.414062 226.945312 C 141.25 220.425781 137.824219 215.074219 134.40625 209.726562 Z M 138.59375 238.535156 C 139.074219 238.148438 139.5625 237.761719 140.046875 237.371094 C 136.257812 232.183594 132.472656 227 128.683594 221.8125 C 128.777344 229.679688 134.636719 233.433594 138.59375 238.535156 Z M 166.695312 255.886719 C 167.15625 255.46875 167.613281 255.054688 168.074219 254.644531 C 163.644531 248.027344 160.914062 240.285156 155.152344 234.550781 C 154.667969 234.867188 154.179688 235.183594 153.6875 235.5 C 158.023438 242.292969 162.359375 249.089844 166.695312 255.886719 Z M 121.765625 239.421875 C 122.414062 239.039062 123.066406 238.664062 123.714844 238.28125 C 118.976562 230.972656 114.234375 223.664062 109.496094 216.355469 C 108.929688 216.714844 108.367188 217.078125 107.808594 217.4375 C 112.460938 224.765625 117.113281 232.09375 121.765625 239.421875 Z M 326.734375 60.546875 C 327.144531 60.890625 327.558594 61.234375 327.972656 61.578125 C 334.722656 55.402344 341.472656 49.222656 348.222656 43.042969 C 339.875 47.601562 332.871094 53.605469 326.734375 60.546875 Z M 123 198.28125 C 124.414062 196.101562 125.910156 194.808594 125.6875 193.980469 C 123.664062 186.539062 119.808594 180.316406 111.894531 175.292969 C 114.285156 184.109375 119.125 190.109375 123 198.28125 Z M 316.601562 44.804688 C 317.152344 45.257812 317.703125 45.707031 318.253906 46.160156 C 321.761719 42.109375 325.078125 37.878906 328.832031 34.070312 C 332.410156 30.445312 336.601562 27.429688 340.234375 23.851562 C 343.726562 20.40625 349.175781 19.097656 351.410156 14.3125 C 338.875 20.503906 318.816406 38.5 316.601562 44.804688 Z M 91.785156 199.4375 C 94.195312 209.210938 104.140625 223.636719 110.578125 227.441406 C 107.933594 222.4375 104.597656 217.800781 102.972656 212.628906 C 101.140625 206.789062 97.167969 203.5 91.785156 199.4375 Z M 191.480469 256.253906 C 192.046875 256.472656 192.613281 256.6875 193.179688 256.90625 C 200.304688 239.921875 207.425781 222.9375 214.550781 205.953125 C 203.96875 221.484375 197.027344 238.570312 191.480469 256.253906 Z M 326.667969 42.417969 C 324.398438 43.464844 323.648438 43.589844 323.253906 44.03125 C 316.75 51.214844 309.898438 58.125 303.894531 65.707031 C 289.734375 83.597656 275.945312 101.773438 262.113281 119.917969 C 260.292969 122.304688 259.078125 125.152344 257.578125 127.792969 C 258.917969 127.964844 259.390625 127.730469 259.667969 127.355469 C 277.558594 103.117188 295.882812 79.253906 316.410156 57.128906 C 320.054688 53.199219 322.636719 48.269531 326.667969 42.417969 Z M 227.964844 193.746094 C 245.601562 165.714844 263.238281 137.679688 280.871094 109.648438 C 258.117188 134.511719 242.03125 163.5625 227.964844 193.746094 Z M 226.652344 184.542969 C 223.703125 186.15625 222.984375 188.808594 223.996094 192.15625 C 224.8125 189.546875 225.625 186.9375 226.441406 184.332031 C 229.832031 182.621094 230.621094 179.398438 231.242188 176.074219 C 232.644531 174.175781 234.042969 172.28125 235.441406 170.382812 C 234.925781 170.078125 234.414062 169.773438 233.898438 169.46875 C 232.902344 171.570312 231.90625 173.675781 230.90625 175.777344 C 229.484375 178.695312 228.0625 181.613281 226.652344 184.542969 Z M 272.476562 140.550781 C 269.25 146.210938 265.964844 151.839844 262.800781 157.535156 C 249.980469 180.636719 236.769531 203.539062 224.574219 226.964844 C 218.21875 239.167969 213.742188 252.339844 208.277344 265.011719 C 206.644531 268.78125 205.015625 272.738281 202.507812 275.917969 C 196.375 283.6875 192.945312 292.605469 190.097656 301.871094 C 189.75 302.996094 188.984375 303.992188 188.425781 305.035156 C 189.308594 300.324219 190.195312 295.621094 191.074219 290.917969 C 188.925781 292.789062 187.898438 295.1875 186.425781 297.269531 C 183.90625 300.835938 185.582031 302.988281 188.546875 304.902344 C 188.546875 307.480469 188.546875 310.058594 188.546875 313.460938 C 185.921875 312.234375 184.027344 311.351562 181.859375 310.332031 C 177.898438 311.414062 176.132812 314.734375 174.839844 318.523438 C 173.429688 322.667969 172.054688 326.828125 170.476562 330.90625 C 169.523438 333.367188 167.996094 335.207031 164.167969 332.945312 C 165.414062 327.609375 166.984375 322.078125 167.949219 316.449219 C 168.855469 311.132812 173.570312 305.988281 169.007812 299.277344 C 166.15625 304.5625 163.710938 309.097656 161.265625 313.628906 C 160.722656 313.382812 160.175781 313.136719 159.628906 312.890625 C 160.382812 306.882812 165.117188 302.121094 165.910156 295.320312 C 163.847656 296.113281 162.09375 296.789062 159.074219 297.945312 C 162.550781 291.757812 159.695312 288.324219 156.234375 284.550781 C 141.609375 268.59375 127.175781 252.457031 112.824219 236.257812 C 103.449219 225.671875 94.972656 214.410156 88.074219 201.996094 C 86.53125 199.226562 85.289062 196.851562 89.035156 193.691406 C 93.65625 197.734375 98.292969 201.796875 102.925781 205.859375 C 103.285156 205.671875 103.640625 205.488281 103.996094 205.304688 C 102.167969 200.734375 100.375 196.152344 98.492188 191.609375 C 97.75 189.824219 96.671875 188.164062 95.988281 186.359375 C 95.585938 185.292969 95.109375 183.476562 95.617188 182.988281 C 96.832031 181.835938 98.859375 181.535156 100.085938 180.386719 C 101.25 179.300781 98.699219 177 101.671875 175.632812 C 104.210938 174.46875 106.027344 171.722656 109.054688 168.828125 C 110.105469 169.570312 112.136719 170.652344 113.722656 172.1875 C 123.546875 181.738281 131.554688 192.773438 139.121094 204.117188 C 145.066406 213.019531 150.375 222.378906 156.707031 230.988281 C 163.132812 239.726562 170.472656 247.796875 177.933594 256.792969 C 182.261719 247.441406 186.21875 238.882812 190.175781 230.328125 C 192.628906 225.035156 195.101562 219.757812 197.523438 214.453125 C 198.125 213.132812 199.394531 211.144531 198.921875 210.460938 C 195.800781 205.941406 198.867188 202.535156 200.769531 199.140625 C 210.992188 180.898438 221.359375 162.742188 231.734375 144.585938 C 235.949219 137.207031 240.09375 129.773438 244.636719 122.59375 C 261.203125 96.445312 277.757812 70.296875 294.679688 44.382812 C 299.992188 36.253906 306.140625 28.609375 312.472656 21.230469 C 316.378906 16.675781 321.234375 12.886719 325.929688 9.089844 C 327.203125 8.054688 329.449219 7.933594 331.257812 7.910156 C 333.257812 7.878906 335.273438 8.445312 337.734375 8.820312 C 336.828125 12.773438 332.558594 12.652344 330.390625 14.871094 C 328.042969 17.285156 325.726562 19.726562 323.457031 22.097656 C 325.960938 25.597656 325.960938 25.597656 323.613281 30.972656 C 325.460938 29.96875 326.621094 29.511719 327.582031 28.792969 C 334.78125 23.394531 341.847656 17.816406 349.160156 12.582031 C 351.628906 10.808594 354.554688 9.140625 358.039062 10.785156 C 358.980469 14.453125 355.25 15.625 354.226562 18.210938 C 356.363281 24.96875 353.167969 29.988281 348.632812 34.90625 C 356.359375 29.925781 363.304688 22.566406 374.71875 28.574219 C 372.195312 30.714844 370.359375 32.488281 368.316406 33.980469 C 348.136719 48.703125 329.882812 65.625 314.050781 84.828125 C 301.230469 100.378906 289.964844 117.214844 277.976562 133.457031 C 276.140625 135.949219 274.160156 138.335938 272.234375 140.773438 C 272.644531 138.839844 273.054688 136.898438 273.472656 134.953125 C 275.390625 132.515625 277.308594 130.074219 279.226562 127.632812 C 278.722656 127.316406 278.222656 127.003906 277.71875 126.6875 C 276.351562 129.480469 274.980469 132.28125 273.613281 135.078125 C 267.363281 140.214844 264.457031 147.523438 260.859375 154.398438 C 263.453125 151.953125 265.21875 148.9375 267.300781 146.15625 C 268.808594 144.128906 270.734375 142.410156 272.476562 140.550781 " fill-opacity="1" fill-rule="nonzero"/></g></svg>