<svg xmlns="http://www.w3.org/2000/svg" xmlns:xlink="http://www.w3.org/1999/xlink" width="500" zoomAndPan="magnify" viewBox="0 0 375 374.999991" height="500" preserveAspectRatio="xMidYMid meet" version="1.0"><defs><clipPath id="b41cc4da92"><path d="M 68.703125 51 L 105 51 L 105 92 L 68.703125 92 Z M 68.703125 51 " clip-rule="nonzero"/></clipPath></defs><path fill="#76db9b" d="M 207.03125 231.554688 C 161.871094 251.042969 163.894531 280.148438 163.710938 341.175781 C 163.710938 341.910156 163.894531 342.648438 163.710938 343.320312 C 163.527344 343.933594 162.972656 344.425781 162.238281 345.40625 L 156.90625 345.710938 C 154.578125 341.972656 154.703125 337.253906 150.71875 334.804688 L 150.71875 291.972656 C 146.921875 277.941406 142.203125 237.5 110.09375 235.476562 C 100.105469 235.90625 104.152344 224.753906 109.542969 224.816406 L 127.375 224.816406 C 132.277344 219.609375 137.238281 214.460938 142.140625 209.253906 C 147.289062 189.09375 138.832031 115.378906 153.539062 117.402344 C 154.273438 118.445312 155.007812 118.996094 155.007812 119.546875 C 155.070312 136.765625 155.007812 179.964844 155.007812 196.875 C 159.238281 215.5625 180.5 223.652344 184.664062 224.878906 C 197.226562 225.734375 202.800781 222.917969 208.011719 222.917969 C 210.09375 227.082031 209.972656 229.902344 207.03125 231.433594 Z M 163.710938 248.714844 C 160.890625 243.382812 169.101562 242.21875 167.753906 236.457031 C 165.914062 231.003906 158.867188 228.738281 155.375 221.8125 C 155.132812 219.914062 154.761719 216.484375 154.394531 213.601562 C 152.988281 211.886719 151.269531 212.070312 151.085938 213.910156 C 150.535156 219.546875 147.347656 224.140625 144.59375 228.429688 C 141.40625 233.332031 141.039062 237.070312 143.796875 241.851562 C 147.042969 247.609375 149.863281 253.554688 152.925781 259.4375 C 156.539062 255.820312 160.15625 252.207031 163.710938 248.652344 Z M 163.710938 248.714844 " fill-opacity="1" fill-rule="nonzero"/><path fill="#76db9b" d="M 276.269531 370.035156 C 274.800781 371.691406 270.878906 375.0625 269.222656 365.378906 C 269.898438 339.214844 261.933594 322.550781 245.511719 312.4375 C 244.898438 312.011719 244.898438 310.785156 244.59375 309.925781 C 249.800781 302.574219 266.527344 309.925781 272.839844 283.273438 C 275.046875 279.902344 276.699219 268.320312 276.636719 265.992188 C 276.515625 257.78125 276.636719 249.570312 276.578125 241.359375 C 276.578125 239.949219 284.789062 231.433594 285.277344 250.367188 C 284.789062 275.613281 294.039062 302.082031 294.222656 303.003906 C 294.285156 303.371094 294.835938 303.675781 295.695312 304.535156 L 307.519531 304.535156 C 309.113281 307.230469 310.21875 311.886719 304.210938 315.929688 C 276.269531 317.402344 276.269531 354.042969 276.210938 369.976562 Z M 272.042969 324.511719 C 274.433594 322.121094 274.1875 322.550781 276.699219 320.28125 C 278.722656 318.503906 280.191406 316.359375 283.5 315.625 C 286.320312 315.011719 288.402344 311.335938 290.855469 309.007812 C 285.769531 303.492188 283.808594 299.9375 281.113281 290.011719 C 277.679688 294.117188 277.3125 299.9375 272.960938 303.613281 C 268.980469 307.046875 268 308.089844 264.382812 311.703125 C 266.28125 316.605469 267.386719 321.570312 272.042969 324.449219 Z M 272.042969 324.511719 " fill-opacity="1" fill-rule="nonzero"/><path fill="#76db9b" d="M 298.390625 58.761719 C 300.289062 58.761719 314.996094 61.886719 318.855469 61.886719 C 320.816406 61.886719 318.488281 61.519531 319.960938 62.988281 L 319.960938 67.890625 L 316.222656 73.285156 C 312.421875 73.285156 309.972656 73.285156 307.519531 73.285156 C 284.726562 73.285156 290.914062 110.355469 290.914062 121.015625 C 290.914062 121.996094 290.976562 122.976562 290.914062 123.898438 C 290.914062 124.265625 290.363281 124.632812 289.8125 125.367188 C 288.28125 125.367188 288.402344 128.429688 285.953125 127.941406 L 282.03125 123.773438 C 282.03125 114.949219 279.273438 85.234375 279.273438 80.453125 C 276.515625 73.53125 276.085938 71.9375 270.511719 70.160156 C 269.53125 70.160156 255.742188 69.730469 255.742188 65.929688 C 255.742188 58.824219 265.730469 64.277344 274.921875 61.703125 C 278.90625 58.824219 277.496094 58.945312 279.394531 56.863281 L 279.394531 1.65625 C 281.722656 0.0625 283.378906 0.246094 285.402344 2.328125 C 289.199219 50.183594 289.199219 52.328125 298.328125 58.699219 Z M 293.425781 70.589844 C 296.796875 70.21875 298.390625 70.832031 299.554688 68.8125 C 296.0625 65.320312 292.507812 61.765625 289.566406 58.824219 C 284.605469 58.332031 285.769531 61.640625 284.664062 63.359375 C 283.378906 65.320312 281.355469 66.851562 278.96875 69.238281 C 281.234375 70.832031 283.5 72.425781 284.726562 73.285156 C 285.460938 76.042969 284.296875 77.757812 286.382812 78.613281 C 289.015625 75.675781 291.710938 72.550781 293.425781 70.589844 Z M 293.425781 70.589844 " fill-opacity="1" fill-rule="nonzero"/><g clip-path="url(#b41cc4da92)"><path fill="#76db9b" d="M 82.828125 57.230469 C 82.949219 55.023438 82.703125 52.574219 86.441406 51.65625 C 91.527344 55.574219 88.28125 63.234375 92.140625 67.035156 C 95.144531 71.996094 102.191406 71.015625 104.152344 76.347656 C 100.351562 81.25 93.613281 78.675781 90.425781 83.332031 C 90.546875 85.292969 89.691406 88.785156 88.464844 91.300781 C 83.808594 89.15625 82.644531 84.253906 80.070312 80.515625 C 77.25 76.410156 70.328125 77.207031 68.980469 71.507812 C 72.042969 66.851562 78.046875 67.707031 80.621094 63.601562 C 82.460938 61.765625 82.703125 59.496094 82.828125 57.109375 Z M 83.5 69.730469 C 83.789062 73.039062 85.746094 75.53125 89.382812 77.207031 C 89.507812 71.875 86.6875 71.078125 83.5 69.730469 Z M 83.5 69.730469 " fill-opacity="1" fill-rule="nonzero"/></g><path fill="#76db9b" d="M 202.128906 151.714844 C 201.453125 146.386719 206.601562 144.914062 208.929688 141.605469 C 211.441406 138.113281 209.664062 133.027344 213.28125 129.839844 C 215.488281 132.617188 217.078125 136.273438 218.058594 140.808594 C 219.835938 144.238281 225.230469 140.992188 226.824219 146.199219 C 211.6875 153.429688 221.980469 164.398438 216.222656 164.398438 C 208.074219 155.390625 213.34375 149.753906 202.128906 151.714844 Z M 213.34375 149.695312 C 214.507812 149.511719 214.8125 148.835938 214.199219 147.855469 C 214.015625 147.550781 213.402344 147.058594 213.28125 147.121094 C 212.667969 147.488281 212.175781 147.976562 211.6875 148.46875 C 212.238281 148.898438 212.789062 149.265625 213.34375 149.695312 Z M 213.34375 149.695312 " fill-opacity="1" fill-rule="nonzero"/></svg>